<?xml version="1.0" encoding="UTF-8" standalone="no"?>
<svg
   width="330"
   height="75"
   viewBox="0 0 330 75"
   version="1.1"
   id="svg8"
   sodipodi:docname="logo.svg"
   xmlns:inkscape="http://www.inkscape.org/namespaces/inkscape"
   xmlns:sodipodi="http://sodipodi.sourceforge.net/DTD/sodipodi-0.dtd"
   xmlns="http://www.w3.org/2000/svg"
   xmlns:svg="http://www.w3.org/2000/svg">
  <defs
     id="defs8" />
  <sodipodi:namedview
     id="namedview8"
     pagecolor="#ffffff"
     bordercolor="#000000"
     borderopacity="0.25"
     inkscape:showpageshadow="2"
     inkscape:pageopacity="0.0"
     inkscape:pagecheckerboard="0"
     inkscape:deskcolor="#d1d1d1"
     showguides="true" />
  <g
     id="g8"
     transform="matrix(0.2261869,0,0,0.2261869,-16.011453,-14.841527)">
    <g
       id="g6">
      <path
         class="cls-1"
         d="m 303.37,320.19 h 9.19 c 5.37,0 8.61,3.18 8.61,7.78 v 0.06 c 0,5.21 -4.05,7.91 -9.1,7.91 h -3.76 v 6.75 h -4.95 v -22.5 z m 8.87,11.34 c 2.47,0 3.92,-1.48 3.92,-3.41 v -0.06 c 0,-2.22 -1.54,-3.41 -4.02,-3.41 h -3.82 v 6.88 z"
         id="path1-2"
         style="fill:#a58255" />
      <path
         class="cls-1"
         d="m 339.53,320.19 h 4.95 v 22.5 h -4.95 z"
         id="path2-6"
         style="fill:#a58255" />
      <path
         class="cls-1"
         d="m 372.28,320.03 h 4.56 l 9.64,22.66 h -5.18 l -2.06,-5.05 h -9.51 l -2.06,5.05 h -5.05 l 9.64,-22.66 z m 5.21,13.24 -2.99,-7.3 -2.99,7.3 z"
         id="path3-1"
         style="fill:#a58255" />
      <path
         class="cls-1"
         d="m 404.42,320.19 h 4.56 l 10.54,13.85 v -13.85 h 4.89 v 22.5 h -4.21 l -10.9,-14.3 v 14.3 h -4.89 v -22.5 z"
         id="path4-9"
         style="fill:#a58255" />
      <path
         class="cls-1"
         d="m 443.28,331.5 v -0.06 c 0,-6.4 5.05,-11.64 11.99,-11.64 6.94,0 11.92,5.17 11.92,11.57 v 0.06 c 0,6.4 -5.05,11.64 -11.99,11.64 -6.94,0 -11.92,-5.18 -11.92,-11.57 z m 18.74,0 v -0.06 c 0,-3.86 -2.83,-7.07 -6.81,-7.07 -3.98,0 -6.75,3.15 -6.75,7.01 v 0.06 c 0,3.86 2.83,7.07 6.81,7.07 3.98,0 6.75,-3.15 6.75,-7.01 z"
         id="path5-9"
         style="fill:#a58255" />
      <path
         class="cls-1"
         d="m 484.36,339.41 2.93,-3.5 c 2.03,1.67 4.15,2.73 6.72,2.73 2.02,0 3.25,-0.8 3.25,-2.12 v -0.06 c 0,-1.25 -0.77,-1.9 -4.53,-2.86 -4.53,-1.16 -7.46,-2.41 -7.46,-6.88 v -0.06 c 0,-4.08 3.28,-6.78 7.87,-6.78 3.28,0 6.07,1.03 8.36,2.86 l -2.57,3.73 c -1.99,-1.38 -3.95,-2.22 -5.85,-2.22 -1.9,0 -2.89,0.87 -2.89,1.96 v 0.06 c 0,1.48 0.96,1.96 4.85,2.96 4.56,1.19 7.14,2.83 7.14,6.75 v 0.06 c 0,4.47 -3.41,6.98 -8.26,6.98 -3.41,0 -6.85,-1.19 -9.55,-3.6 z"
         id="path6-1"
         style="fill:#a58255" />
    </g>
    <path
       class="cls-1"
       d="m 491.59,273.24 v 0.1 c 0,9.64 7.35,17.63 17.87,17.63 10.52,0 17.97,-8.08 17.97,-17.73 v -0.1 c 0,-9.64 -7.35,-17.63 -17.87,-17.63 -10.52,0 -17.97,8.08 -17.97,17.73 m 6.32,0 v -0.1 c 0,-6.66 4.75,-12.09 11.55,-12.09 6.8,0 11.66,5.53 11.66,12.19 v 0.1 c 0,6.66 -4.75,12.1 -11.56,12.1 -6.81,0 -11.65,-5.54 -11.65,-12.2 m -209.92,0 v 0.1 c 0,9.84 7.44,17.63 17.43,17.63 6.42,0 10.33,-2.35 13.91,-6.07 l -3.87,-3.92 c -2.94,2.74 -5.63,4.46 -9.84,4.46 -6.56,0 -11.31,-5.49 -11.31,-12.2 v -0.1 c 0,-6.71 4.75,-12.09 11.31,-12.09 3.92,0 6.86,1.71 9.6,4.26 l 3.87,-4.46 c -3.28,-3.13 -7.1,-5.34 -13.42,-5.34 -10.38,0 -17.68,7.98 -17.68,17.73 m -115.26,0 v 0.1 c 0,9.64 7.34,17.63 17.87,17.63 10.53,0 17.97,-8.08 17.97,-17.73 v -0.1 c 0,-9.64 -7.35,-17.63 -17.87,-17.63 -10.52,0 -17.97,8.08 -17.97,17.73 m 6.31,0 v -0.1 c 0,-6.66 4.75,-12.09 11.56,-12.09 6.81,0 11.66,5.53 11.66,12.19 v 0.1 c 0,6.66 -4.75,12.1 -11.56,12.1 -6.81,0 -11.66,-5.54 -11.66,-12.2 m -61.06,0 v 0.1 c 0,9.84 7.44,17.63 17.43,17.63 6.41,0 10.33,-2.35 13.91,-6.07 l -3.87,-3.92 c -2.94,2.74 -5.63,4.46 -9.84,4.46 -6.56,0 -11.31,-5.49 -11.31,-12.2 v -0.1 c 0,-6.71 4.75,-12.09 11.31,-12.09 3.92,0 6.86,1.71 9.6,4.26 l 3.87,-4.46 c -3.28,-3.13 -7.1,-5.34 -13.42,-5.34 -10.38,0 -17.68,7.98 -17.68,17.73 m 492.06,-7.69 v 0.1 c 0,6.32 4.12,8.47 11.41,10.23 6.37,1.47 7.74,2.79 7.74,5.24 v 0.09 c 0,2.6 -2.35,4.31 -6.07,4.31 -4.26,0 -7.54,-1.62 -10.82,-4.46 l -3.63,4.31 c 4.12,3.67 9.06,5.49 14.3,5.49 7.2,0 12.24,-3.82 12.24,-10.23 v -0.1 c 0,-5.68 -3.77,-8.28 -11.02,-10.04 -6.56,-1.57 -8.13,-2.74 -8.13,-5.38 v -0.1 c 0,-2.25 2.05,-4.06 5.58,-4.06 3.13,0 6.22,1.22 9.3,3.52 l 3.23,-4.56 c -3.47,-2.79 -7.44,-4.31 -12.44,-4.31 -6.81,0 -11.7,4.06 -11.7,9.94 m -364.54,-9.69 -15.08,34.52 h 6.17 l 3.52,-8.28 h 16.21 l 3.48,8.28 h 6.37 l -15.08,-34.52 h -5.58 z m 2.7,7.2 5.92,13.71 h -11.8 l 5.87,-13.71 z m 413.7,-6.95 v 34.28 h 25.66 v -5.39 h -19.64 v -9.2 h 17.19 v -5.39 h -17.19 v -8.91 h 19.39 v -5.39 h -25.42 z m -84.81,0 v 19.73 c 0,6.32 -3.28,9.55 -8.62,9.55 -5.34,0 -8.67,-3.43 -8.67,-9.79 V 256.1 h -6.02 v 19.73 c 0,9.94 5.68,15.08 14.59,15.08 8.91,0 14.74,-5.14 14.74,-15.38 v -19.44 h -6.02 z m -118.39,0 v 14.25 H 442.33 V 256.1 h -6.02 v 34.28 h 6.02 v -14.45 h 16.36 v 14.45 h 6.02 V 256.1 Z m -91.08,0 v 14.25 H 351.25 V 256.1 h -6.02 v 34.28 h 6.02 v -14.45 h 16.36 v 14.45 h 6.03 V 256.1 Z"
       id="path7-4"
       style="fill:#a58255" />
    <path
       class="cls-1"
       d="m 350.48,154.26 c -4.82,1.81 -8.06,6.51 -8.06,11.71 0,6.83 5.56,12.39 12.39,12.39 H 463.1 v -6.12 H 354.81 c -3.45,0 -6.27,-2.81 -6.27,-6.27 0,-2.62 1.68,-5.08 4.08,-5.98 l 98.33,-36.83 -2.15,-5.73 -98.33,36.83 z m 106.51,30.22 v 10.45 H 349.74 v -10.45 h -6.12 v 34.28 h 6.12 v -17.71 h 107.25 v 17.71 h 6.12 v -34.28 z"
       id="path8-4"
       style="fill:#a58255" />
  </g>
  <rect
     class="cls-1"
     x="163.37962"
     y="19.871376"
     width="0.60844284"
     height="41.849102"
     id="rect8"
     style="fill:#a58255;stroke-width:0.226187" />
  <path
     class="cls-1"
     d="m 212.23375,30.18324 -1.40915,0.728322 c 2.77306,2.646386 4.50338,6.376209 4.50338,10.504121 0,1.002006 -0.10178,1.979135 -0.2963,2.924596 h -8.86653 V 33.31819 l -1.6014,0.827844 V 44.340279 H 187.939 c -0.89794,0 -1.47472,-0.719275 -1.47472,-1.601404 0,-0.669513 0.28273,-1.298313 0.907,-1.526761 l 16.17916,-8.355346 7.38951,-3.854224 c -2.76626,-2.264131 -6.29704,-3.623514 -10.14221,-3.623514 -8.84164,0 -16.03666,7.192744 -16.03666,16.036653 0,8.843907 7.19275,16.036651 16.03666,16.036651 0.7464,0 1.47925,-0.05429 2.19853,-0.153807 V 55.77629 c -0.71701,0.110831 -1.45213,0.169638 -2.19853,0.169638 -6.50514,0 -12.02636,-4.297551 -13.86979,-10.205553 0.31214,0.106308 0.65142,0.165117 1.00881,0.165117 h 16.62473 v 11.09673 c 7.03215,-1.698664 12.2729,-8.038682 12.2729,-15.586539 0,-4.369931 -1.75748,-8.334989 -4.60291,-11.230182 z m -11.43376,-3.297806 c 2.57853,0 5.00325,0.676301 7.10454,1.859257 l -21.09193,10.99947 c -0.16738,0.06107 -0.32344,0.137974 -0.47046,0.223924 0.72831,-7.33524 6.93262,-13.082651 14.4556,-13.082651 z m 5.36516,28.029083 v -9.011286 h 8.4526 c -1.33902,4.109815 -4.46266,7.421191 -8.4526,9.011286 z"
     id="path9"
     style="fill:#a58255;stroke-width:0.226187" />
  <g
     id="g42"
     transform="matrix(0.2261869,0,0,0.2261869,-16.011453,-14.841527)">
    <g
       id="g34">
      <path
         class="cls-1"
         d="m 1088.6,213.64 h -9.91 l -0.72,-3.16 11.13,-12.9 h 3.77 v 12.43 h 2.73 v 3.62 h -2.73 v 4.38 h -4.26 v -4.38 z m 0,-3.62 v -6.32 l -5.39,6.32 z"
         id="path10"
         style="fill:#a58255" />
      <path
         class="cls-1"
         d="m 1104.4,207.93 v -0.06 c 0,-5.88 3.65,-10.49 9.05,-10.49 5.4,0 8.99,4.55 8.99,10.44 v 0.06 c 0,5.89 -3.62,10.49 -9.04,10.49 -5.42,0 -8.99,-4.55 -8.99,-10.43 z m 13.45,0 v -0.06 c 0,-3.68 -1.8,-6.46 -4.46,-6.46 -2.66,0 -4.41,2.7 -4.41,6.41 v 0.06 c 0,3.71 1.77,6.46 4.46,6.46 2.69,0 4.41,-2.72 4.41,-6.4 z"
         id="path11"
         style="fill:#a58255" />
      <path
         class="cls-1"
         d="m 1152.44,210.02 -7.8,-12.29 h 5.22 l 4.84,8.15 4.93,-8.15 h 5.07 l -7.8,12.2 v 8.09 h -4.46 z"
         id="path12"
         style="fill:#a58255" />
      <path
         class="cls-1"
         d="m 1173.28,197.72 h 15.31 v 3.97 h -10.87 v 4.12 h 9.57 v 3.97 h -9.57 v 4.26 h 11.02 v 3.97 h -15.45 v -20.29 z"
         id="path13"
         style="fill:#a58255" />
      <path
         class="cls-1"
         d="m 1205.46,197.58 h 4.12 l 8.7,20.44 h -4.67 l -1.86,-4.55 h -8.58 l -1.86,4.55 h -4.55 z m 4.7,11.94 -2.7,-6.58 -2.7,6.58 h 5.39 z"
         id="path14"
         style="fill:#a58255" />
      <path
         class="cls-1"
         d="m 1227.21,197.72 h 9.28 c 2.58,0 4.58,0.72 5.91,2.06 1.13,1.13 1.74,2.72 1.74,4.64 v 0.06 c 0,3.28 -1.77,5.33 -4.35,6.29 l 4.96,7.25 h -5.22 l -4.35,-6.49 h -3.51 v 6.49 h -4.46 v -20.29 z m 8.99,9.86 c 2.17,0 3.42,-1.16 3.42,-2.87 v -0.06 c 0,-1.91 -1.33,-2.9 -3.51,-2.9 h -4.43 v 5.83 z"
         id="path15"
         style="fill:#a58255" />
      <path
         class="cls-1"
         d="m 1252.58,215.06 2.64,-3.16 c 1.83,1.51 3.74,2.46 6.06,2.46 1.83,0 2.93,-0.72 2.93,-1.91 v -0.06 c 0,-1.13 -0.7,-1.71 -4.09,-2.58 -4.09,-1.04 -6.73,-2.17 -6.73,-6.2 v -0.06 c 0,-3.68 2.96,-6.12 7.1,-6.12 2.96,0 5.48,0.93 7.54,2.58 l -2.32,3.36 c -1.8,-1.25 -3.57,-2 -5.28,-2 -1.71,0 -2.61,0.78 -2.61,1.77 v 0.06 c 0,1.34 0.87,1.77 4.38,2.67 4.12,1.07 6.43,2.55 6.43,6.09 v 0.06 c 0,4.03 -3.07,6.29 -7.45,6.29 -3.07,0 -6.18,-1.07 -8.61,-3.25 z"
         id="path16"
         style="fill:#a58255" />
      <path
         class="cls-1"
         d="m 1291.92,207.93 v -0.06 c 0,-5.77 4.55,-10.49 10.81,-10.49 6.26,0 10.75,4.67 10.75,10.44 v 0.06 c 0,5.77 -4.55,10.49 -10.81,10.49 -6.26,0 -10.75,-4.67 -10.75,-10.43 z m 16.9,0 v -0.06 c 0,-3.48 -2.55,-6.37 -6.15,-6.37 -3.6,0 -6.09,2.84 -6.09,6.32 v 0.06 c 0,3.48 2.55,6.38 6.15,6.38 3.6,0 6.09,-2.84 6.09,-6.32 z"
         id="path17"
         style="fill:#a58255" />
      <path
         class="cls-1"
         d="m 1323.26,197.72 h 15.45 v 4.06 h -10.99 v 4.32 h 9.68 v 4.06 h -9.68 v 7.86 h -4.46 v -20.29 z"
         id="path18"
         style="fill:#a58255" />
      <path
         class="cls-1"
         d="m 1079.49,232.82 h 4.81 l 5.33,8.58 5.33,-8.58 h 4.81 v 20.29 h -4.43 v -13.25 l -5.71,8.67 h -0.12 l -5.65,-8.58 v 13.16 h -4.38 v -20.29 z"
         id="path19"
         style="fill:#a58255" />
      <path
         class="cls-1"
         d="m 1110.14,244.42 v -11.6 h 4.46 v 11.48 c 0,3.31 1.65,5.02 4.38,5.02 2.73,0 4.38,-1.65 4.38,-4.87 v -11.63 h 4.46 v 11.45 c 0,6.15 -3.45,9.16 -8.9,9.16 -5.45,0 -8.78,-3.05 -8.78,-9.02 z"
         id="path20"
         style="fill:#a58255" />
      <path
         class="cls-1"
         d="m 1136.78,250.16 2.64,-3.16 c 1.83,1.51 3.74,2.46 6.06,2.46 1.83,0 2.93,-0.72 2.93,-1.91 v -0.06 c 0,-1.13 -0.7,-1.71 -4.09,-2.58 -4.09,-1.04 -6.73,-2.17 -6.73,-6.2 v -0.06 c 0,-3.68 2.96,-6.12 7.1,-6.12 2.96,0 5.48,0.93 7.54,2.58 l -2.32,3.36 c -1.8,-1.25 -3.57,-2 -5.28,-2 -1.71,0 -2.61,0.78 -2.61,1.77 v 0.06 c 0,1.34 0.87,1.77 4.38,2.67 4.12,1.07 6.43,2.55 6.43,6.09 v 0.06 c 0,4.03 -3.07,6.29 -7.45,6.29 -3.07,0 -6.18,-1.07 -8.61,-3.25 z"
         id="path21"
         style="fill:#a58255" />
      <path
         class="cls-1"
         d="m 1162.73,232.82 h 4.46 v 20.29 h -4.46 z"
         id="path22"
         style="fill:#a58255" />
      <path
         class="cls-1"
         d="m 1177.17,243.03 v -0.06 c 0,-5.77 4.35,-10.49 10.58,-10.49 3.83,0 6.12,1.28 8,3.13 l -2.84,3.28 c -1.56,-1.42 -3.16,-2.29 -5.19,-2.29 -3.42,0 -5.88,2.84 -5.88,6.32 v 0.06 c 0,3.48 2.41,6.38 5.88,6.38 2.32,0 3.74,-0.93 5.33,-2.38 l 2.84,2.87 c -2.09,2.23 -4.41,3.62 -8.32,3.62 -5.97,0 -10.41,-4.61 -10.41,-10.43 z"
         id="path23"
         style="fill:#a58255" />
      <path
         class="cls-1"
         d="m 1212.22,232.68 h 4.12 l 8.7,20.44 h -4.67 l -1.86,-4.55 h -8.58 l -1.86,4.55 h -4.55 z m 4.7,11.94 -2.7,-6.58 -2.7,6.58 h 5.39 z"
         id="path24"
         style="fill:#a58255" />
      <path
         class="cls-1"
         d="m 1233.97,232.82 h 4.46 v 16.23 h 10.12 v 4.06 h -14.58 z"
         id="path25"
         style="fill:#a58255" />
      <path
         class="cls-1"
         d="m 1272.21,232.82 h 15.31 v 3.97 h -10.87 v 4.12 h 9.57 v 3.97 h -9.57 v 4.26 h 11.02 v 3.97 h -15.45 v -20.29 z"
         id="path26"
         style="fill:#a58255" />
      <path
         class="cls-1"
         d="m 1315.03,232.82 -6.78,9.92 7.07,10.38 h -5.22 l -4.55,-6.96 -4.58,6.96 h -5.07 l 7.07,-10.32 -6.78,-9.97 h 5.22 l 4.23,6.58 4.32,-6.58 h 5.07 z"
         id="path27"
         style="fill:#a58255" />
      <path
         class="cls-1"
         d="m 1324.45,232.82 h 8.29 c 4.84,0 7.77,2.87 7.77,7.02 v 0.06 c 0,4.7 -3.65,7.13 -8.2,7.13 h -3.39 v 6.09 h -4.46 v -20.29 z m 8,10.24 c 2.23,0 3.54,-1.34 3.54,-3.07 v -0.06 c 0,-2 -1.39,-3.07 -3.62,-3.07 h -3.45 v 6.21 h 3.54 z"
         id="path28"
         style="fill:#a58255" />
      <path
         class="cls-1"
         d="m 1349.62,232.82 h 15.31 v 3.97 h -10.87 v 4.12 h 9.57 v 3.97 h -9.57 v 4.26 h 11.02 v 3.97 h -15.45 v -20.29 z"
         id="path29"
         style="fill:#a58255" />
      <path
         class="cls-1"
         d="m 1374.84,232.82 h 9.28 c 2.58,0 4.58,0.72 5.91,2.06 1.13,1.13 1.74,2.72 1.74,4.64 v 0.06 c 0,3.28 -1.77,5.33 -4.35,6.29 l 4.96,7.25 h -5.22 l -4.35,-6.49 h -3.51 v 6.49 h -4.46 v -20.29 z m 8.99,9.86 c 2.17,0 3.42,-1.16 3.42,-2.87 v -0.06 c 0,-1.91 -1.33,-2.9 -3.51,-2.9 h -4.43 v 5.83 z"
         id="path30"
         style="fill:#a58255" />
      <path
         class="cls-1"
         d="m 1406.33,236.94 h -6.18 v -4.12 h 16.81 v 4.12 h -6.17 v 16.18 h -4.46 z"
         id="path31"
         style="fill:#a58255" />
      <path
         class="cls-1"
         d="m 1426.39,232.82 h 4.46 v 20.29 h -4.46 z"
         id="path32"
         style="fill:#a58255" />
      <path
         class="cls-1"
         d="m 1440.33,250.16 2.64,-3.16 c 1.83,1.51 3.74,2.46 6.06,2.46 1.83,0 2.93,-0.72 2.93,-1.91 v -0.06 c 0,-1.13 -0.7,-1.71 -4.09,-2.58 -4.09,-1.04 -6.73,-2.17 -6.73,-6.2 v -0.06 c 0,-3.68 2.96,-6.12 7.1,-6.12 2.96,0 5.48,0.93 7.54,2.58 l -2.32,3.36 c -1.8,-1.25 -3.57,-2 -5.28,-2 -1.71,0 -2.61,0.78 -2.61,1.77 v 0.06 c 0,1.34 0.87,1.77 4.38,2.67 4.12,1.07 6.43,2.55 6.43,6.09 v 0.06 c 0,4.03 -3.07,6.29 -7.45,6.29 -3.07,0 -6.18,-1.07 -8.61,-3.25 z"
         id="path33"
         style="fill:#a58255" />
      <path
         class="cls-1"
         d="m 1466.08,232.82 h 15.31 v 3.97 h -10.87 v 4.12 h 9.57 v 3.97 h -9.57 v 4.26 h 11.02 v 3.97 h -15.45 v -20.29 z"
         id="path34"
         style="fill:#a58255" />
    </g>
    <g
       id="g41">
      <path
         class="cls-1"
         d="m 1079.24,282.98 h 15.31 v 3.97 h -10.87 v 4.12 h 9.57 v 3.97 h -9.57 v 4.26 h 11.02 v 3.97 h -15.45 v -20.29 z"
         id="path35"
         style="fill:#a58255" />
      <path
         class="cls-1"
         d="m 1103.07,300.32 2.64,-3.16 c 1.83,1.51 3.74,2.46 6.06,2.46 1.83,0 2.93,-0.72 2.93,-1.91 v -0.06 c 0,-1.13 -0.7,-1.71 -4.09,-2.58 -4.09,-1.04 -6.73,-2.17 -6.73,-6.2 v -0.06 c 0,-3.68 2.96,-6.12 7.1,-6.12 2.96,0 5.48,0.93 7.54,2.58 l -2.32,3.36 c -1.8,-1.25 -3.57,-2 -5.28,-2 -1.71,0 -2.61,0.78 -2.61,1.77 v 0.06 c 0,1.33 0.87,1.77 4.38,2.67 4.12,1.07 6.43,2.55 6.43,6.09 v 0.06 c 0,4.03 -3.07,6.29 -7.45,6.29 -3.07,0 -6.18,-1.07 -8.61,-3.25 z"
         id="path36"
         style="fill:#a58255" />
      <path
         class="cls-1"
         d="m 1133.1,287.1 h -6.18 v -4.12 h 16.81 v 4.12 h -6.17 v 16.18 h -4.46 z"
         id="path37"
         style="fill:#a58255" />
      <path
         class="cls-1"
         d="m 1170.19,287.36 -3.54,0.87 -0.93,-3.65 5.83,-1.74 h 3.04 v 20.44 h -4.41 v -15.92 z"
         id="path38"
         style="fill:#a58255" />
      <path
         class="cls-1"
         d="m 1196.04,294.96 c -1.04,0.87 -2.38,1.39 -4.12,1.39 -4.41,0 -7.25,-2.43 -7.25,-6.55 v -0.06 c 0,-4.09 3.16,-7.1 7.74,-7.1 2.73,0 4.32,0.67 5.86,2.2 1.45,1.45 2.41,3.65 2.41,7.65 v 0.06 c 0,6.58 -3.1,11.07 -8.87,11.07 -2.96,0 -4.96,-0.99 -6.67,-2.41 l 2.35,-3.39 c 1.48,1.19 2.73,1.74 4.44,1.74 3.07,0 3.94,-2.87 4.12,-4.61 z m 0.09,-5.34 v -0.06 c 0,-1.8 -1.33,-3.1 -3.56,-3.1 -2.23,0 -3.45,1.28 -3.45,3.07 v 0.06 c 0,1.8 1.33,3.04 3.54,3.04 2.21,0 3.48,-1.28 3.48,-3.01 z"
         id="path39"
         style="fill:#a58255" />
      <path
         class="cls-1"
         d="m 1209.35,297.71 v -0.06 c 0,-2.46 1.13,-3.91 3.28,-4.9 -1.57,-0.96 -2.58,-2.26 -2.58,-4.44 v -0.06 c 0,-3.1 2.84,-5.57 7.13,-5.57 4.29,0 7.13,2.43 7.13,5.57 v 0.06 c 0,2.17 -1.01,3.48 -2.58,4.44 2.06,1.07 3.28,2.38 3.28,4.78 v 0.06 c 0,3.77 -3.33,5.97 -7.83,5.97 -4.5,0 -7.83,-2.32 -7.83,-5.86 z m 11.34,-0.35 v -0.06 c 0,-1.57 -1.48,-2.49 -3.51,-2.49 -2.03,0 -3.51,0.93 -3.51,2.49 v 0.06 c 0,1.39 1.3,2.52 3.51,2.52 2.21,0 3.51,-1.1 3.51,-2.52 z m -0.61,-8.55 v -0.06 c 0,-1.25 -1.07,-2.38 -2.9,-2.38 -1.83,0 -2.9,1.1 -2.9,2.35 v 0.06 c 0,1.42 1.13,2.49 2.9,2.49 1.77,0 2.9,-1.04 2.9,-2.46 z"
         id="path40"
         style="fill:#a58255" />
      <path
         class="cls-1"
         d="m 1233.36,300.58 2.7,-3.22 c 1.54,1.39 3.04,2.2 4.84,2.2 2.09,0 3.39,-1.01 3.39,-2.81 v -0.06 c 0,-1.74 -1.48,-2.75 -3.59,-2.75 -1.28,0 -2.43,0.35 -3.39,0.75 l -2.58,-1.71 0.58,-10 h 12.47 v 3.91 h -8.64 l -0.23,3.51 c 0.81,-0.2 1.54,-0.35 2.67,-0.35 3.94,0 7.1,1.91 7.1,6.49 v 0.06 c 0,4.29 -3.04,7.01 -7.71,7.01 -3.25,0 -5.62,-1.16 -7.6,-3.04 z"
         id="path41"
         style="fill:#a58255" />
    </g>
  </g>
</svg>
