<svg id="envelope-Regular" xmlns="http://www.w3.org/2000/svg" width="24" height="24" viewBox="0 0 24 24">
    <rect id="Path" width="24" height="24" fill="#29aae1" opacity="0"/>
    <path id="envelope-Regular_1_" d="M556,1302.25H546a4.756,4.756,0,0,0-4.75,4.75v6a4.756,4.756,0,0,0,4.75,4.75h10a4.756,4.756,0,0,0,4.75-4.75v-6A4.756,4.756,0,0,0,556,1302.25Zm-10,1.5h10a3.255,3.255,0,0,1,3,2.013l-6.2,4.134a3.245,3.245,0,0,1-3.6,0l-6.2-4.134A3.251,3.251,0,0,1,546,1303.75Zm10,12.5H546a3.254,3.254,0,0,1-3.25-3.25v-5.6l5.615,3.744a4.739,4.739,0,0,0,5.27,0l5.615-3.744v5.6A3.254,3.254,0,0,1,556,1316.25Z" transform="translate(-539 -1298)" fill="#29aae1"/>
</svg>
