<svg id="phone-Regular" xmlns="http://www.w3.org/2000/svg" width="24" height="24" viewBox="0 0 24 24">
    <rect id="Path" width="24" height="24" fill="#29aae1" opacity="0"/>
    <path id="phone-Regular_1_" d="M752.686,1386.6h0a3.612,3.612,0,0,0-.08-.358,1.72,1.72,0,0,0-1.386-1.211l-4.332-.721a1.746,1.746,0,0,0-1.669.642c-.054.069-.106.139-.154.21a.3.3,0,0,1-.365.134,9.6,9.6,0,0,1-5-5,.293.293,0,0,1,.129-.36c.095-.064.187-.133.276-.2a1.767,1.767,0,0,0,.631-1.645l-.671-4.255a1.737,1.737,0,0,0-1.168-1.389,3.676,3.676,0,0,0-.508-.127,4.287,4.287,0,0,0-3.556.986,4.525,4.525,0,0,0-1.583,3.57,15.291,15.291,0,0,0,14.873,14.874l.123,0a4.521,4.521,0,0,0,3.431-1.576A4.319,4.319,0,0,0,752.686,1386.6Zm-2.143,2.593a3.087,3.087,0,0,1-2.378,1.056,13.794,13.794,0,0,1-13.414-13.416,3.036,3.036,0,0,1,1.062-2.392,2.77,2.77,0,0,1,1.818-.692,2.89,2.89,0,0,1,.5.044,2.139,2.139,0,0,1,.3.075.244.244,0,0,1,.159.2l.671,4.255a.261.261,0,0,1-.092.244c-.058.047-.117.091-.178.132a1.78,1.78,0,0,0-.661,2.2,11.1,11.1,0,0,0,5.774,5.775,1.788,1.788,0,0,0,2.2-.664c.03-.043.061-.086.095-.13a.259.259,0,0,1,.243-.088l4.332.721a.232.232,0,0,1,.188.137,2.016,2.016,0,0,1,.047.21A2.829,2.829,0,0,1,750.543,1389.194Z" transform="translate(-731 -1370)" fill="#29aae1"/>
</svg>
