<?xml version="1.0" standalone="no"?>
<!DOCTYPE svg PUBLIC "-//W3C//DTD SVG 1.1//EN" "http://www.w3.org/Graphics/SVG/1.1/DTD/svg11.dtd" >
<svg xmlns="http://www.w3.org/2000/svg" xmlns:xlink="http://www.w3.org/1999/xlink" version="1.1">
<metadata>
Created by FontForge 20170731 at Fri Sep 11 12:35:28 2020
 By Aleksey,,,
Copyright (C) 2002, 2007 Hoefler &#38; Frere-Jones. http://www.typography.com
</metadata>
<defs>
<font id="ChronicleDisplay-Light" horiz-adv-x="1570" >
  <font-face 
    font-family="Chronicle Display Light"
    font-weight="300"
    font-stretch="normal"
    units-per-em="2048"
    panose-1="0 0 0 0 0 0 0 0 0 0"
    ascent="1638"
    descent="-410"
    x-height="934"
    cap-height="1427"
    bbox="-133 -537 2212 2277"
    underline-thickness="102"
    underline-position="-307"
    unicode-range="U+0020-FB04"
  />
<missing-glyph horiz-adv-x="1024" 
d="M0 -410v2048h1024v-2048h-1024zM145 1536l367 -799l367 799h-734zM102 -156l353 770l-353 770v-1540zM922 1384l-353 -770l353 -770v1540zM512 492l-367 -799h734z" />
    <glyph glyph-name="f_f" unicode="ff" horiz-adv-x="1167" 
d="M588 1479q194 0 266 -111l14 16q97 97 219 97q105 0 167.5 -43.5t62.5 -104.5q0 -46 -28 -74t-68 -28q-42 0 -71.5 26.5t-29.5 73.5q0 58 39 92q-34 31 -90 31q-59 0 -98 -39q-64 -64 -64 -270v-213h273v-41h-273v-791q0 -51 40.5 -66.5t158.5 -15.5v-18h-494v18
q80 2 110 17t30 65v791h-390v-791q0 -51 32 -66.5t124 -15.5v-18h-469v18q94 2 126 17t32 65v791h-178v18l178 29v96q0 223 117 340q105 105 264 105zM752 1020q0 90 12 158q-76 15 -76 98q0 30 14.5 56t36.5 40q-41 80 -155 80q-96 0 -154 -61q-68 -71 -68 -250v-209h390
v88z" />
    <glyph glyph-name="fi" unicode="fi" horiz-adv-x="1103" 
d="M49 0v18q94 2 126 17t32 65v791h-178v18l178 29v98q0 223 117 340q105 105 272 105q83 0 149 -21.5t103.5 -55.5t56.5 -70.5t19 -71.5q0 -51 -27 -81t-70 -30q-42 0 -72 25t-30 79q0 30 16.5 58.5t42.5 38.5q-17 42 -67.5 72t-124.5 30q-99 0 -158 -59q-36 -35 -54 -95.5
t-18 -173.5v-194h316l240 10v-842q0 -51 30.5 -65.5t124.5 -16.5v-18h-452v18q82 2 111.5 17t29.5 65v791h-400v-791q0 -51 32 -66.5t126 -15.5v-18h-471z" />
    <glyph glyph-name="fl" unicode="fl" horiz-adv-x="1103" 
d="M762 891h-400v-791q0 -51 32 -66.5t126 -15.5v-18h-471v18q94 2 126 17t32 65v791h-178v18l178 29v96q0 225 117 342q105 105 262 105q93 0 159 -29l173 23v-1375q0 -51 30.5 -65.5t124.5 -16.5v-18h-452v18q82 2 111.5 17t29.5 65v791zM762 1184q-40 3 -64 28.5
t-24 69.5q0 29 15.5 56.5t37.5 39.5q-15 32 -52.5 54t-94.5 22q-88 0 -148 -57q-70 -73 -70 -254v-211h400v252z" />
    <glyph glyph-name="f_f_i" unicode="ffi" horiz-adv-x="1648" 
d="M588 1479q200 0 268 -115l12 12q105 105 273 105q83 0 148.5 -21.5t103 -55.5t56.5 -70.5t19 -71.5q0 -51 -27 -81t-71 -30q-41 0 -70.5 25t-29.5 77q0 31 16.5 60t42.5 39q-17 42 -67 72t-125 30q-99 0 -158 -59q-36 -35 -54 -95.5t-18 -173.5v-194h316l239 10v-842
q0 -51 31 -65.5t125 -16.5v-18h-453v18q82 2 112 17t30 65v791h-400v-791q0 -51 32 -66.5t126 -15.5v-18h-453v18q80 2 110 17t30 65v791h-390v-791q0 -51 32 -66.5t124 -15.5v-18h-469v18q94 2 126 17t32 65v791h-178v18l178 29v96q0 223 117 340q105 105 264 105zM752 932
v104q0 78 12 140q-80 13 -80 100q0 29 16 56.5t39 39.5q-41 80 -155 80q-96 0 -154 -61q-68 -71 -68 -250v-209h390z" />
    <glyph glyph-name="f_f_l" unicode="ffl" horiz-adv-x="1648" 
d="M612 0v18q80 2 110 17t30 65v791h-390v-791q0 -51 32 -66.5t124 -15.5v-18h-469v18q94 2 126 17t32 65v791h-178v18l178 29v96q0 223 117 340q105 105 264 105q200 0 268 -115l12 12q105 105 262 105q94 0 160 -29l172 23v-1375q0 -51 31 -65.5t125 -16.5v-18h-453v18
q82 2 112 17t30 65v791h-400v-791q0 -51 32 -66.5t126 -15.5v-18h-453zM752 1034q0 85 14 142q-35 6 -56.5 31.5t-21.5 68.5q0 30 14.5 56t36.5 40q-41 80 -155 80q-96 0 -154 -61q-68 -71 -68 -250v-209h390v102zM1307 932v252q-40 3 -64 28.5t-24 69.5q0 29 15.5 56.5
t37.5 39.5q-15 32 -53 54t-95 22q-87 0 -147 -57q-70 -73 -70 -254v-211h400z" />
    <glyph glyph-name="f_b" unicode="fb" horiz-adv-x="1685" 
d="M762 1184q-40 3 -64 28.5t-24 69.5q0 29 15.5 56.5t37.5 39.5q-15 32 -52.5 54t-94.5 22q-88 0 -148 -57q-70 -73 -70 -254v-211h400v252zM1167 12q131 0 201 125.5t70 339.5q0 177 -78 291.5t-209 114.5q-125 0 -233 -121v-580q31 -83 98 -126.5t151 -43.5zM561 0h-512
v18q94 2 126 17t32 65v791h-178v18l178 29v96q0 225 117 342q105 105 262 105q93 0 159 -29l173 23v-680q142 155 311 155q170 0 275.5 -130t105.5 -331q0 -142 -56 -257.5t-155 -181.5t-221 -66q-167 0 -316 96l-92 -109h-16l8 183v737h-400v-791q0 -51 40.5 -66.5
t158.5 -15.5v-18z" />
    <glyph glyph-name="f_h" unicode="fh" horiz-adv-x="1679" 
d="M762 1184q-40 3 -64 28.5t-24 69.5q0 29 15.5 56.5t37.5 39.5q-15 32 -52.5 54t-94.5 22q-88 0 -148 -57q-70 -73 -70 -254v-211h400v252zM1065 0h-447v18q84 2 114 17t30 65v791h-400v-791q0 -51 32 -66.5t126 -15.5v-18h-471v18q94 2 126 17t32 65v791h-178v18l178 29
v96q0 225 117 342q105 105 262 105q93 0 159 -29l173 23v-768q69 113 158.5 178t191.5 65q119 0 183.5 -72t64.5 -208v-570q0 -51 30.5 -65.5t120.5 -16.5v-18h-444v18q83 2 110 16.5t27 65.5v523q0 122 -42 183.5t-138 61.5q-75 0 -145 -57.5t-117 -151.5v-559
q0 -51 29 -65.5t118 -16.5v-18z" />
    <glyph glyph-name="f_j" unicode="fj" horiz-adv-x="1083" 
d="M561 0h-512v18q94 2 126 17t32 65v791h-178v18l178 29v98q0 223 117 340q105 105 272 105q83 0 149 -21.5t103.5 -55.5t56.5 -70.5t19 -71.5q0 -51 -27 -81t-70 -30q-42 0 -72 25t-30 79q0 30 16.5 58.5t42.5 38.5q-17 42 -67.5 72t-124.5 30q-99 0 -158 -59
q-36 -35 -54 -95.5t-18 -173.5v-194h316l240 10v-934q0 -142 -15.5 -214.5t-68.5 -125.5q-74 -74 -193 -74q-86 0 -145.5 37.5t-59.5 98.5q0 42 27.5 71t68.5 29q42 0 66.5 -26.5t24.5 -67.5q0 -27 -14 -50t-34 -34q10 -13 31.5 -22t46.5 -9q59 0 84 40.5t25 127.5v1102
h-400v-791q0 -51 40.5 -66.5t158.5 -15.5v-18z" />
    <glyph glyph-name="f_k" unicode="fk" horiz-adv-x="1609" 
d="M762 1184q-40 3 -64 28.5t-24 69.5q0 29 15.5 56.5t37.5 39.5q-15 32 -52.5 54t-94.5 22q-88 0 -148 -57q-70 -73 -70 -254v-211h400v252zM1073 0h-452v18q82 2 111.5 17t29.5 65v791h-400v-791q0 -51 32 -66.5t126 -15.5v-18h-471v18q94 2 126 17t32 65v791h-178v18
l178 29v96q0 225 117 342q105 105 262 105q93 0 159 -29l173 23v-1051l323 326q75 73 60.5 115.5t-127.5 52.5v16h405v-16q-82 -9 -140 -44t-165 -141l-146 -141l312 -422q70 -95 103 -120t104 -32v-18h-441v18q89 7 104 36t-28 83l-254 357l-110 -109v-285
q0 -51 30.5 -65.5t124.5 -16.5v-18z" />
    <glyph glyph-name="f_f_b" unicode="ffb" horiz-adv-x="2230" 
d="M1106 0h-494v18q80 2 110 17t30 65v791h-390v-791q0 -51 32 -66.5t124 -15.5v-18h-469v18q94 2 126 17t32 65v791h-178v18l178 29v96q0 223 117 340q105 105 264 105q200 0 268 -115l12 12q105 105 262 105q94 0 160 -29l172 23v-680q142 155 312 155t275 -129.5
t105 -331.5q0 -142 -56 -257.5t-155 -181.5t-221 -66q-166 0 -315 96l-92 -109h-17l9 183v737h-400v-791q0 -51 40.5 -66.5t158.5 -15.5v-18zM1712 12q131 0 200.5 125.5t69.5 339.5q0 177 -77.5 291.5t-208.5 114.5q-126 0 -234 -121v-580q31 -82 98.5 -126t151.5 -44z
M752 1034q0 85 14 142q-35 6 -56.5 31.5t-21.5 68.5q0 30 14.5 56t36.5 40q-41 80 -155 80q-96 0 -154 -61q-68 -71 -68 -250v-209h390v102zM1307 932v252q-40 3 -64 28.5t-24 69.5q0 29 15.5 56.5t37.5 39.5q-15 32 -53 54t-95 22q-87 0 -147 -57q-70 -73 -70 -254v-211
h400z" />
    <glyph glyph-name="f_f_h" unicode="ffh" horiz-adv-x="2224" 
d="M612 0v18q80 2 110 17t30 65v791h-390v-791q0 -51 32 -66.5t124 -15.5v-18h-469v18q94 2 126 17t32 65v791h-178v18l178 29v96q0 223 117 340q105 105 264 105q200 0 268 -115l12 12q105 105 262 105q94 0 160 -29l172 23v-768q69 113 158.5 178t191.5 65
q119 0 183.5 -72t64.5 -208v-570q0 -50 30.5 -65t121.5 -17v-18h-445v18q83 2 110.5 16.5t27.5 65.5v523q0 122 -42.5 183.5t-138.5 61.5q-75 0 -145 -57.5t-117 -151.5v-559q0 -51 31 -65.5t125 -16.5v-18h-453v18q82 2 112 17t30 65v791h-400v-791q0 -51 32 -66.5
t126 -15.5v-18h-453zM752 1034q0 85 14 142q-35 6 -56.5 31.5t-21.5 68.5q0 30 14.5 56t36.5 40q-41 80 -155 80q-96 0 -154 -61q-68 -71 -68 -250v-209h390v102zM1307 932v252q-40 3 -64 28.5t-24 69.5q0 29 15.5 56.5t37.5 39.5q-15 32 -53 54t-95 22q-87 0 -147 -57
q-70 -73 -70 -254v-211h400z" />
    <glyph glyph-name="f_f_j" unicode="ffj" horiz-adv-x="1628" 
d="M1106 0h-494v18q80 2 110 17t30 65v791h-390v-791q0 -51 32 -66.5t124 -15.5v-18h-469v18q94 2 126 17t32 65v791h-178v18l178 29v96q0 223 117 340q105 105 264 105q200 0 268 -115l12 12q105 105 273 105q83 0 148.5 -21.5t103 -55.5t56.5 -70.5t19 -71.5
q0 -51 -27 -81t-71 -30q-41 0 -70.5 25t-29.5 77q0 31 16.5 60t42.5 39q-17 42 -67 72t-125 30q-99 0 -158 -59q-36 -35 -54 -95.5t-18 -173.5v-194h316l239 10v-934q0 -142 -15.5 -214.5t-68.5 -125.5q-74 -74 -192 -74q-86 0 -145.5 37.5t-59.5 98.5q0 42 27.5 71t68.5 29
q42 0 66 -26.5t24 -67.5q0 -27 -13.5 -50t-33.5 -34q10 -13 31.5 -22t46.5 -9q59 0 84 40.5t25 127.5v1102h-400v-791q0 -51 40.5 -66.5t158.5 -15.5v-18zM752 1036q0 78 12 140q-80 13 -80 100q0 29 16 56.5t39 39.5q-41 80 -155 80q-96 0 -154 -61q-68 -71 -68 -250v-209
h390v104z" />
    <glyph glyph-name="f_f_k" unicode="ffk" horiz-adv-x="2154" 
d="M612 0v18q80 2 110 17t30 65v791h-390v-791q0 -51 32 -66.5t124 -15.5v-18h-469v18q94 2 126 17t32 65v791h-178v18l178 29v96q0 223 117 340q105 105 264 105q200 0 268 -115l12 12q105 105 262 105q94 0 160 -29l172 23v-1051l324 326q74 73 59.5 115.5t-127.5 52.5v16
h406v-16q-82 -9 -140 -44t-165 -141l-146 -141l312 -422q70 -96 102.5 -120.5t103.5 -31.5v-18h-440v18q89 7 104 36t-28 83l-254 357l-111 -109v-285q0 -51 31 -65.5t125 -16.5v-18h-453v18q82 2 112 17t30 65v791h-400v-791q0 -51 32 -66.5t126 -15.5v-18h-453zM752 1034
q0 85 14 142q-35 6 -56.5 31.5t-21.5 68.5q0 30 14.5 56t36.5 40q-41 80 -155 80q-96 0 -154 -61q-68 -71 -68 -250v-209h390v102zM1307 932v252q-40 3 -64 28.5t-24 69.5q0 29 15.5 56.5t37.5 39.5q-15 32 -53 54t-95 22q-87 0 -147 -57q-70 -73 -70 -254v-211h400z" />
    <glyph glyph-name=".notdef" horiz-adv-x="1024" 
d="M0 -410v2048h1024v-2048h-1024zM145 1536l367 -799l367 799h-734zM102 -156l353 770l-353 770v-1540zM922 1384l-353 -770l353 -770v1540zM512 492l-367 -799h734z" />
    <glyph glyph-name=".null" horiz-adv-x="0" 
 />
    <glyph glyph-name="nonmarkingreturn" horiz-adv-x="682" 
 />
    <glyph glyph-name="space" unicode=" " horiz-adv-x="393" 
 />
    <glyph glyph-name="exclam" unicode="!" horiz-adv-x="555" 
d="M262 381q-12 239 -49 558.5t-37 399.5q0 146 103 146q100 0 100 -146q0 -82 -37.5 -402t-50.5 -556h-29zM279 -33q-47 0 -80 32.5t-33 78.5t33 78t80 32q46 0 78 -32t32 -76q0 -47 -32 -80t-78 -33z" />
    <glyph glyph-name="quotedbl" unicode="&#x22;" horiz-adv-x="819" 
d="M487 905l-18 8l47 199q57 243 66 262q29 60 82 60q38 0 63 -27t25 -64q0 -19 -11 -45q-22 -54 -139 -225zM154 905l-19 8l47 199q57 243 66 262q29 60 82 60q38 0 63 -27t25 -64q0 -22 -10 -45q-21 -50 -140 -225z" />
    <glyph glyph-name="numbersign" unicode="#" horiz-adv-x="1439" 
d="M653 1440l-92 -461h438q77 394 93 461h43l-93 -461h328v-35h-334l-104 -520h350v-35h-356l-95 -475h-43l93 475h-437l-94 -475h-43l92 475h-321v35h330l102 520h-342v35h350q83 422 92 461h43zM889 424l102 520h-436l-104 -520h438z" />
    <glyph glyph-name="dollar" unicode="$" horiz-adv-x="1157" 
d="M575 -131v170q-185 3 -311.5 82t-126.5 188q0 47 29.5 82t83.5 35q46 0 75 -32t29 -75q0 -75 -82 -112q32 -53 117.5 -93t185.5 -44v538l-16 6q-53 17 -81.5 26.5t-75.5 28.5t-73.5 35t-60 42.5t-50.5 55t-29.5 67.5t-12.5 85q0 104 58.5 186t148 125t192.5 48v147h41
v-147q164 -4 277 -80t113 -172q0 -46 -26.5 -77.5t-70.5 -31.5q-51 0 -77.5 29t-26.5 72q0 69 69 106q-30 48 -99 84.5t-159 40.5v-516l41 -12h1l1 -1h1h1l2 -1q157 -48 222 -86q143 -85 143 -248q0 -68 -25.5 -132.5t-74 -119.5t-129.5 -90t-183 -39v-170h-41zM899 324
q0 56 -18.5 98t-58.5 73t-86.5 52.5t-119.5 46.5v-524q141 4 212 74t71 180zM319 1032q0 -98 62.5 -151.5t193.5 -98.5v500q-119 -6 -187.5 -69.5t-68.5 -180.5z" />
    <glyph glyph-name="percent" unicode="%" horiz-adv-x="1658" 
d="M1186 8q69 0 133 49.5t106 124t67.5 159t25.5 155.5q0 97 -37.5 151.5t-112.5 54.5q-68 0 -130 -50t-103.5 -127t-66 -166.5t-24.5 -170.5q0 -90 37 -135t105 -45zM1176 -29q-132 0 -203.5 82t-71.5 211q0 118 59.5 233.5t161.5 190t215 74.5q98 0 158.5 -70.5
t60.5 -193.5q0 -53 -15.5 -120t-48 -139t-76 -131.5t-107 -98t-133.5 -38.5zM725 1114q0 30 -8 84q-101 34 -178 117q-81 -16 -148.5 -101t-103 -195t-35.5 -212q0 -90 36.5 -135t104.5 -45q91 0 170 83.5t120.5 195t41.5 208.5zM545 1380q66 0 116 -33t76 -94
q74 -39 178 -39q209 0 392 197h39l-975 -1464h-80l934 1343l-6 4q-66 -56 -152 -89.5t-178 -33.5q-69 0 -131 15q6 -30 6 -70q0 -53 -15.5 -120t-48 -138.5t-76.5 -131t-107.5 -98t-133.5 -38.5q-132 0 -203 82t-71 211q0 118 59.5 233t161.5 189.5t215 74.5z" />
    <glyph glyph-name="ampersand" unicode="&#x26;" horiz-adv-x="1540" 
d="M670 784q108 72 146 145t38 183q0 108 -46.5 166.5t-137.5 58.5q-95 0 -148 -59.5t-53 -153.5q0 -79 52.5 -159.5t148.5 -180.5zM537 702q-121 -60 -179.5 -143.5t-58.5 -218.5q0 -128 81.5 -209.5t215.5 -81.5q100 0 173.5 47t150.5 144q-64 113 -168 238t-215 224z
M1014 379q82 167 161 253.5t164 86.5q64 0 97.5 -33t33.5 -88q0 -46 -28 -77.5t-74 -31.5q-42 0 -70 27t-28 66q0 45 26 71l-4 6q-67 -21 -129 -95.5t-131 -207.5q83 -151 151 -218.5t142 -67.5q68 0 148 65l12 -16q-79 -79 -141.5 -116.5t-120.5 -37.5q-91 0 -154 59
t-137 189q-80 -114 -185.5 -181t-228.5 -67q-190 0 -292.5 101.5t-102.5 248.5q0 271 395 404q-7 8 -37.5 42t-38.5 44t-30.5 38.5t-30 44.5t-19.5 43t-16 52.5t-4 54.5q0 139 95.5 231.5t246.5 92.5q137 0 225 -71.5t88 -184.5q0 -97 -70.5 -173t-238.5 -167
q219 -189 326 -387z" />
    <glyph glyph-name="quotesingle" unicode="'" horiz-adv-x="485" 
d="M154 905l-19 8l47 199q57 243 66 262q29 60 82 60q38 0 63 -27t25 -64q0 -22 -10 -45q-21 -50 -140 -225z" />
    <glyph glyph-name="parenleft" unicode="(" horiz-adv-x="784" 
d="M827 -340q-96 41 -186 99t-179 145t-155 188.5t-106.5 236.5t-40.5 283t40.5 283.5t106.5 237.5t155 188.5t179 144.5t186 99l9 -17q-94 -51 -166 -106t-138.5 -135t-109.5 -176.5t-68.5 -228t-25.5 -290.5q0 -158 25.5 -289t68.5 -227.5t109 -177t139 -136.5t166 -106z
" />
    <glyph glyph-name="parenright" unicode=")" horiz-adv-x="784" 
d="M-45 -340l-8 16q94 50 167 106t139.5 136.5t109.5 177t68.5 227.5t25.5 289q0 159 -25.5 290.5t-68.5 228t-109.5 176.5t-139.5 135.5t-167 105.5l8 17q97 -41 187.5 -99t180 -144.5t155 -188.5t106.5 -237.5t41 -283.5t-41 -283t-106.5 -236.5t-155 -188.5t-180 -145
t-187.5 -99z" />
    <glyph glyph-name="asterisk" unicode="*" horiz-adv-x="866" 
d="M543 803q-55 -17 -78 55q-17 65 -31 264l-12 4q-28 -35 -91.5 -106t-88.5 -88q-60 -41 -95 2q-31 45 29 90q23 17 113 57t127 54v12q-36 13 -126 53t-114 57q-28 20 -36 44.5t7 46.5q36 47 95 2q30 -22 180 -195l12 4q14 209 31 262q22 71 78 56q51 -13 30 -91
q-9 -27 -56 -107.5t-75 -123.5l9 -8q5 1 45 10.5t78 17.5t79 15.5t58 7.5q73 0 73 -57q0 -58 -73 -58q-29 0 -144 25t-116 25l-9 -7q1 -1 24.5 -40t42.5 -71t39 -69t25 -53q21 -74 -30 -90z" />
    <glyph glyph-name="plus" unicode="+" horiz-adv-x="1138" 
d="M111 649v35h440v436h41v-436h436v-35h-436v-444h-41v444h-440z" />
    <glyph glyph-name="comma" unicode="," horiz-adv-x="428" 
d="M51 -285l-12 21q95 49 154 122t67 140l-8 4q-20 -20 -55 -20q-41 0 -70 28t-29 70q0 45 30.5 77.5t76.5 32.5q59 0 94 -38.5t35 -102.5q0 -200 -283 -334z" />
    <glyph glyph-name="hyphen" unicode="-" horiz-adv-x="749" 
d="M113 494v73h524v-73h-524z" />
    <glyph glyph-name="period" unicode="." horiz-adv-x="428" 
d="M215 -33q-47 0 -80 32.5t-33 78.5t33 78t80 32q46 0 78.5 -32t32.5 -76q0 -47 -32.5 -80t-78.5 -33z" />
    <glyph glyph-name="slash" unicode="/" horiz-adv-x="925" 
d="M18 -440l435 985l428 983h47l-436 -987l-426 -981h-48z" />
    <glyph glyph-name="zero" unicode="0" horiz-adv-x="1222" 
d="M610 -29q-145 0 -265 92t-188.5 252.5t-68.5 356.5q0 194 71.5 357.5t192.5 257t262 93.5q108 0 204.5 -54t166 -146.5t110 -223t40.5 -276.5q0 -193 -72 -357t-192.5 -258t-260.5 -94zM618 -2q109 0 178.5 64.5t106.5 215.5t37 398q0 185 -21.5 316t-65 210t-104 115.5
t-143.5 36.5q-110 0 -179.5 -64.5t-105.5 -215t-36 -398.5q0 -245 39 -396.5t110.5 -216.5t183.5 -65z" />
    <glyph glyph-name="one" unicode="1" horiz-adv-x="825" 
d="M66 0v18q166 2 221 28.5t55 109.5v1001q0 42 -5.5 66t-20 43t-47 28t-78.5 13.5t-123 5.5v16l442 37v-1210q0 -83 55 -109.5t223 -28.5v-18h-722z" />
    <glyph glyph-name="two" unicode="2" horiz-adv-x="1095" 
d="M102 0v113l332 293q141 121 217 217.5t105.5 186.5t29.5 208q0 167 -72 251.5t-198 84.5q-93 0 -166 -47t-96 -111q94 -40 94 -131q0 -51 -30.5 -88t-84.5 -37q-55 0 -88.5 38t-33.5 97q0 80 57.5 150.5t154 112.5t205.5 42q204 0 322.5 -104t118.5 -260
q0 -69 -24 -131.5t-84.5 -136.5t-141 -149.5t-215.5 -188.5l-316 -263v-8h529q93 0 140 18t74.5 66.5t49.5 153.5l18 -2l-8 -375h-889z" />
    <glyph glyph-name="three" unicode="3" horiz-adv-x="1110" 
d="M522 -29q-184 0 -310 77.5t-126 184.5q0 56 32.5 94t86.5 38q51 0 78.5 -34t27.5 -81q0 -77 -82 -123q30 -51 108 -90t183 -39q164 0 236.5 86t72.5 262q0 171 -96 251.5t-289 80.5h-55v33h25q207 0 294 81.5t87 258.5q0 153 -70 228t-201 75q-83 0 -156.5 -35.5
t-107.5 -91.5q37 -11 63.5 -43.5t26.5 -73.5q0 -48 -27.5 -83.5t-78.5 -35.5q-52 0 -84.5 35.5t-32.5 87.5q0 106 119.5 186t294.5 80q212 0 324 -89.5t112 -231.5q0 -119 -103.5 -217.5t-310.5 -143.5v-6q213 -12 331 -97t118 -235q0 -171 -130 -280t-360 -109z" />
    <glyph glyph-name="four" unicode="4" horiz-adv-x="1150" 
d="M1124 446h-303v-292q0 -78 45 -106t164 -30v-18h-598v18q122 2 171.5 29.5t49.5 106.5v292h-602v78l680 828h90v-805h303v-101zM647 1194l-528 -647h534v647h-6z" />
    <glyph glyph-name="five" unicode="5" horiz-adv-x="1103" 
d="M526 -29q-113 0 -211.5 34t-158.5 96.5t-60 138.5q0 54 35 92.5t88 38.5q49 0 78 -34t29 -77q0 -44 -27.5 -80t-65.5 -55q24 -46 104 -86.5t171 -40.5q313 0 313 408q0 191 -77 286.5t-220 95.5q-90 0 -161.5 -25t-145.5 -77l-33 16l27 650h756l-17 -148h-706l-21 -477
q67 45 152 71.5t162 26.5q120 0 212.5 -31.5t148.5 -88t84 -129.5t28 -160q0 -84 -36 -164.5t-98 -142.5t-154 -100t-196 -38z" />
    <glyph glyph-name="six" unicode="6" horiz-adv-x="1148" 
d="M598 -29q-142 0 -256 72.5t-177 199t-63 283.5q0 172 57.5 316.5t162.5 249.5q121 119 273 190.5t363 103.5v-16q-628 -158 -673 -739l6 -2q26 79 85.5 137.5t131 86.5t145.5 28q181 0 298.5 -114.5t117.5 -299.5q0 -136 -59 -249t-167.5 -180t-244.5 -67zM608 -2
q144 0 209.5 113.5t65.5 332.5q0 406 -250 406q-64 0 -122.5 -24.5t-109.5 -75t-81.5 -139.5t-30.5 -205q0 -191 93 -299.5t226 -108.5z" />
    <glyph glyph-name="seven" unicode="7" horiz-adv-x="1017" 
d="M207 -20v8l694 1229h-563q-109 0 -154 -52t-73 -213h-17l12 400h881v-19l-356 -794l-246 -559h-178z" />
    <glyph glyph-name="eight" unicode="8" horiz-adv-x="1120" 
d="M98 319q0 111 89 205t239 146q-138 63 -211.5 145.5t-73.5 200.5q0 153 128.5 258.5t299.5 105.5q173 0 299.5 -90t126.5 -221q0 -116 -76.5 -194.5t-232.5 -139.5q173 -68 260.5 -158.5t87.5 -224.5q0 -105 -69.5 -194.5t-174 -138t-212.5 -48.5q-215 0 -347.5 97.5
t-132.5 250.5zM514 635l-55 20q-98 -45 -153.5 -130t-55.5 -197q0 -157 81.5 -243.5t221.5 -86.5q68 0 123.5 15t101 48.5t71 93t25.5 140.5q0 121 -88.5 196.5t-271.5 143.5zM639 754l18 -6q187 96 187 305q0 142 -75 220.5t-200 78.5q-124 0 -200 -67.5t-76 -211.5
q0 -113 86 -184.5t260 -134.5z" />
    <glyph glyph-name="nine" unicode="9" horiz-adv-x="1148" 
d="M193 -35v19q301 71 475.5 261t197.5 484l-6 2q-46 -125 -139.5 -192.5t-202.5 -67.5q-121 0 -219 50t-158.5 150t-60.5 234q0 92 38 178.5t103 152t157.5 105t194.5 39.5q212 0 343 -157t131 -398q0 -171 -57.5 -314.5t-162.5 -248.5q-120 -120 -272 -192.5t-362 -104.5z
M545 504q53 0 107 28t101.5 79.5t77 138t29.5 192.5q0 196 -83.5 304t-213.5 108q-145 0 -221 -116t-76 -325q0 -206 71.5 -307.5t207.5 -101.5z" />
    <glyph glyph-name="colon" unicode=":" horiz-adv-x="438" 
d="M219 592q-46 0 -79.5 32.5t-33.5 77.5q0 46 33.5 78.5t79.5 32.5t79.5 -32t33.5 -76q0 -47 -33.5 -80t-79.5 -33zM219 -33q-46 0 -79.5 32.5t-33.5 78.5q0 45 33.5 77.5t79.5 32.5t79.5 -32t33.5 -76q0 -47 -33.5 -80t-79.5 -33z" />
    <glyph glyph-name="semicolon" unicode=";" horiz-adv-x="438" 
d="M219 592q-46 0 -79.5 32.5t-33.5 77.5q0 46 33.5 78.5t79.5 32.5t79.5 -32t33.5 -76q0 -47 -33.5 -80t-79.5 -33zM55 -285l-10 21q94 50 153.5 122.5t67.5 139.5l-8 4q-20 -20 -55 -20q-42 0 -70.5 28t-28.5 70q0 45 30 77.5t75 32.5q60 0 95.5 -39t35.5 -102
q0 -103 -70 -184.5t-215 -149.5z" />
    <glyph glyph-name="less" unicode="&#x3c;" horiz-adv-x="1136" 
d="M174 647v35l793 442v-47l-746 -413l746 -412v-47z" />
    <glyph glyph-name="equal" unicode="=" horiz-adv-x="1138" 
d="M121 442v37h897v-37h-897zM121 850v35h897v-35h-897z" />
    <glyph glyph-name="greater" unicode="&#x3e;" horiz-adv-x="1136" 
d="M967 649l-795 -444v47l746 414l-746 411v47l795 -440v-35z" />
    <glyph glyph-name="question" unicode="?" horiz-adv-x="927" 
d="M365 381v344q106 21 173.5 53t105.5 82.5t52.5 111t14.5 150.5q0 168 -73.5 252t-207.5 84q-93 0 -164 -42t-102 -105q56 -13 83 -46t27 -77q0 -48 -30 -84.5t-84 -36.5q-53 0 -87 37.5t-34 93.5q0 113 119 200t288 87q202 0 322.5 -105t120.5 -256q0 -162 -125 -268.5
t-358 -153.5v-321h-41zM387 -33q-46 0 -79.5 32.5t-33.5 78.5q0 45 33.5 77.5t79.5 32.5t79.5 -32t33.5 -76q0 -47 -33.5 -80t-79.5 -33z" />
    <glyph glyph-name="at" unicode="@" horiz-adv-x="1861" 
d="M963 -299q-181 0 -335.5 60t-265.5 168t-174 265.5t-63 344.5q0 245 111 442t310.5 308.5t450.5 111.5q151 0 287.5 -52t236 -142t158 -219.5t58.5 -276.5q0 -140 -39 -253.5t-103.5 -183.5t-144 -107.5t-164.5 -37.5q-245 0 -252 188h-6q-119 -170 -260 -170
q-110 0 -170.5 70t-60.5 199q0 93 39.5 193t103 180.5t152 133t178.5 52.5q118 0 164 -125h2l38 111l142 18l-94 -283l-86 -307q-30 -102 7.5 -161.5t129.5 -59.5q71 0 140 38t124 105t89 171.5t34 226.5q0 183 -92 334.5t-254.5 239t-362.5 87.5q-240 0 -431 -111
t-294.5 -298.5t-103.5 -415.5q0 -172 56.5 -321.5t159.5 -258t255.5 -171t335.5 -62.5q159 0 278.5 43t233.5 127l18 -23q-116 -88 -243.5 -133t-292.5 -45zM823 211q121 0 213 168l123 416q-14 71 -51 112t-94 41q-68 0 -132 -57.5t-106 -141.5t-67 -175t-25 -162
q0 -94 35.5 -147.5t103.5 -53.5z" />
    <glyph glyph-name="A" unicode="A" horiz-adv-x="1392" 
d="M1008 201l-129 354h-510l-84 -219q-25 -64 -37.5 -107.5t-15 -79t6.5 -57t33.5 -37.5t59 -24t88.5 -13v-18h-469v18q107 19 163.5 80.5t127.5 241.5l450 1133h29l463 -1233q27 -73 44 -108t46 -62.5t64 -37t98 -14.5v-18h-609v18q153 6 187.5 45.5t-6.5 137.5zM381 588
h487l-231 641h-6z" />
    <glyph glyph-name="B" unicode="B" horiz-adv-x="1355" 
d="M55 0v18q104 3 156 18.5t69 42.5t17 81v1110q0 53 -17 80t-69 42.5t-156 18.5v16h613q270 0 405 -95t135 -242q0 -127 -102 -216.5t-293 -113.5v-6q221 -21 339 -109.5t118 -241.5q0 -80 -33.5 -150t-101.5 -128t-185 -91.5t-270 -33.5h-625zM471 772h217
q173 0 251.5 74.5t78.5 236.5q0 159 -77 236.5t-267 77.5h-203v-625zM471 31h229q203 0 289 86t86 282q0 162 -90 252t-283 90h-231v-710z" />
    <glyph glyph-name="C" unicode="C" horiz-adv-x="1431" 
d="M786 -35q-145 0 -270.5 50.5t-217.5 142.5t-145 231t-53 307q0 161 56.5 303t153.5 243t230.5 159.5t282.5 58.5q195 0 365 -92l86 105h16v-463h-18q-104 241 -206.5 331.5t-258.5 90.5q-81 0 -154 -25t-137.5 -80.5t-111.5 -138t-74 -205t-27 -272.5q0 -138 31.5 -253
t84.5 -193t123.5 -131.5t146.5 -78t155 -24.5q320 0 495 356l23 -12q-36 -81 -85 -150t-118.5 -129.5t-165 -95.5t-207.5 -35z" />
    <glyph glyph-name="D" unicode="D" horiz-adv-x="1536" 
d="M55 0v18q104 3 156 18.5t69 42.5t17 81v1110q0 53 -17 80t-69 42.5t-156 18.5v16h613q184 0 331 -53t242 -146.5t145 -218.5t50 -272q0 -114 -28.5 -220t-89.5 -200.5t-148 -164.5t-212.5 -111t-275.5 -41h-627zM471 31h156q229 0 358.5 64t188.5 213.5t59 416.5
q0 160 -24.5 276t-70 192.5t-119.5 121.5t-162.5 63.5t-209.5 18.5h-176v-1366z" />
    <glyph glyph-name="E" unicode="E" horiz-adv-x="1363" 
d="M55 0v18q104 3 156 18.5t69 42.5t17 81v1110q0 53 -17 80t-69 42.5t-156 18.5v16h1149l6 -419l-18 -2q-44 118 -77.5 187t-77 118t-94.5 67.5t-126 18.5h-346v-639h195q113 0 164.5 56t91.5 224h18v-594h-18q-40 169 -91.5 226t-164.5 57h-195v-696h381q82 0 137.5 19.5
t102.5 72t82.5 125.5t80.5 198l19 -2l-10 -444h-1209z" />
    <glyph glyph-name="F" unicode="F" horiz-adv-x="1284" 
d="M55 0v18q104 3 156 18.5t69 42.5t17 81v1110q0 53 -17 79.5t-69 41.5t-156 18v18h1131l18 -430l-18 -2q-46 121 -82.5 192.5t-82.5 121.5t-99.5 69t-130.5 19h-320v-658h182q113 0 163.5 55.5t90.5 223.5h19v-590h-19q-40 169 -90.5 225t-163.5 56h-182v-549
q0 -54 18.5 -82t71 -42.5t156.5 -17.5v-18h-662z" />
    <glyph glyph-name="G" unicode="G" horiz-adv-x="1527" 
d="M844 -35q-116 0 -224.5 30t-203 92t-165 150t-111 211t-40.5 267q0 162 61 304t161.5 237.5t230 150.5t266.5 55q202 0 381 -84l86 97h14v-451h-18q-103 234 -209 322t-268 88q-79 0 -150 -23t-136.5 -76.5t-112.5 -134t-75 -204t-28 -277.5q0 -153 31.5 -277.5
t83.5 -206.5t122 -137.5t144.5 -79.5t153.5 -24q186 0 305 90v391q0 54 -17 82.5t-70 45.5t-155 20v18h588v-18q-77 -4 -114 -19t-48.5 -42.5t-11.5 -84.5v-377q-102 -63 -230 -99t-241 -36z" />
    <glyph glyph-name="H" unicode="H" horiz-adv-x="1644" 
d="M55 0v18q104 3 156 18.5t69 42.5t17 81v1110q0 54 -17 81t-69 42t-156 18v16h641v-16q-77 -2 -121.5 -9.5t-68 -25.5t-29.5 -40t-6 -64v-514h703v514q0 42 -6 64t-29 40t-67.5 25.5t-121.5 9.5v16h639v-16q-103 -3 -155 -18t-69 -42.5t-17 -80.5v-1110q0 -53 17 -80.5
t69 -43t155 -18.5v-18h-639v18q102 3 150 18t61 41t13 81v567h-703v-567q0 -55 13.5 -81t61.5 -41t150 -18v-18h-641z" />
    <glyph glyph-name="I" unicode="I" horiz-adv-x="794" 
d="M61 0v18q108 3 161.5 18t71 42.5t17.5 81.5v1110q0 53 -17.5 80.5t-71.5 42.5t-161 18v16h672v-16q-107 -3 -161 -18t-71.5 -42.5t-17.5 -80.5v-1110q0 -54 17.5 -81.5t71 -42.5t161.5 -18v-18h-672z" />
    <glyph glyph-name="J" unicode="J" horiz-adv-x="1099" 
d="M434 -35q-159 0 -254.5 71t-95.5 167q0 60 34 98.5t87 38.5q49 0 79.5 -32.5t30.5 -82.5q0 -49 -32.5 -87.5t-92.5 -45.5q35 -41 94 -67.5t124 -26.5q125 0 183 85t58 253v934q0 40 -7 62.5t-32.5 41t-75 27t-133.5 10.5v16h664v-16q-103 -3 -155 -18.5t-69.5 -43.5
t-17.5 -81v-869q0 -202 -96 -318t-293 -116z" />
    <glyph glyph-name="K" unicode="K" horiz-adv-x="1484" 
d="M471 645l512 510q121 120 107.5 179t-177.5 77v16h545v-16q-130 -20 -205 -68t-245 -217l-271 -266l432 -594q113 -154 165 -192.5t169 -55.5v-18h-592v18q127 7 148.5 48.5t-45.5 130.5l-393 546l-150 -147v-438q0 -55 13 -81t58.5 -41t139.5 -18v-18h-627v18
q104 3 156 18.5t69 42.5t17 81v1110q0 54 -17 81t-69 42t-156 18v16h641v-16q-77 -2 -121.5 -9.5t-68 -25.5t-29.5 -40t-6 -64v-627z" />
    <glyph glyph-name="L" unicode="L" horiz-adv-x="1245" 
d="M55 0v18q104 3 156 18.5t69 42.5t17 81v1110q0 53 -17 80t-69 42.5t-156 18.5v16h654v-16q-81 -2 -127.5 -9.5t-71.5 -25.5t-32 -41t-7 -65v-1239h295q109 0 176.5 33.5t122 118t117.5 253.5l18 -2l-20 -434h-1125z" />
    <glyph glyph-name="M" unicode="M" horiz-adv-x="1914" 
d="M53 0v18q105 15 157.5 41t71.5 70t19 127v954q0 89 -54.5 140t-193.5 61v16h439l481 -1183h6l463 1183h418v-16q-104 -3 -156 -18.5t-69 -42.5t-17 -80v-1110q0 -54 17 -81t69 -42.5t156 -18.5v-18h-641v18q102 3 150 18t61.5 41t13.5 81v1153h-8l-523 -1323h-16
l-551 1325h-8v-1057q0 -63 8.5 -100t36.5 -66.5t76.5 -45t132.5 -26.5v-18h-539z" />
    <glyph glyph-name="N" unicode="N" 
d="M1296 -35l-954 1288h-4v-997q0 -63 8.5 -100t36.5 -66.5t76.5 -45t132.5 -26.5v-18h-539v18q105 15 157.5 41t71.5 70t19 127v954q0 90 -55.5 141t-192.5 60v16h385l848 -1148h2v895q0 82 -20.5 126.5t-75.5 70t-164 40.5v16h533v-16q-78 -12 -123 -27.5t-71 -44.5
t-34 -66t-8 -99v-1209h-29z" />
    <glyph glyph-name="O" unicode="O" horiz-adv-x="1552" 
d="M776 -35q-132 0 -254 53.5t-216 148t-150 236.5t-56 308q0 111 26.5 213t73.5 183.5t111.5 148.5t139.5 112t158.5 69.5t168.5 24.5q131 0 253 -53t215.5 -147.5t149.5 -236.5t56 -308q0 -132 -37.5 -251t-103 -209t-151 -156.5t-184.5 -101t-200 -34.5zM782 -6
q83 0 151 21t128 72.5t100.5 132.5t64 205.5t23.5 287.5q0 164 -24.5 289.5t-66.5 206t-104 132t-131 72.5t-153 21q-83 0 -151 -21t-128 -72t-100.5 -132t-64 -206t-23.5 -288t24.5 -288.5t66.5 -206.5t104 -132.5t131 -72.5t153 -21z" />
    <glyph glyph-name="P" unicode="P" horiz-adv-x="1265" 
d="M55 0v18q104 3 156 18.5t69 42.5t17 81v1110q0 53 -17 80t-69 42.5t-156 18.5v16h580q285 0 425 -105.5t140 -279.5q0 -80 -33.5 -150.5t-100.5 -127.5t-181.5 -90t-263.5 -33h-150v-481q0 -55 19 -82.5t73 -42t162 -17.5v-18h-670zM471 672h160q91 0 156.5 17t106.5 46
t65 77t33 101.5t9 126.5q0 83 -15.5 143.5t-54.5 111t-112.5 76.5t-181.5 26h-166v-725z" />
    <glyph glyph-name="Q" unicode="Q" horiz-adv-x="1552" 
d="M782 -6q83 0 151 21t128 72.5t100.5 132.5t64 205.5t23.5 287.5q0 164 -24.5 289.5t-66.5 206t-104 132t-131 72.5t-153 21q-83 0 -151 -21t-128 -72t-100.5 -132t-64 -206t-23.5 -288t24.5 -288.5t66.5 -206.5t104 -132.5t131 -72.5t153 -21zM846 -31
q56 -16 108.5 -55.5t91.5 -84.5t76.5 -88t79 -71t84.5 -28q29 0 46.5 15.5t17.5 37.5q0 17 -13 32t-29 25.5t-29 30.5t-13 45q0 40 26 68t70 28t73 -33.5t29 -83.5q0 -89 -74 -151t-194 -62q-73 0 -139 33t-114.5 80.5t-93 95t-92.5 80.5t-95 33q-128 0 -283 -172l-19 18
q149 175 318 211q-117 18 -221.5 78t-184 153t-126 224.5t-46.5 282.5q0 111 26.5 213t73.5 183.5t111.5 148.5t139.5 112t158.5 69.5t168.5 24.5q131 0 253 -53t215.5 -147.5t149.5 -236.5t56 -308q0 -153 -50.5 -288t-135 -230t-193.5 -155t-227 -75z" />
    <glyph glyph-name="R" unicode="R" horiz-adv-x="1398" 
d="M471 729h195q114 0 188 21.5t114.5 67.5t56 107t15.5 152q0 167 -89.5 243.5t-309.5 76.5h-170v-668zM471 698v-540q0 -54 15 -80.5t64.5 -41.5t151.5 -18v-18h-647v18q104 3 156 18.5t69 42.5t17 81v1110q0 53 -17 80t-69 42.5t-156 18.5v16h596q280 0 434 -93t154 -255
q0 -295 -430 -362v-6q88 -9 151.5 -29t105.5 -48.5t69 -73t41 -94t24 -120.5l12 -88q13 -77 27 -118.5t44 -69.5t73 -36.5t119 -8.5v-17q-102 -18 -211 -18q-67 0 -110 15.5t-69 52.5t-39 83t-22 121l-23 184q-10 80 -27.5 126.5t-55.5 76t-94.5 39.5t-151.5 10h-201z" />
    <glyph glyph-name="S" unicode="S" horiz-adv-x="1173" 
d="M117 -37v504h18q86 -251 196 -358t292 -107q156 0 237.5 86.5t81.5 216.5q0 132 -82.5 204.5t-290.5 137.5q-85 27 -141 48.5t-114.5 55t-91.5 71.5t-54 93t-21 125q0 124 64.5 220.5t169 146t229.5 49.5q168 0 318 -65l67 77h17v-448h-17q-83 221 -177 314t-232 93
q-129 0 -210 -76.5t-81 -207.5q0 -55 14.5 -97t40.5 -73.5t74 -59.5t101.5 -49t136.5 -47q82 -25 138 -47.5t113 -56.5t90.5 -73.5t54.5 -96t21 -127.5q0 -83 -30 -160.5t-86 -142t-148.5 -103.5t-206.5 -39q-181 0 -364 95l-111 -103h-16z" />
    <glyph glyph-name="T" unicode="T" horiz-adv-x="1398" 
d="M356 0v18q107 3 162 17.5t75.5 43t20.5 81.5v1237h-163q-112 0 -189.5 -81t-171.5 -302l-18 2l12 411h1235l12 -411l-18 -2q-94 219 -171.5 301t-189.5 82h-164v-1237q0 -53 20.5 -81.5t76 -43t162.5 -17.5v-18h-691z" />
    <glyph glyph-name="U" unicode="U" 
d="M807 -33q-253 0 -393 116t-140 339v848q0 53 -17 80t-69 42.5t-155 18.5v16h641v-16q-77 -2 -121.5 -9.5t-67.5 -26t-29.5 -40.5t-6.5 -63v-805q0 -121 31 -208.5t90 -137.5t135.5 -73t175.5 -23q175 0 274 96q123 123 123 344v709q0 82 -20.5 126.5t-76 70t-165.5 40.5
v16h532v-16q-77 -12 -122 -27.5t-70.5 -45t-33 -65.5t-7.5 -99v-723q0 -222 -130.5 -353t-377.5 -131z" />
    <glyph glyph-name="V" unicode="V" horiz-adv-x="1423" 
d="M698 -45l-467 1233q-23 59 -37.5 90t-33.5 59t-43 40t-56 20.5t-84 13.5v16h609v-16q-151 -6 -186 -46.5t6 -137.5l374 -1032h6l359 927q25 66 35 108.5t7.5 76.5t-25 53t-61 31.5t-102.5 19.5v16h467v-16q-107 -15 -161.5 -75.5t-128.5 -245.5l-449 -1135h-29z" />
    <glyph glyph-name="W" unicode="W" horiz-adv-x="2066" 
d="M1036 1081l-35 109q-25 77 -43 117t-47.5 64t-60.5 30.5t-92 9.5v16h573v-16q-139 -6 -168 -40.5t8 -141.5l318 -987h6l277 870q23 72 30.5 119t3 81t-30 53.5t-63.5 29.5t-102 16v16h487v-16q-115 -12 -173.5 -78.5t-115.5 -240.5l-366 -1135h-29l-356 1071l-395 -1071
h-29l-389 1233q-41 132 -84.5 170.5t-165.5 50.5v16h586v-16q-92 -4 -132.5 -24t-42.5 -59t17 -99l293 -993h6z" />
    <glyph glyph-name="X" unicode="X" horiz-adv-x="1417" 
d="M756 815l237 342q60 87 67.5 140.5t-34.5 80t-137 33.5v16h512v-16q-88 -12 -136.5 -34.5t-100 -76t-138.5 -176.5l-246 -346l377 -577q47 -73 79.5 -105t77.5 -49t134 -29v-18h-629v18q77 4 120.5 16t56 34.5t4.5 50.5t-35 71l-295 472l-271 -392q-87 -129 -62 -185
t167 -67v-18h-512v18q53 7 85 15t66 24t65.5 48t68.5 77.5t90 120.5l278 393l-346 533q-65 103 -114.5 134t-178.5 48v16h631v-16q-74 -3 -116.5 -15.5t-56 -36t-6.5 -53.5t34 -73z" />
    <glyph glyph-name="Y" unicode="Y" horiz-adv-x="1351" 
d="M745 682l281 483q33 56 47.5 91.5t16.5 64t-18 45t-57 27.5t-100 18v16h474v-16q-114 -13 -174.5 -62.5t-149.5 -197.5l-297 -502v-489q0 -77 51.5 -106.5t196.5 -33.5v-20h-668v18q107 3 160 18t70.5 42.5t17.5 81.5v452l-358 621q-58 98 -105 132t-145 46v16h606v-16
q-82 -3 -126.5 -13.5t-59 -34t-6.5 -54.5t38 -82z" />
    <glyph glyph-name="Z" unicode="Z" horiz-adv-x="1277" 
d="M78 0l-2 16l903 1381h-444q-75 0 -131 -30.5t-117 -113t-137 -235.5l-19 2l41 407h1022l2 -14l-903 -1382h508q60 0 102.5 15.5t87 62.5t87.5 120.5t106 200.5l18 -4l-33 -426h-1091z" />
    <glyph glyph-name="bracketleft" unicode="[" horiz-adv-x="735" 
d="M209 -338v1903h573v-33h-430v-1837h430v-33h-573z" />
    <glyph glyph-name="backslash" unicode="\" horiz-adv-x="925" 
d="M860 -440l-426 981l-436 987h47l428 -983l434 -985h-47z" />
    <glyph glyph-name="bracketright" unicode="]" horiz-adv-x="735" 
d="M-47 -338v33h430v1837h-430v33h573v-1903h-573z" />
    <glyph glyph-name="asciicircum" unicode="^" horiz-adv-x="722" 
d="M57 1122l301 434h23l287 -434h-33l-273 285l-272 -285h-33z" />
    <glyph glyph-name="underscore" unicode="_" horiz-adv-x="901" 
d="M-4 0v53h909v-53h-909z" />
    <glyph glyph-name="grave" unicode="`" horiz-adv-x="487" 
d="M346 1081l-141 136q-96 94 -121 125t-25 59q0 31 22 52.5t54 21.5q36 0 56 -28.5t65 -127.5q15 -33 23 -51l83 -187h-16z" />
    <glyph glyph-name="a" unicode="a" horiz-adv-x="968" 
d="M336 -12q-119 0 -183.5 62.5t-64.5 152.5q0 136 127 205q60 33 140 56.5t178 43t112 22.5v140q0 130 -46.5 187.5t-152.5 57.5q-134 0 -190 -73q33 -15 52.5 -42.5t19.5 -58.5q0 -45 -28 -73.5t-73 -28.5t-70.5 29.5t-25.5 72.5q0 88 99.5 146.5t238.5 58.5
q332 0 332 -270v-508q0 -86 37 -111.5t129 9.5l6 -15q-94 -59 -174 -59q-74 0 -110.5 38.5t-37.5 125.5h-6q-148 -168 -309 -168zM418 59q65 0 123.5 37.5t103.5 96.5v309q-162 -29 -245.5 -62.5t-114.5 -79.5t-31 -124q0 -84 41.5 -130.5t122.5 -46.5z" />
    <glyph glyph-name="b" unicode="b" horiz-adv-x="1075" 
d="M143 -29l9 183v1189q0 38 -11 56.5t-47 29.5t-112 15v16l325 8v-673q139 155 309 155t276.5 -130t106.5 -331q0 -215 -124 -360t-308 -145q-166 0 -315 96l-92 -109h-17zM557 12q129 0 198.5 125.5t69.5 339.5q0 178 -76.5 292t-207.5 114q-129 0 -234 -121v-580
q31 -82 98.5 -126t151.5 -44z" />
    <glyph glyph-name="c" unicode="c" horiz-adv-x="925" 
d="M504 -20q-191 0 -310.5 134.5t-119.5 336.5q0 105 38 199t102 160.5t150 105t179 38.5q141 0 229 -62.5t88 -137.5q0 -47 -27.5 -77t-70.5 -30q-44 0 -73.5 28.5t-29.5 72.5q0 72 66 108q-63 70 -182 70q-128 0 -214.5 -117t-86.5 -324q0 -192 90 -310t254 -118
q85 0 147.5 37.5t134.5 122.5l19 -12q-36 -50 -70.5 -86.5t-81 -70t-105 -51t-126.5 -17.5z" />
    <glyph glyph-name="d" unicode="d" horiz-adv-x="1089" 
d="M469 -16q-176 0 -284.5 133t-108.5 336q0 216 130.5 356.5t319.5 140.5q137 0 238 -69v462q0 38 -10.5 56.5t-46.5 29.5t-111 15v16l324 8v-1372q0 -44 34 -61t123 -19v-16l-309 -8v133q-69 -69 -140 -105t-159 -36zM545 53q125 0 219 109v626q-73 134 -236 134
q-129 0 -203.5 -125t-74.5 -336q0 -178 79.5 -293t215.5 -115z" />
    <glyph glyph-name="e" unicode="e" horiz-adv-x="964" 
d="M512 -20q-191 0 -314.5 133t-123.5 342q0 134 59.5 249t161 182.5t219.5 67.5q125 0 215.5 -58t131.5 -152t34 -207h-651q-2 -23 -2 -66v-2q0 -191 86 -307.5t239 -116.5q97 0 169.5 49t144.5 144l18 -13q-153 -245 -387 -245zM506 926q-111 0 -179 -93t-81 -270h481
q20 363 -221 363z" />
    <glyph glyph-name="f" unicode="f" horiz-adv-x="622" 
d="M49 0v18q94 2 126 17t32 65v791h-178v18l178 29v82q0 133 29 219t88 145q97 97 219 97q105 0 167 -43.5t62 -104.5q0 -46 -27 -74t-67 -28q-43 0 -73 27t-30 77q0 23 11 48t28 40q-34 31 -90 31q-59 0 -98 -39q-64 -64 -64 -270v-213h273v-41h-273v-791q0 -51 40.5 -66.5
t158.5 -15.5v-18h-512z" />
    <glyph glyph-name="g" unicode="g" horiz-adv-x="954" 
d="M494 -381q138 0 241 68.5t103 169.5q0 153 -248 153h-244q-166 -48 -166 -188q0 -203 314 -203zM475 350q100 0 147.5 71t47.5 214q0 131 -54.5 209t-158.5 78q-101 0 -148 -71.5t-47 -215.5q0 -285 213 -285zM467 946q104 0 188 -47q85 148 191 148q51 0 78.5 -26
t27.5 -69q0 -34 -20.5 -56t-52.5 -22q-36 0 -58.5 29t-21.5 76q-69 -8 -119 -92q149 -90 149 -248q0 -72 -32.5 -133t-85 -100t-116 -60.5t-128.5 -21.5q-75 0 -145 24q-121 -52 -121 -110q0 -76 184 -76h201q174 0 257 -59.5t83 -182.5q0 -62 -30.5 -120t-87.5 -104.5
t-149 -75t-204 -28.5q-180 0 -294 60.5t-114 152.5q0 73 67.5 130.5t184.5 80.5v7q-96 20 -138 56t-42 95q0 49 44 99t126 87q-84 37 -136.5 105.5t-52.5 165.5q0 94 56.5 168t139.5 110.5t171 36.5z" />
    <glyph glyph-name="h" unicode="h" horiz-adv-x="1085" 
d="M14 0v18q92 2 123 16.5t31 65.5v1243q0 38 -11 56.5t-47 29.5t-112 15v16l326 8v-761q69 113 158.5 178t191.5 65q119 0 183.5 -72t64.5 -208v-570q0 -51 30.5 -65.5t120.5 -16.5v-18h-444v18q83 2 110 16.5t27 65.5v523q0 122 -42 183.5t-138 61.5q-75 0 -145 -57.5
t-117 -151.5v-559q0 -51 27.5 -65.5t109.5 -16.5v-18h-447z" />
    <glyph glyph-name="i" unicode="i" horiz-adv-x="544" 
d="M268 1141q-45 0 -74.5 31t-29.5 77q0 48 29.5 80.5t74.5 32.5q46 0 76.5 -32t30.5 -79q0 -46 -31 -78t-76 -32zM45 0v18q94 2 126 17t32 65v715q0 34 -11 53t-46 31t-101 16v17l313 10v-842q0 -51 31 -65.5t125 -16.5v-18h-469z" />
    <glyph glyph-name="j" unicode="j" horiz-adv-x="516" 
d="M260 1141q-45 0 -74.5 31t-29.5 77q0 48 29.5 80.5t74.5 32.5q46 0 76.5 -32t30.5 -79q0 -46 -31 -78t-76 -32zM74 -406q-87 0 -147 37.5t-60 98.5q0 41 28 70.5t68 29.5q43 0 67.5 -26.5t24.5 -67.5q0 -27 -13.5 -50t-33.5 -34q10 -13 31.5 -22t46.5 -9q59 0 84 40.5
t25 127.5v1026q0 51 -33 73.5t-133 26.5v17l321 10v-934q0 -142 -15.5 -214.5t-68.5 -125.5q-74 -74 -192 -74z" />
    <glyph glyph-name="k" unicode="k" horiz-adv-x="1015" 
d="M324 385v-285q0 -50 25.5 -65t96.5 -17v-18h-432v18q92 2 123 16.5t31 65.5v1243q0 38 -11 56.5t-47 29.5t-112 15v16l326 8v-1044l323 326q75 73 60.5 115.5t-127.5 52.5v16h405v-16q-82 -9 -140 -44t-165 -141l-145 -141l311 -422q70 -95 103 -120t104 -32v-18h-441v18
q89 7 104 36t-28 83l-254 357z" />
    <glyph glyph-name="l" unicode="l" horiz-adv-x="532" 
d="M37 0v18q93 2 123 16.5t30 65.5v1243q0 38 -10.5 56.5t-46 29.5t-110.5 15v16l323 8v-1368q0 -51 31 -65.5t125 -16.5v-18h-465z" />
    <glyph glyph-name="m" unicode="m" horiz-adv-x="1665" 
d="M633 0v18q83 2 111 16.5t28 65.5v527q0 119 -40.5 180t-131.5 61q-73 0 -139 -56.5t-113 -152.5v-559q0 -51 25 -65.5t106 -16.5v-18h-444v18q94 2 126 17t32 65v715q0 34 -11 53t-46 31t-101 16v17l311 10v-237q67 114 154.5 179.5t187.5 65.5q103 0 165.5 -58.5
t72.5 -172.5q69 108 157.5 169.5t184.5 61.5q114 0 175.5 -71.5t61.5 -204.5v-574q0 -50 30.5 -65t121.5 -17v-18h-438v18q82 2 106.5 16.5t24.5 65.5v527q0 119 -39.5 180t-130.5 61q-68 0 -134.5 -50t-117.5 -140v-578q0 -51 29 -65.5t118 -16.5v-18h-442z" />
    <glyph glyph-name="n" unicode="n" horiz-adv-x="1105" 
d="M35 0v18q94 2 126 17t32 65v715q0 34 -11 53t-46 31t-101 16v17l311 10v-237q69 114 159.5 179.5t192.5 65.5q119 0 183.5 -72t64.5 -208v-570q0 -50 30.5 -65t121.5 -17v-18h-445v18q83 2 110.5 16.5t27.5 65.5v527q0 120 -42 180.5t-139 60.5q-75 0 -145 -57.5
t-117 -151.5v-559q0 -51 27.5 -65.5t109.5 -16.5v-18h-450z" />
    <glyph glyph-name="o" unicode="o" horiz-adv-x="1062" 
d="M532 -20q-92 0 -175.5 36t-146 98.5t-99.5 154t-37 196.5q0 104 39 196t102.5 155.5t146.5 100.5t170 37q91 0 174.5 -35.5t146.5 -98t100.5 -153.5t37.5 -196q0 -104 -39 -196.5t-103 -156.5t-147 -101t-170 -37zM541 8q132 0 203 108t71 351q0 241 -78.5 351
t-214.5 110q-132 0 -203 -108t-71 -351q0 -241 79 -351t214 -110z" />
    <glyph glyph-name="p" unicode="p" horiz-adv-x="1089" 
d="M10 -393v16q94 2 126 17t32 65v1110q0 34 -11 53t-46 31t-101 16v17l312 10v-151q146 159 313 159q170 0 273.5 -129.5t103.5 -331.5q0 -219 -123.5 -362t-310.5 -143q-132 0 -254 75v-352q0 -51 40.5 -66.5t159.5 -15.5v-18h-514zM567 12q132 0 202.5 124t70.5 341
q0 174 -76.5 290t-206.5 116q-124 0 -233 -125v-580q62 -166 243 -166z" />
    <glyph glyph-name="q" unicode="q" horiz-adv-x="1077" 
d="M571 -393v18q113 2 155 17.5t42 60.5v428q-73 -72 -144.5 -109.5t-158.5 -37.5q-173 0 -281 130.5t-108 329.5q0 213 127 359.5t315 146.5q153 0 305 -98l92 113h17l-8 -181v-1083q0 -45 33 -60.5t124 -17.5v-16h-510zM541 57q119 0 227 111v582q-32 84 -94.5 128
t-145.5 44q-133 0 -205.5 -126.5t-72.5 -336.5q0 -173 78.5 -287.5t212.5 -114.5z" />
    <glyph glyph-name="r" unicode="r" horiz-adv-x="796" 
d="M35 0v18q94 2 126 17t32 65v715q0 34 -11 53t-46 31t-101 16v17l311 10v-231q50 105 125 173t154 68q67 0 103 -35.5t36 -89.5q0 -45 -29 -76.5t-71 -31.5q-46 0 -75.5 28.5t-29.5 73.5q0 38 21 68q-66 -9 -121.5 -63t-110.5 -154v-572q0 -51 35.5 -65.5t144.5 -16.5v-18
h-493z" />
    <glyph glyph-name="s" unicode="s" horiz-adv-x="831" 
d="M88 -20v333h16q41 -78 69.5 -126t58.5 -86t60.5 -56.5t66 -27.5t83.5 -9q92 0 146.5 52.5t54.5 127.5q0 81 -52.5 128t-201.5 90q-159 45 -227 102t-68 160q0 121 94 203.5t228 82.5q114 0 215 -57l53 57h16v-297h-16q-87 162 -143 215.5t-146 53.5q-85 0 -138.5 -47.5
t-53.5 -122.5q0 -71 58 -114.5t196 -82.5q154 -45 221 -108.5t67 -169.5q0 -129 -89.5 -215t-227.5 -86q-63 0 -131.5 20t-120.5 51l-72 -71h-16z" />
    <glyph glyph-name="t" unicode="t" horiz-adv-x="686" 
d="M416 -23q-107 0 -163 65.5t-56 193.5v655h-193v18l193 29v266l155 72v-344h299v-41h-299v-670q0 -180 129 -180q97 0 187 145l16 -12q-109 -197 -268 -197z" />
    <glyph glyph-name="u" unicode="u" horiz-adv-x="1085" 
d="M414 -18q-119 0 -183.5 72.5t-64.5 207.5v555q0 50 -30.5 71t-123.5 27v17l310 10v-633q0 -121 42 -182t138 -61q75 0 143 56t115 150v545q0 50 -31.5 71t-130.5 27v17l317 10v-846q0 -44 34 -61t124 -19v-16h-311v227q-69 -114 -157.5 -179.5t-190.5 -65.5z" />
    <glyph glyph-name="v" unicode="v" horiz-adv-x="972" 
d="M485 -25l-321 789q-35 87 -70 117.5t-117 36.5v16h463v-16q-73 -4 -104 -21.5t-31 -50.5q0 -27 14 -62l236 -608h6l219 535q33 90 33 116q0 40 -31.5 61t-101.5 30v16h328v-16q-64 -9 -101 -47t-80 -138l-319 -758h-23z" />
    <glyph glyph-name="w" unicode="w" horiz-adv-x="1462" 
d="M754 666l-35 98q-32 86 -64.5 117t-105.5 37v16h446v-16q-141 -8 -141 -87q0 -19 12 -53l211 -585h6l183 516q28 79 28 118q0 41 -29.5 62t-95.5 29v16h334v-16q-74 -9 -114 -47.5t-76 -139.5l-277 -756h-26l-240 650l-274 -650h-23l-307 789q-34 85 -69.5 116.5
t-114.5 37.5v16h456v-16q-74 -4 -105.5 -24.5t-31.5 -57.5q0 -20 12 -58l230 -590h6z" />
    <glyph glyph-name="x" unicode="x" horiz-adv-x="1026" 
d="M549 541l131 168q74 102 59 149.5t-116 59.5v16h397v-16q-93 -12 -149 -51t-150 -158l-152 -195l236 -324q77 -106 115 -135t106 -37v-18h-444v16q104 12 115 42.5t-46 103.5l-176 254l-145 -191q-76 -103 -58.5 -150t125.5 -59v-16h-397v18q86 10 140.5 50t148.5 159
l170 213l-221 303q-79 107 -118.5 136.5t-111.5 38.5v16h445v-16q-31 -3 -52.5 -7.5t-35.5 -10t-18.5 -15t-5.5 -19t7 -25.5t17 -30.5t26 -38.5z" />
    <glyph glyph-name="y" unicode="y" horiz-adv-x="974" 
d="M500 2l-338 762q-38 87 -73.5 117t-117.5 37v16h463v-16q-69 -4 -101 -20t-32.5 -44.5t16.5 -69.5l256 -606l211 533q44 107 23.5 150.5t-125.5 56.5v16h328v-16q-64 -9 -101 -47t-78 -138l-321 -792q-55 -135 -106 -212.5t-97.5 -106t-103.5 -28.5q-58 0 -94.5 37.5
t-36.5 85.5q0 44 25.5 75.5t72.5 31.5q40 0 67 -30t27 -73q0 -52 -35 -90q58 7 119 76t133 252z" />
    <glyph glyph-name="z" unicode="z" horiz-adv-x="921" 
d="M68 0l-5 18l613 885h-252q-89 0 -146 -55.5t-147 -231.5l-20 5l34 313h717l4 -16l-610 -885h276q91 0 159.5 63.5t144.5 237.5l20 -4l-33 -330h-755z" />
    <glyph glyph-name="braceleft" unicode="{" horiz-adv-x="831" 
d="M848 -326q-223 3 -348 99t-125 270q0 54 16.5 169.5t16.5 154.5q0 53 -7 88t-28.5 67.5t-60.5 51.5t-102.5 32t-156.5 17v22q93 4 156.5 16t103 30t60.5 49t28 65t7 86q0 40 -16.5 150.5t-16.5 162.5q0 172 123.5 262.5t349.5 98.5v-19q-171 -14 -240 -92.5t-69 -224.5
q0 -25 7 -127t7 -158q0 -54 -8 -93.5t-31 -77t-63 -63t-105.5 -45t-157.5 -28.5v-8q90 -8 155.5 -28t105.5 -47t63.5 -66.5t32 -80t8.5 -94.5q0 -56 -7 -162t-7 -133q0 -147 69 -229t240 -96v-19z" />
    <glyph glyph-name="bar" unicode="|" horiz-adv-x="626" 
d="M293 -440v1968h41v-1968h-41z" />
    <glyph glyph-name="braceright" unicode="}" horiz-adv-x="831" 
d="M-16 -313v20q172 13 241.5 93.5t69.5 228.5q0 25 -7 128.5t-7 159.5q0 68 14 116t52 91t112 69t186 36v8q-91 9 -157 28.5t-105.5 46t-62.5 65t-31 78t-8 93.5q0 56 7 160t7 131q0 146 -69.5 227t-241.5 95v18q227 -8 351 -100.5t124 -264.5q0 -52 -16.5 -165.5
t-16.5 -153.5q0 -52 7 -86.5t28 -66t60 -50t102.5 -31t156.5 -16.5v-22q-93 -4 -156.5 -16.5t-102.5 -31t-60 -50.5t-28 -66.5t-7 -87.5q0 -39 16.5 -152.5t16.5 -165.5q0 -175 -124.5 -268t-350.5 -98z" />
    <glyph glyph-name="asciitilde" unicode="~" horiz-adv-x="806" 
d="M100 578q21 121 63.5 178t117.5 57q51 0 156.5 -51t144.5 -51q69 0 104 125h25q-21 -120 -64 -178t-117 -58q-51 0 -156.5 52.5t-144.5 52.5q-69 0 -104 -127h-25z" />
    <glyph glyph-name="uni00A0" unicode="&#xa0;" horiz-adv-x="393" 
 />
    <glyph glyph-name="exclamdown" unicode="&#xa1;" horiz-adv-x="555" 
d="M276 1264q-46 0 -79 32t-33 78t33 78.5t79 32.5t79.5 -32.5t33.5 -76.5q0 -47 -33.5 -79.5t-79.5 -32.5zM276 -33q-48 0 -75 37t-27 109q0 82 37.5 402t50.5 556h29q13 -235 49.5 -555t36.5 -403q0 -146 -101 -146z" />
    <glyph glyph-name="cent" unicode="&#xa2;" horiz-adv-x="1071" 
d="M559 -180v162q-194 7 -308 140t-114 335q0 194 123.5 334t298.5 159v144h41v-140h8q144 0 240 -66t96 -153q0 -46 -28 -79t-72 -33t-72.5 28t-28.5 72q0 73 72 106q-20 39 -76 68t-129 29h-10v-867q14 -2 43 -2q92 0 159 37.5t136 122.5l18 -12q-71 -100 -154 -159
t-202 -64v-162h-41zM307 489q0 -164 65 -277.5t187 -143.5v852q-110 -23 -181 -135.5t-71 -295.5z" />
    <glyph glyph-name="sterling" unicode="&#xa3;" horiz-adv-x="1210" 
d="M905 713v-33h-342q35 -96 35 -178q0 -168 -147 -297q43 -8 123 -30t154.5 -37t145.5 -15q113 0 169 61t73 203l23 -2q-5 -187 -89.5 -302.5t-220.5 -115.5q-82 0 -193.5 61t-211.5 146q-32 -97 -85 -152t-112 -55q-46 0 -75 30t-29 71q0 60 60 103.5t175 43.5q22 0 62 -4
q41 77 41 178q0 53 -14.5 110.5t-27.5 87.5t-42 93h-238v33h221q-69 145 -69 260q0 95 34 173t93.5 128.5t137.5 78t167 27.5q142 0 243 -76.5t101 -175.5q0 -53 -28.5 -87.5t-73.5 -34.5q-52 0 -84.5 30t-32.5 84q0 36 22.5 67t55.5 50q-26 49 -85.5 83t-133.5 34
q-118 0 -188 -72.5t-70 -218.5q0 -39 5.5 -76t18.5 -77t22 -63.5t29 -70.5t27 -63h354z" />
    <glyph glyph-name="yen" unicode="&#xa5;" horiz-adv-x="1390" 
d="M182 637v33h383l-289 487q-55 91 -104.5 127t-144.5 49v19h598v-19q-79 -1 -123 -13.5t-55 -38.5t-2.5 -55.5t34.5 -76.5l283 -508l235 412q79 130 59 195t-159 85v19h469v-19q-94 -10 -164.5 -70t-138.5 -180l-242 -413h379v-33h-399l-23 -41v-127h422v-33h-422v-276
q0 -77 53 -107.5t199 -34.5v-18h-672v18q106 2 160.5 17t73 43t18.5 82v276h-428v33h428v127l-24 41h-404z" />
    <glyph glyph-name="brokenbar" unicode="&#xa6;" horiz-adv-x="626" 
d="M334 690h-41v838h41v-838zM293 397h41v-837h-41v837z" />
    <glyph glyph-name="section" unicode="&#xa7;" horiz-adv-x="1138" 
d="M180 514q0 100 68 175t182 108v2q-111 46 -168 107t-57 157q0 142 112 229.5t273 87.5q146 0 252 -67.5t106 -155.5q0 -50 -25.5 -79t-72.5 -29t-73.5 28.5t-26.5 69.5q0 72 73 104q-23 42 -85 71.5t-156 29.5q-118 0 -192.5 -57.5t-74.5 -161.5q0 -81 74 -131t262 -115
q63 -21 104.5 -38t86 -42.5t70 -54.5t42.5 -70t17 -92q0 -93 -55.5 -170t-165.5 -115v-2q104 -41 152 -101t48 -159q0 -142 -99.5 -237t-285.5 -95q-111 0 -205 30t-152 86t-58 126q0 52 29 87.5t79 35.5q47 0 75.5 -31.5t28.5 -75.5q0 -81 -79 -114q28 -51 106.5 -83
t183.5 -32q130 0 205.5 61.5t75.5 155.5q0 90 -69 143t-263 115q-68 23 -113 40.5t-92.5 44t-74.5 55t-44.5 69t-17.5 90.5zM700 322q84 26 128 72.5t44 107.5q0 85 -68.5 137t-242.5 111l-88 30q-182 -49 -182 -190q0 -85 67 -131.5t256 -106.5q58 -18 86 -30z" />
    <glyph glyph-name="dieresis" unicode="&#xa8;" horiz-adv-x="659" 
d="M500 1092q-44 0 -73.5 30t-29.5 74q0 43 29.5 75t71.5 32q44 0 73 -32t29 -77q0 -43 -28.5 -72.5t-71.5 -29.5zM164 1092q-44 0 -73.5 30t-29.5 74q0 43 29.5 75t71.5 32q44 0 73 -32t29 -77q0 -43 -28.5 -72.5t-71.5 -29.5z" />
    <glyph glyph-name="copyright" unicode="&#xa9;" horiz-adv-x="1708" 
d="M854 -70q-163 0 -308.5 60.5t-249.5 164.5t-165 250t-61 310q0 162 61 307t165 249t249.5 165t308.5 61t308.5 -61t249.5 -165t165 -249t61 -307q0 -164 -61 -310t-165 -250t-249.5 -164.5t-308.5 -60.5zM854 -41q210 0 382.5 102t270 275t97.5 379q0 207 -97.5 379.5
t-270 273t-382.5 100.5q-209 0 -381.5 -100.5t-270.5 -273.5t-98 -379q0 -154 58 -293.5t157 -241t238.5 -161.5t296.5 -60zM866 305q-167 0 -273 108t-106 294q0 195 115 312.5t285 117.5q59 0 115.5 -17t93.5 -43l45 62h16v-289h-18q-60 151 -118 206.5t-149 55.5
q-107 0 -178 -103t-71 -280q0 -176 80.5 -275.5t195.5 -99.5q184 0 266 191l21 -8q-42 -99 -122.5 -165.5t-197.5 -66.5z" />
    <glyph glyph-name="ordfeminine" unicode="&#xaa;" horiz-adv-x="890" 
d="M313 680q-91 0 -140.5 50t-49.5 122q0 102 90 154q23 13 53 25t55 19.5t63 16t57 12.5t57.5 11t46.5 8v114q0 94 -33 134t-109 40q-101 0 -137 -45q56 -24 56 -75q0 -40 -22.5 -64t-59.5 -24q-36 0 -59 25t-23 59q0 66 76 109.5t192 43.5q258 0 258 -211v-375
q0 -69 28 -88.5t93 7.5l8 -15q-70 -49 -137 -49q-60 0 -90 29t-33 94h-6q-111 -127 -234 -127zM385 743q43 0 85.5 27t74.5 68v233q-113 -18 -172.5 -42t-82 -59.5t-22.5 -95.5q0 -62 29.5 -96.5t87.5 -34.5z" />
    <glyph glyph-name="guillemotleft" unicode="&#xab;" horiz-adv-x="1003" 
d="M877 59l-375 361q-29 25 -29 39t29 39l375 360l18 -12l-291 -385l291 -391zM487 59l-374 361q-29 25 -29 39t29 39l374 360l19 -12l-291 -385l291 -391z" />
    <glyph glyph-name="registered" unicode="&#xae;" horiz-adv-x="788" 
d="M391 866q-134 0 -223.5 91t-89.5 227q0 137 89 225t224 88q139 0 228.5 -88t89.5 -225t-90 -227.5t-228 -90.5zM391 889q130 0 210.5 83.5t80.5 211.5q0 129 -80 211t-211 82q-129 0 -208 -82t-79 -211q0 -128 79 -211.5t208 -83.5zM352 1202h39q46 0 65 18.5t19 57.5
q0 36 -21.5 53t-70.5 17h-31v-146zM352 1186v-121q0 -31 56 -31v-12h-162v12q53 0 53 31v258q0 27 -53 27v12h145q72 0 106.5 -22.5t34.5 -59.5q0 -70 -98 -84v-4q45 -1 64 -20t22 -58l4 -37q1 -25 14 -34t44 -9v-10q-18 -6 -43 -6q-42 0 -56 13.5t-16 49.5l-2 41
q-1 36 -18.5 50t-59.5 14h-35z" />
    <glyph glyph-name="macron" unicode="&#xaf;" horiz-adv-x="657" 
d="M59 1143v59h539v-59h-539z" />
    <glyph glyph-name="degree" unicode="&#xb0;" horiz-adv-x="770" 
d="M387 887q-125 0 -206 83t-81 204q0 118 82.5 203t200.5 85q126 0 206.5 -82t80.5 -202q0 -119 -82.5 -205t-200.5 -86zM389 913q77 0 124.5 67t47.5 194q0 129 -51 195.5t-131 66.5q-76 0 -122 -65.5t-46 -192.5q0 -129 50 -197t128 -68z" />
    <glyph glyph-name="plusminus" unicode="&#xb1;" horiz-adv-x="1085" 
d="M121 643v35h403v401h41v-401h400v-35h-400v-405h-41v405h-403zM121 0v35h844v-35h-844z" />
    <glyph glyph-name="acute" unicode="&#xb4;" horiz-adv-x="487" 
d="M113 1081l84 187q66 143 80 166q29 40 65 41q31 0 52.5 -21.5t21.5 -52.5q0 -28 -25 -59t-121 -125l-141 -136h-16z" />
    <glyph glyph-name="paragraph" unicode="&#xb6;" horiz-adv-x="1363" 
d="M752 -205v580q-181 4 -322.5 62t-225 168.5t-83.5 258.5q0 216 167 352t460 136h538v-17q-112 -5 -162.5 -17t-68 -36.5t-17.5 -77.5v-1409h-43v1526h-198v-1526h-45z" />
    <glyph glyph-name="periodcentered" unicode="&#xb7;" horiz-adv-x="428" 
d="M215 561q-47 0 -80 32.5t-33 78.5t33 78t80 32q46 0 78.5 -32t32.5 -76q0 -47 -32.5 -80t-78.5 -33z" />
    <glyph glyph-name="cedilla" unicode="&#xb8;" horiz-adv-x="577" 
d="M225 -506q-116 0 -198 74l14 20q68 -59 164 -59q65 0 97 35t32 94q0 58 -45.5 91.5t-114.5 33.5q-40 0 -76 -10l-8 14l223 203h43l-145 -135l2 -5q114 0 173.5 -49.5t59.5 -126.5t-62.5 -128.5t-158.5 -51.5z" />
    <glyph glyph-name="ordmasculine" unicode="&#xba;" horiz-adv-x="913" 
d="M457 678q-153 0 -255 101.5t-102 262.5q0 160 105.5 266.5t253.5 106.5q151 0 252.5 -102.5t101.5 -263.5q0 -158 -105.5 -264.5t-250.5 -106.5zM465 702q98 0 148.5 82t50.5 260q0 177 -56 262t-157 85q-99 0 -149 -82.5t-50 -261.5q0 -345 213 -345z" />
    <glyph glyph-name="guillemotright" unicode="&#xbb;" horiz-adv-x="1003" 
d="M516 59l-16 13l288 385l-288 391l16 10l377 -360q29 -25 29 -39t-29 -39zM127 59l-16 13l288 385l-288 391l16 10l377 -360q28 -24 28 -39t-28 -39z" />
    <glyph glyph-name="questiondown" unicode="&#xbf;" horiz-adv-x="927" 
d="M539 1262q-46 0 -78.5 32t-32.5 78t32.5 78.5t78.5 32.5q47 0 79.5 -32t32.5 -77q0 -47 -32.5 -79.5t-79.5 -32.5zM479 -35q-133 0 -235.5 51t-154.5 132.5t-52 177.5q0 163 125.5 269.5t359.5 154.5v319h41v-342q-106 -21 -174 -53.5t-106.5 -82.5t-53 -111.5
t-14.5 -151.5q0 -167 74.5 -251.5t208.5 -84.5q92 0 162.5 41.5t103.5 105.5q-57 14 -85 47.5t-28 77.5q0 47 30.5 83t84.5 36t88.5 -37.5t34.5 -93.5q0 -112 -120.5 -199.5t-289.5 -87.5z" />
    <glyph glyph-name="Agrave" unicode="&#xc0;" horiz-adv-x="1392" 
d="M1008 201l-129 354h-510l-84 -219q-25 -64 -37.5 -107.5t-15 -79t6.5 -57t33.5 -37.5t59 -24t88.5 -13v-18h-469v18q107 19 163.5 80.5t127.5 241.5l450 1133h29l463 -1233q27 -73 44 -108t46 -62.5t64 -37t98 -14.5v-18h-609v18q153 6 187.5 45.5t-6.5 137.5zM381 588
h487l-231 641h-6zM760 1573l-142 135q-94 93 -119.5 124.5t-25.5 59.5q0 31 22 52.5t54 21.5q35 0 55 -28t63 -123q5 -12 8 -18.5t8 -17.5t9 -20l84 -186h-16z" />
    <glyph glyph-name="Aacute" unicode="&#xc1;" horiz-adv-x="1392" 
d="M1008 201l-129 354h-510l-84 -219q-25 -64 -37.5 -107.5t-15 -79t6.5 -57t33.5 -37.5t59 -24t88.5 -13v-18h-469v18q107 19 163.5 80.5t127.5 241.5l450 1133h29l463 -1233q27 -73 44 -108t46 -62.5t64 -37t98 -14.5v-18h-609v18q153 6 187.5 45.5t-6.5 137.5zM381 588
h487l-231 641h-6zM645 1573l84 186q66 143 80 166q29 40 65 41q31 0 52.5 -21.5t21.5 -52.5q0 -28 -25.5 -59.5t-119.5 -124.5l-141 -135h-17z" />
    <glyph glyph-name="Acircumflex" unicode="&#xc2;" horiz-adv-x="1392" 
d="M1008 201l-129 354h-510l-84 -219q-25 -64 -37.5 -107.5t-15 -79t6.5 -57t33.5 -37.5t59 -24t88.5 -13v-18h-469v18q107 19 163.5 80.5t127.5 241.5l450 1133h29l463 -1233q27 -73 44 -108t46 -62.5t64 -37t98 -14.5v-18h-609v18q153 6 187.5 45.5t-6.5 137.5zM381 588
h487l-231 641h-6zM442 1563l263 366h18l248 -366h-25l-239 200l-240 -200h-25z" />
    <glyph glyph-name="Atilde" unicode="&#xc3;" horiz-adv-x="1392" 
d="M1008 201l-129 354h-510l-84 -219q-25 -64 -37.5 -107.5t-15 -79t6.5 -57t33.5 -37.5t59 -24t88.5 -13v-18h-469v18q107 19 163.5 80.5t127.5 241.5l450 1133h29l463 -1233q27 -73 44 -108t46 -62.5t64 -37t98 -14.5v-18h-609v18q153 6 187.5 45.5t-6.5 137.5zM381 588
h487l-231 641h-6zM389 1563q21 122 64.5 180.5t119.5 58.5q50 0 160 -50t148 -50q73 0 108 127h23q-41 -240 -185 -240q-50 0 -159.5 50.5t-147.5 50.5q-73 0 -108 -127h-23z" />
    <glyph glyph-name="Adieresis" unicode="&#xc4;" horiz-adv-x="1392" 
d="M1008 201l-129 354h-510l-84 -219q-25 -64 -37.5 -107.5t-15 -79t6.5 -57t33.5 -37.5t59 -24t88.5 -13v-18h-469v18q107 19 163.5 80.5t127.5 241.5l450 1133h29l463 -1233q27 -73 44 -108t46 -62.5t64 -37t98 -14.5v-18h-609v18q153 6 187.5 45.5t-6.5 137.5zM381 588
h487l-231 641h-6zM874 1583q-44 0 -73 30t-29 75q0 43 29 74.5t71 31.5q44 0 73.5 -31.5t29.5 -76.5q0 -43 -29 -73t-72 -30zM539 1583q-44 0 -73.5 30.5t-29.5 74.5q0 43 29.5 74.5t71.5 31.5q44 0 73 -31.5t29 -76.5q0 -43 -29 -73t-71 -30z" />
    <glyph glyph-name="Aring" unicode="&#xc5;" horiz-adv-x="1392" 
d="M705 1460q57 0 89.5 50t32.5 135q0 98 -30.5 141t-91.5 43q-60 0 -90.5 -43t-30.5 -141q0 -85 32 -135t89 -50zM369 555l-84 -219q-25 -64 -37.5 -107.5t-15 -79t6.5 -57t33.5 -37.5t59 -24t88.5 -13v-18h-469v18q107 19 163.5 80.5t127.5 241.5l436 1098
q-81 9 -132.5 68.5t-51.5 138.5q0 87 59.5 147.5t151.5 60.5q91 0 152 -61t61 -147q0 -78 -51.5 -137.5t-131.5 -69.5l449 -1198q27 -73 44 -108t46 -62.5t64 -37t98 -14.5v-18h-609v18q153 6 187.5 45.5t-6.5 137.5l-129 354h-510zM868 588l-231 641h-6l-250 -641h487z" />
    <glyph glyph-name="AE" unicode="&#xc6;" horiz-adv-x="2056" 
d="M492 584l-175 -275q-92 -145 -92 -203q0 -38 37 -58.5t119 -29.5v-18h-467v18q110 17 188 86t187 236l575 891q33 54 33 84q0 39 -49 62.5t-160 33.5v16h1208l7 -419l-19 -2q-44 118 -77.5 187t-77 118t-94.5 67.5t-126 18.5h-346v-639h195q111 0 164 56.5t92 223.5h18
v-594h-18q-39 168 -92 225.5t-164 57.5h-195v-696h379q82 0 138.5 19.5t103.5 72t83 125.5t81 198l18 -2l-10 -444h-1208v18q103 3 155 18.5t69 43t17 80.5v424h-497zM989 616v736h-6l-471 -736h477z" />
    <glyph glyph-name="Ccedilla" unicode="&#xc7;" horiz-adv-x="1431" 
d="M723 -506q-117 0 -199 74l15 20q68 -59 163 -59q65 0 97 35t32 94q0 58 -45 91.5t-114 33.5q-40 0 -76 -10l-8 14l196 178q-145 1 -270 51.5t-217 142.5t-144.5 230.5t-52.5 306.5q0 161 56.5 303t153.5 243t230.5 159.5t282.5 58.5q195 0 365 -92l86 105h16v-463h-18
q-104 241 -206.5 331.5t-258.5 90.5q-81 0 -154 -25t-137.5 -80.5t-111.5 -138t-74 -205t-27 -272.5q0 -138 31.5 -253t84.5 -193t123.5 -131.5t146.5 -78t155 -24.5q320 0 495 356l23 -12q-34 -78 -80 -144t-110 -125t-152 -96t-191 -43l-120 -112l2 -5q114 0 173.5 -49.5
t59.5 -126.5t-62.5 -128.5t-158.5 -51.5z" />
    <glyph glyph-name="Egrave" unicode="&#xc8;" horiz-adv-x="1363" 
d="M55 0v18q104 3 156 18.5t69 42.5t17 81v1110q0 53 -17 80t-69 42.5t-156 18.5v16h1149l6 -419l-18 -2q-44 118 -77.5 187t-77 118t-94.5 67.5t-126 18.5h-346v-639h195q113 0 164.5 56t91.5 224h18v-594h-18q-40 169 -91.5 226t-164.5 57h-195v-696h381q82 0 137.5 19.5
t102.5 72t82.5 125.5t80.5 198l19 -2l-10 -444h-1209zM795 1573l-142 135q-94 93 -119.5 124.5t-25.5 59.5q0 31 22 52.5t54 21.5q35 0 55 -28t63 -123q5 -12 8 -18.5t8 -17.5t9 -20l84 -186h-16z" />
    <glyph glyph-name="Eacute" unicode="&#xc9;" horiz-adv-x="1363" 
d="M668 1573l84 186q66 143 80 166q29 40 65 41q31 0 52.5 -21.5t21.5 -52.5q0 -28 -25 -59t-121 -125l-141 -135h-16zM55 0v18q104 3 156 18.5t69 42.5t17 81v1110q0 53 -17 80t-69 42.5t-156 18.5v16h1149l6 -419l-18 -2q-44 118 -77.5 187t-77 118t-94.5 67.5t-126 18.5
h-346v-639h195q113 0 164.5 56t91.5 224h18v-594h-18q-40 169 -91.5 226t-164.5 57h-195v-696h381q82 0 137.5 19.5t102.5 72t82.5 125.5t80.5 198l19 -2l-10 -444h-1209z" />
    <glyph glyph-name="Ecircumflex" unicode="&#xca;" horiz-adv-x="1363" 
d="M446 1573l263 366h18l248 -366h-25l-239 201l-240 -201h-25zM55 0v18q104 3 156 18.5t69 42.5t17 81v1110q0 53 -17 80t-69 42.5t-156 18.5v16h1149l6 -419l-18 -2q-44 118 -77.5 187t-77 118t-94.5 67.5t-126 18.5h-346v-639h195q113 0 164.5 56t91.5 224h18v-594h-18
q-40 169 -91.5 226t-164.5 57h-195v-696h381q82 0 137.5 19.5t102.5 72t82.5 125.5t80.5 198l19 -2l-10 -444h-1209z" />
    <glyph glyph-name="Edieresis" unicode="&#xcb;" horiz-adv-x="1363" 
d="M893 1583q-44 0 -73 30t-29 75q0 43 29 74.5t71 31.5q44 0 73 -31.5t29 -76.5q0 -43 -29 -73t-71 -30zM557 1583q-44 0 -73 30t-29 75q0 43 29 74.5t71 31.5q44 0 73 -31.5t29 -76.5q0 -43 -29 -73t-71 -30zM55 0v18q104 3 156 18.5t69 42.5t17 81v1110q0 53 -17 80
t-69 42.5t-156 18.5v16h1149l6 -419l-18 -2q-44 118 -77.5 187t-77 118t-94.5 67.5t-126 18.5h-346v-639h195q113 0 164.5 56t91.5 224h18v-594h-18q-40 169 -91.5 226t-164.5 57h-195v-696h381q82 0 137.5 19.5t102.5 72t82.5 125.5t80.5 198l19 -2l-10 -444h-1209z" />
    <glyph glyph-name="Igrave" unicode="&#xcc;" horiz-adv-x="794" 
d="M61 0v18q108 3 161.5 18t71 42.5t17.5 81.5v1110q0 53 -17.5 80.5t-71.5 42.5t-161 18v16h672v-16q-107 -3 -161 -18t-71.5 -42.5t-17.5 -80.5v-1110q0 -54 17.5 -81.5t71 -42.5t161.5 -18v-18h-672zM473 1573l-141 135q-96 94 -121 125t-25 59q0 31 22 52.5t54 21.5
q36 0 56 -28.5t65 -127.5q15 -33 23 -51l83 -186h-16z" />
    <glyph glyph-name="Iacute" unicode="&#xcd;" horiz-adv-x="794" 
d="M61 0v18q108 3 161.5 18t71 42.5t17.5 81.5v1110q0 53 -17.5 80.5t-71.5 42.5t-161 18v16h672v-16q-107 -3 -161 -18t-71.5 -42.5t-17.5 -80.5v-1110q0 -54 17.5 -81.5t71 -42.5t161.5 -18v-18h-672zM338 1573l84 186q66 143 80 166q29 40 65 41q31 0 52.5 -21.5
t21.5 -52.5q0 -28 -25.5 -59.5t-119.5 -124.5l-142 -135h-16z" />
    <glyph glyph-name="Icircumflex" unicode="&#xce;" horiz-adv-x="794" 
d="M61 0v18q108 3 161.5 18t71 42.5t17.5 81.5v1110q0 53 -17.5 80.5t-71.5 42.5t-161 18v16h672v-16q-107 -3 -161 -18t-71.5 -42.5t-17.5 -80.5v-1110q0 -54 17.5 -81.5t71 -42.5t161.5 -18v-18h-672zM133 1573l262 366h19l248 -366h-25l-240 201l-239 -201h-25z" />
    <glyph glyph-name="Idieresis" unicode="&#xcf;" horiz-adv-x="794" 
d="M61 0v18q108 3 161.5 18t71 42.5t17.5 81.5v1110q0 53 -17.5 80.5t-71.5 42.5t-161 18v16h672v-16q-107 -3 -161 -18t-71.5 -42.5t-17.5 -80.5v-1110q0 -54 17.5 -81.5t71 -42.5t161.5 -18v-18h-672zM567 1583q-44 0 -73 30t-29 75q0 43 29 74.5t71 31.5q44 0 73.5 -31.5
t29.5 -76.5q0 -43 -29 -73t-72 -30zM231 1583q-44 0 -73 30t-29 75q0 43 29 74.5t71 31.5q44 0 73.5 -31.5t29.5 -76.5q0 -43 -29 -73t-72 -30z" />
    <glyph glyph-name="Eth" unicode="&#xd0;" horiz-adv-x="1536" 
d="M55 0v18q104 3 156 18.5t69 42.5t17 81v565h-201v39h201v506q0 53 -17 80t-69 42.5t-156 18.5v16h613q184 0 331 -53t242 -146.5t145 -218.5t50 -272q0 -114 -28.5 -220t-89.5 -200.5t-148 -164.5t-212.5 -111t-275.5 -41h-627zM471 31h156q229 0 358.5 64t188.5 213.5
t59 416.5q0 160 -24.5 276t-70 192.5t-119.5 121.5t-162.5 63.5t-209.5 18.5h-176v-633h315v-39h-315v-694z" />
    <glyph glyph-name="Ntilde" unicode="&#xd1;" 
d="M1296 -35l-954 1288h-4v-997q0 -63 8.5 -100t36.5 -66.5t76.5 -45t132.5 -26.5v-18h-539v18q105 15 157.5 41t71.5 70t19 127v954q0 90 -55.5 141t-192.5 60v16h385l848 -1148h2v895q0 82 -20.5 126.5t-75.5 70t-164 40.5v16h533v-16q-78 -12 -123 -27.5t-71 -44.5
t-34 -66t-8 -99v-1209h-29zM522 1563q21 121 65 180t120 59q50 0 159.5 -50t147.5 -50q73 0 108 127h23q-21 -120 -65.5 -180t-118.5 -60q-50 0 -160 50.5t-148 50.5q-73 0 -108 -127h-23z" />
    <glyph glyph-name="Ograve" unicode="&#xd2;" horiz-adv-x="1552" 
d="M776 -35q-132 0 -254 53.5t-216 148t-150 236.5t-56 308q0 111 26.5 213t73.5 183.5t111.5 148.5t139.5 112t158.5 69.5t168.5 24.5q131 0 253 -53t215.5 -147.5t149.5 -236.5t56 -308q0 -132 -37.5 -251t-103 -209t-151 -156.5t-184.5 -101t-200 -34.5zM782 -6
q83 0 151 21t128 72.5t100.5 132.5t64 205.5t23.5 287.5q0 164 -24.5 289.5t-66.5 206t-104 132t-131 72.5t-153 21q-83 0 -151 -21t-128 -72t-100.5 -132t-64 -206t-23.5 -288t24.5 -288.5t66.5 -206.5t104 -132.5t131 -72.5t153 -21zM840 1573l-142 135
q-94 93 -119.5 124.5t-25.5 59.5q0 31 22 52.5t54 21.5q35 0 55 -28t63 -123q5 -12 8 -18.5t8 -17.5t9 -20l84 -186h-16z" />
    <glyph glyph-name="Oacute" unicode="&#xd3;" horiz-adv-x="1552" 
d="M713 1573l84 186q66 143 80 166q29 40 65 41q31 0 52.5 -21.5t21.5 -52.5q0 -28 -25 -59t-121 -125l-141 -135h-16zM776 -35q-132 0 -254 53.5t-216 148t-150 236.5t-56 308q0 111 26.5 213t73.5 183.5t111.5 148.5t139.5 112t158.5 69.5t168.5 24.5q131 0 253 -53
t215.5 -147.5t149.5 -236.5t56 -308q0 -132 -37.5 -251t-103 -209t-151 -156.5t-184.5 -101t-200 -34.5zM782 -6q83 0 151 21t128 72.5t100.5 132.5t64 205.5t23.5 287.5q0 164 -24.5 289.5t-66.5 206t-104 132t-131 72.5t-153 21q-83 0 -151 -21t-128 -72t-100.5 -132
t-64 -206t-23.5 -288t24.5 -288.5t66.5 -206.5t104 -132.5t131 -72.5t153 -21z" />
    <glyph glyph-name="Ocircumflex" unicode="&#xd4;" horiz-adv-x="1552" 
d="M514 1573l262 366h19l247 -366h-24l-240 201l-239 -201h-25zM776 -35q-132 0 -254 53.5t-216 148t-150 236.5t-56 308q0 111 26.5 213t73.5 183.5t111.5 148.5t139.5 112t158.5 69.5t168.5 24.5q131 0 253 -53t215.5 -147.5t149.5 -236.5t56 -308q0 -132 -37.5 -251
t-103 -209t-151 -156.5t-184.5 -101t-200 -34.5zM782 -6q83 0 151 21t128 72.5t100.5 132.5t64 205.5t23.5 287.5q0 164 -24.5 289.5t-66.5 206t-104 132t-131 72.5t-153 21q-83 0 -151 -21t-128 -72t-100.5 -132t-64 -206t-23.5 -288t24.5 -288.5t66.5 -206.5t104 -132.5
t131 -72.5t153 -21z" />
    <glyph glyph-name="Otilde" unicode="&#xd5;" horiz-adv-x="1552" 
d="M776 -35q-132 0 -254 53.5t-216 148t-150 236.5t-56 308q0 111 26.5 213t73.5 183.5t111.5 148.5t139.5 112t158.5 69.5t168.5 24.5q131 0 253 -53t215.5 -147.5t149.5 -236.5t56 -308q0 -132 -37.5 -251t-103 -209t-151 -156.5t-184.5 -101t-200 -34.5zM782 -6
q83 0 151 21t128 72.5t100.5 132.5t64 205.5t23.5 287.5q0 164 -24.5 289.5t-66.5 206t-104 132t-131 72.5t-153 21q-83 0 -151 -21t-128 -72t-100.5 -132t-64 -206t-23.5 -288t24.5 -288.5t66.5 -206.5t104 -132.5t131 -72.5t153 -21zM485 1563q21 121 65 180t120 59
q50 0 159.5 -50t147.5 -50q73 0 108 127h23q-21 -120 -65.5 -180t-118.5 -60q-50 0 -160 50.5t-148 50.5q-73 0 -108 -127h-23z" />
    <glyph glyph-name="Odieresis" unicode="&#xd6;" horiz-adv-x="1552" 
d="M946 1583q-44 0 -73 30t-29 75q0 43 29 74.5t71 31.5q44 0 73.5 -31.5t29.5 -76.5q0 -43 -29 -73t-72 -30zM610 1583q-44 0 -73 30t-29 75q0 43 29 74.5t71 31.5q44 0 73.5 -31.5t29.5 -76.5q0 -43 -29 -73t-72 -30zM776 -35q-132 0 -254 53.5t-216 148t-150 236.5
t-56 308q0 111 26.5 213t73.5 183.5t111.5 148.5t139.5 112t158.5 69.5t168.5 24.5q131 0 253 -53t215.5 -147.5t149.5 -236.5t56 -308q0 -132 -37.5 -251t-103 -209t-151 -156.5t-184.5 -101t-200 -34.5zM782 -6q83 0 151 21t128 72.5t100.5 132.5t64 205.5t23.5 287.5
q0 164 -24.5 289.5t-66.5 206t-104 132t-131 72.5t-153 21q-83 0 -151 -21t-128 -72t-100.5 -132t-64 -206t-23.5 -288t24.5 -288.5t66.5 -206.5t104 -132.5t131 -72.5t153 -21z" />
    <glyph glyph-name="multiply" unicode="&#xd7;" horiz-adv-x="1138" 
d="M938 1061l29 -29l-369 -368l369 -369l-27 -27l-371 367l-366 -367l-29 29l367 367l-367 368l29 29l366 -369z" />
    <glyph glyph-name="Oslash" unicode="&#xd8;" horiz-adv-x="1552" 
d="M776 -35q-251 0 -436 170l-166 -211h-53l190 238q-100 101 -155.5 240.5t-55.5 308.5q0 111 26.5 213t73.5 183.5t111.5 148.5t139.5 112t158.5 69.5t168.5 24.5q245 0 434 -170l168 211h54l-191 -239q97 -101 153 -241t56 -306q0 -132 -37.5 -251t-103 -209t-151 -156.5
t-184.5 -101t-200 -34.5zM770 1434q-83 0 -151 -21t-128 -72t-100.5 -132t-64 -206t-23.5 -288q0 -293 76 -465l774 969q-118 215 -383 215zM782 -6q83 0 151 21t128 72.5t100.5 132.5t64 205.5t23.5 287.5q0 289 -75 463l-775 -967q118 -215 383 -215z" />
    <glyph glyph-name="Ugrave" unicode="&#xd9;" 
d="M807 -33q-253 0 -393 116t-140 339v848q0 53 -17 80t-69 42.5t-155 18.5v16h641v-16q-77 -2 -121.5 -9.5t-67.5 -26t-29.5 -40.5t-6.5 -63v-805q0 -121 31 -208.5t90 -137.5t135.5 -73t175.5 -23q175 0 274 96q123 123 123 344v709q0 82 -20.5 126.5t-76 70t-165.5 40.5
v16h532v-16q-77 -12 -122 -27.5t-70.5 -45t-33 -65.5t-7.5 -99v-723q0 -222 -130.5 -353t-377.5 -131zM891 1573l-141 135q-96 94 -121 125t-25 59q0 31 22 52.5t54 21.5q35 0 55 -28t63 -123q5 -12 8 -18.5t8 -17.5t9 -20l84 -186h-16z" />
    <glyph glyph-name="Uacute" unicode="&#xda;" 
d="M778 1573l84 186q66 143 81 167q29 39 65 40q31 0 52 -21.5t21 -52.5q0 -28 -25.5 -59.5t-119.5 -124.5l-141 -135h-17zM807 -33q-253 0 -393 116t-140 339v848q0 53 -17 80t-69 42.5t-155 18.5v16h641v-16q-77 -2 -121.5 -9.5t-67.5 -26t-29.5 -40.5t-6.5 -63v-805
q0 -121 31 -208.5t90 -137.5t135.5 -73t175.5 -23q175 0 274 96q123 123 123 344v709q0 82 -20.5 126.5t-76 70t-165.5 40.5v16h532v-16q-77 -12 -122 -27.5t-70.5 -45t-33 -65.5t-7.5 -99v-723q0 -222 -130.5 -353t-377.5 -131z" />
    <glyph glyph-name="Ucircumflex" unicode="&#xdb;" 
d="M582 1573l262 366h18l248 -366h-25l-239 201l-240 -201h-24zM807 -33q-253 0 -393 116t-140 339v848q0 53 -17 80t-69 42.5t-155 18.5v16h641v-16q-77 -2 -121.5 -9.5t-67.5 -26t-29.5 -40.5t-6.5 -63v-805q0 -121 31 -208.5t90 -137.5t135.5 -73t175.5 -23q175 0 274 96
q123 123 123 344v709q0 82 -20.5 126.5t-76 70t-165.5 40.5v16h532v-16q-77 -12 -122 -27.5t-70.5 -45t-33 -65.5t-7.5 -99v-723q0 -222 -130.5 -353t-377.5 -131z" />
    <glyph glyph-name="Udieresis" unicode="&#xdc;" 
d="M999 1583q-44 0 -73 30t-29 75q0 43 29 74.5t71 31.5q44 0 73.5 -31.5t29.5 -76.5q0 -43 -29 -73t-72 -30zM664 1583q-44 0 -73.5 30.5t-29.5 74.5q0 43 29.5 74.5t71.5 31.5q44 0 73 -31.5t29 -76.5q0 -43 -29 -73t-71 -30zM807 -33q-253 0 -393 116t-140 339v848
q0 53 -17 80t-69 42.5t-155 18.5v16h641v-16q-77 -2 -121.5 -9.5t-67.5 -26t-29.5 -40.5t-6.5 -63v-805q0 -121 31 -208.5t90 -137.5t135.5 -73t175.5 -23q175 0 274 96q123 123 123 344v709q0 82 -20.5 126.5t-76 70t-165.5 40.5v16h532v-16q-77 -12 -122 -27.5t-70.5 -45
t-33 -65.5t-7.5 -99v-723q0 -222 -130.5 -353t-377.5 -131z" />
    <glyph glyph-name="Yacute" unicode="&#xdd;" horiz-adv-x="1351" 
d="M745 682l281 483q33 56 47.5 91.5t16.5 64t-18 45t-57 27.5t-100 18v16h474v-16q-114 -13 -174.5 -62.5t-149.5 -197.5l-297 -502v-489q0 -77 51.5 -106.5t196.5 -33.5v-20h-668v18q107 3 160 18t70.5 42.5t17.5 81.5v452l-358 621q-58 98 -105 132t-145 46v16h606v-16
q-82 -3 -126.5 -13.5t-59 -34t-6.5 -54.5t38 -82zM686 1573l84 186q66 143 80 166q29 40 65 41q31 0 52.5 -21.5t21.5 -52.5q0 -28 -25.5 -59.5t-119.5 -124.5l-142 -135h-16z" />
    <glyph glyph-name="Thorn" unicode="&#xde;" horiz-adv-x="1275" 
d="M55 0v18q104 3 156 18.5t69 42.5t17 81v1110q0 54 -17 81t-69 42t-156 18v16h670v-18q-108 -2 -162 -16t-73 -42t-19 -83v-142h164q145 0 255 -29t177 -82t100 -122t33 -154q0 -80 -33.5 -150t-100.5 -127t-181.5 -90.5t-263.5 -33.5h-150v-178q0 -55 19 -82.5t73 -42
t162 -17.5v-18h-670zM471 371h160q113 0 187 23.5t113.5 73t54.5 112t15 155.5q0 83 -15.5 144t-54.5 112.5t-112.5 78t-181.5 26.5h-166v-725z" />
    <glyph glyph-name="germandbls" unicode="&#xdf;" horiz-adv-x="1124" 
d="M780 -20q-114 0 -195 58t-81 134q0 40 24 68t64 28q39 0 61.5 -25.5t22.5 -60.5q0 -50 -62 -90q54 -84 174 -84q84 0 134.5 48.5t50.5 129.5q0 41 -16 76t-47.5 63.5t-61.5 48t-76 44.5q-51 27 -84 49t-66.5 53.5t-50 71t-16.5 88.5q0 56 28.5 102.5t88.5 106.5
q73 71 101 130t28 163q0 139 -59.5 205.5t-159.5 66.5q-114 0 -167 -70.5t-53 -244.5v-1139h-313v18q94 2 126 17t32 65v791h-178v18l178 29v100q0 212 105.5 327.5t281.5 115.5q162 0 264.5 -80t102.5 -199q0 -77 -48 -141t-165 -152q-50 -37 -71.5 -68t-21.5 -75
q0 -36 15.5 -66.5t48.5 -58.5t60.5 -45.5t76.5 -44.5q51 -29 84.5 -51.5t70 -56.5t54.5 -76.5t18 -92.5q0 -120 -85.5 -207t-217.5 -87z" />
    <glyph glyph-name="agrave" unicode="&#xe0;" horiz-adv-x="968" 
d="M336 -12q-119 0 -183.5 62.5t-64.5 152.5q0 136 127 205q60 33 140 56.5t178 43t112 22.5v140q0 130 -46.5 187.5t-152.5 57.5q-134 0 -190 -73q33 -15 52.5 -42.5t19.5 -58.5q0 -45 -28 -73.5t-73 -28.5t-70.5 29.5t-25.5 72.5q0 88 99.5 146.5t238.5 58.5
q332 0 332 -270v-508q0 -86 37 -111.5t129 9.5l6 -15q-94 -59 -174 -59q-74 0 -110.5 38.5t-37.5 125.5h-6q-148 -168 -309 -168zM418 59q65 0 123.5 37.5t103.5 96.5v309q-162 -29 -245.5 -62.5t-114.5 -79.5t-31 -124q0 -84 41.5 -130.5t122.5 -46.5zM530 1081l-141 136
q-94 93 -119.5 124.5t-25.5 59.5q0 31 21.5 52.5t53.5 21.5q36 0 56 -28.5t65 -127.5q15 -33 23 -51l84 -187h-17z" />
    <glyph glyph-name="aacute" unicode="&#xe1;" horiz-adv-x="968" 
d="M336 -12q-119 0 -183.5 62.5t-64.5 152.5q0 136 127 205q60 33 140 56.5t178 43t112 22.5v140q0 130 -46.5 187.5t-152.5 57.5q-134 0 -190 -73q33 -15 52.5 -42.5t19.5 -58.5q0 -45 -28 -73.5t-73 -28.5t-70.5 29.5t-25.5 72.5q0 88 99.5 146.5t238.5 58.5
q332 0 332 -270v-508q0 -86 37 -111.5t129 9.5l6 -15q-94 -59 -174 -59q-74 0 -110.5 38.5t-37.5 125.5h-6q-148 -168 -309 -168zM418 59q65 0 123.5 37.5t103.5 96.5v309q-162 -29 -245.5 -62.5t-114.5 -79.5t-31 -124q0 -84 41.5 -130.5t122.5 -46.5zM422 1081l84 187
q66 143 80 166q29 40 65 41q31 0 52.5 -21.5t21.5 -52.5q0 -28 -25.5 -59.5t-119.5 -124.5l-142 -136h-16z" />
    <glyph glyph-name="acircumflex" unicode="&#xe2;" horiz-adv-x="968" 
d="M336 -12q-119 0 -183.5 62.5t-64.5 152.5q0 136 127 205q60 33 140 56.5t178 43t112 22.5v140q0 130 -46.5 187.5t-152.5 57.5q-134 0 -190 -73q33 -15 52.5 -42.5t19.5 -58.5q0 -45 -28 -73.5t-73 -28.5t-70.5 29.5t-25.5 72.5q0 88 99.5 146.5t238.5 58.5
q332 0 332 -270v-508q0 -86 37 -111.5t129 9.5l6 -15q-94 -59 -174 -59q-74 0 -110.5 38.5t-37.5 125.5h-6q-148 -168 -309 -168zM418 59q65 0 123.5 37.5t103.5 96.5v309q-162 -29 -245.5 -62.5t-114.5 -79.5t-31 -124q0 -84 41.5 -130.5t122.5 -46.5zM219 1081l262 367h19
l248 -367h-25l-240 201l-239 -201h-25z" />
    <glyph glyph-name="atilde" unicode="&#xe3;" horiz-adv-x="968" 
d="M336 -12q-119 0 -183.5 62.5t-64.5 152.5q0 136 127 205q60 33 140 56.5t178 43t112 22.5v140q0 130 -46.5 187.5t-152.5 57.5q-134 0 -190 -73q33 -15 52.5 -42.5t19.5 -58.5q0 -45 -28 -73.5t-73 -28.5t-70.5 29.5t-25.5 72.5q0 88 99.5 146.5t238.5 58.5
q332 0 332 -270v-508q0 -86 37 -111.5t129 9.5l6 -15q-94 -59 -174 -59q-74 0 -110.5 38.5t-37.5 125.5h-6q-148 -168 -309 -168zM418 59q65 0 123.5 37.5t103.5 96.5v309q-162 -29 -245.5 -62.5t-114.5 -79.5t-31 -124q0 -84 41.5 -130.5t122.5 -46.5zM174 1071
q21 122 64.5 181t119.5 59q50 0 160 -50.5t148 -50.5q73 0 108 127h23q-41 -239 -185 -239q-50 0 -159.5 50t-147.5 50q-73 0 -108 -127h-23z" />
    <glyph glyph-name="adieresis" unicode="&#xe4;" horiz-adv-x="968" 
d="M336 -12q-119 0 -183.5 62.5t-64.5 152.5q0 136 127 205q60 33 140 56.5t178 43t112 22.5v140q0 130 -46.5 187.5t-152.5 57.5q-134 0 -190 -73q33 -15 52.5 -42.5t19.5 -58.5q0 -45 -28 -73.5t-73 -28.5t-70.5 29.5t-25.5 72.5q0 88 99.5 146.5t238.5 58.5
q332 0 332 -270v-508q0 -86 37 -111.5t129 9.5l6 -15q-94 -59 -174 -59q-74 0 -110.5 38.5t-37.5 125.5h-6q-148 -168 -309 -168zM418 59q65 0 123.5 37.5t103.5 96.5v309q-162 -29 -245.5 -62.5t-114.5 -79.5t-31 -124q0 -84 41.5 -130.5t122.5 -46.5zM653 1092
q-44 0 -73 30t-29 74q0 43 29 75t71 32q44 0 73.5 -32t29.5 -77q0 -43 -29 -72.5t-72 -29.5zM317 1092q-44 0 -73 30t-29 74q0 43 29 75t71 32q44 0 73.5 -32t29.5 -77q0 -43 -29 -72.5t-72 -29.5z" />
    <glyph glyph-name="aring" unicode="&#xe5;" horiz-adv-x="968" 
d="M336 -12q-119 0 -183.5 62.5t-64.5 152.5q0 136 127 205q60 33 140 56.5t178 43t112 22.5v140q0 130 -46.5 187.5t-152.5 57.5q-134 0 -190 -73q33 -15 52.5 -42.5t19.5 -58.5q0 -45 -28 -73.5t-73 -28.5t-70.5 29.5t-25.5 72.5q0 88 99.5 146.5t238.5 58.5
q332 0 332 -270v-508q0 -86 37 -111.5t129 9.5l6 -15q-94 -59 -174 -59q-74 0 -110.5 38.5t-37.5 125.5h-6q-148 -168 -309 -168zM418 59q65 0 123.5 37.5t103.5 96.5v309q-162 -29 -245.5 -62.5t-114.5 -79.5t-31 -124q0 -84 41.5 -130.5t122.5 -46.5zM483 1092
q-92 0 -151.5 60.5t-59.5 147.5t59.5 148t151.5 61q91 0 152 -61.5t61 -147.5t-60.5 -147t-152.5 -61zM483 1116q57 0 90 49t33 135q0 185 -123 185q-121 0 -121 -185q0 -86 32 -135t89 -49z" />
    <glyph glyph-name="ae" unicode="&#xe6;" horiz-adv-x="1544" 
d="M1094 954q186 0 288 -121t91 -296h-650q-2 -23 -2 -66v-2q0 -191 86.5 -307.5t239.5 -116.5q96 0 168.5 49.5t142.5 143.5l19 -13q-150 -245 -387 -245q-131 0 -229 66t-142 185h-6q-60 -114 -160 -178.5t-217 -64.5q-119 0 -183.5 62.5t-64.5 152.5q0 136 127 205
q59 33 145 57t186 42t118 23v140q0 128 -55 186.5t-163 58.5q-134 0 -190 -73q33 -15 52.5 -42.5t19.5 -58.5q0 -45 -28 -73.5t-73 -28.5t-70.5 29.5t-25.5 72.5q0 88 99.5 146.5t238.5 58.5q240 0 305 -151q58 74 142 116.5t178 42.5zM1083 926q-110 0 -177.5 -93
t-80.5 -270h480q23 363 -222 363zM426 59q70 0 136.5 41.5t101.5 108.5v291q-165 -28 -252 -60.5t-122.5 -79.5t-35.5 -124q0 -85 44.5 -131t127.5 -46z" />
    <glyph glyph-name="ccedilla" unicode="&#xe7;" horiz-adv-x="925" 
d="M465 -506q-117 0 -199 74l15 20q68 -59 163 -59q65 0 97 35t32 94q0 58 -45 91.5t-114 33.5q-40 0 -76 -10l-8 14l213 195q-6 0 -19 -1t-20 -1q-191 0 -310.5 134.5t-119.5 336.5q0 105 38 199t102 160.5t150 105t179 38.5q141 0 229 -62.5t88 -137.5q0 -47 -27.5 -77
t-70.5 -30q-44 0 -73.5 28.5t-29.5 72.5q0 72 66 108q-63 70 -182 70q-128 0 -214.5 -117t-86.5 -324q0 -192 90 -310t254 -118q85 0 147.5 37.5t134.5 122.5l19 -12q-63 -86 -131.5 -141t-161.5 -74l-143 -135l2 -5q114 0 173.5 -49.5t59.5 -126.5t-62.5 -128.5
t-158.5 -51.5z" />
    <glyph glyph-name="egrave" unicode="&#xe8;" horiz-adv-x="964" 
d="M512 -20q-191 0 -314.5 133t-123.5 342q0 134 59.5 249t161 182.5t219.5 67.5q125 0 215.5 -58t131.5 -152t34 -207h-651q-2 -23 -2 -66v-2q0 -191 86 -307.5t239 -116.5q97 0 169.5 49t144.5 144l18 -13q-153 -245 -387 -245zM506 926q-111 0 -179 -93t-81 -270h481
q20 363 -221 363zM561 1081l-141 136q-96 94 -121 125t-25 59q0 31 22 52.5t54 21.5q36 0 56 -28.5t65 -127.5q15 -33 23 -51l84 -187h-17z" />
    <glyph glyph-name="eacute" unicode="&#xe9;" horiz-adv-x="964" 
d="M512 -20q-191 0 -314.5 133t-123.5 342q0 134 59.5 249t161 182.5t219.5 67.5q125 0 215.5 -58t131.5 -152t34 -207h-651q-2 -23 -2 -66v-2q0 -191 86 -307.5t239 -116.5q97 0 169.5 49t144.5 144l18 -13q-153 -245 -387 -245zM506 926q-111 0 -179 -93t-81 -270h481
q20 363 -221 363zM457 1081l84 187q66 143 80 166q29 40 65 41q31 0 52.5 -21.5t21.5 -52.5q0 -28 -25 -59t-121 -125l-141 -136h-16z" />
    <glyph glyph-name="ecircumflex" unicode="&#xea;" horiz-adv-x="964" 
d="M512 -20q-191 0 -314.5 133t-123.5 342q0 134 59.5 249t161 182.5t219.5 67.5q125 0 215.5 -58t131.5 -152t34 -207h-651q-2 -23 -2 -66v-2q0 -191 86 -307.5t239 -116.5q97 0 169.5 49t144.5 144l18 -13q-153 -245 -387 -245zM506 926q-111 0 -179 -93t-81 -270h481
q20 363 -221 363zM248 1081l262 367h18l248 -367h-24l-240 201l-240 -201h-24z" />
    <glyph glyph-name="edieresis" unicode="&#xeb;" horiz-adv-x="964" 
d="M512 -20q-191 0 -314.5 133t-123.5 342q0 134 59.5 249t161 182.5t219.5 67.5q125 0 215.5 -58t131.5 -152t34 -207h-651q-2 -23 -2 -66v-2q0 -191 86 -307.5t239 -116.5q97 0 169.5 49t144.5 144l18 -13q-153 -245 -387 -245zM506 926q-111 0 -179 -93t-81 -270h481
q20 363 -221 363zM346 1092q-44 0 -73 30t-29 74q0 43 29 75t71 32q44 0 73 -32t29 -77q0 -43 -28.5 -72.5t-71.5 -29.5zM682 1092q-44 0 -73 30t-29 74q0 43 29 75t71 32q44 0 73 -32t29 -77q0 -43 -28.5 -72.5t-71.5 -29.5z" />
    <glyph glyph-name="igrave" unicode="&#xec;" horiz-adv-x="544" 
d="M45 0v18q94 2 126 17t32 65v715q0 34 -11 53t-46 31t-101 16v17l313 10v-842q0 -51 31 -65.5t125 -16.5v-18h-469zM309 1081l-141 136q-94 93 -119.5 124.5t-25.5 59.5q0 31 21.5 52.5t53.5 21.5q36 0 56 -28.5t65 -127.5q15 -33 23 -51l84 -187h-17z" />
    <glyph glyph-name="iacute" unicode="&#xed;" horiz-adv-x="544" 
d="M197 1081l84 187q66 143 80 166q29 40 65 41q31 0 52.5 -21.5t21.5 -52.5q0 -28 -25 -59t-121 -125l-141 -136h-16zM45 0v18q94 2 126 17t32 65v715q0 34 -11 53t-46 31t-101 16v17l313 10v-842q0 -51 31 -65.5t125 -16.5v-18h-469z" />
    <glyph glyph-name="icircumflex" unicode="&#xee;" horiz-adv-x="544" 
d="M-8 1081l262 367h18l248 -367h-24l-240 201l-240 -201h-24zM45 0v18q94 2 126 17t32 65v715q0 34 -11 53t-46 31t-101 16v17l313 10v-842q0 -51 31 -65.5t125 -16.5v-18h-469z" />
    <glyph glyph-name="idieresis" unicode="&#xef;" horiz-adv-x="544" 
d="M428 1092q-44 0 -73 30t-29 74q0 43 29 75t71 32q44 0 73 -32t29 -77q0 -43 -28.5 -72.5t-71.5 -29.5zM92 1092q-44 0 -73 30t-29 74q0 43 29 75t71 32q44 0 73.5 -32t29.5 -77q0 -43 -29 -72.5t-72 -29.5zM45 0v18q94 2 126 17t32 65v715q0 34 -11 53t-46 31t-101 16v17
l313 10v-842q0 -51 31 -65.5t125 -16.5v-18h-469z" />
    <glyph glyph-name="eth" unicode="&#xf0;" horiz-adv-x="1081" 
d="M885 1348l-183 -91q291 -249 291 -622q0 -295 -131 -475t-327 -180q-84 0 -164.5 36.5t-142.5 99t-100 153t-38 190.5q0 103 39.5 197t103.5 158t144.5 102t161.5 38q159 0 247 -135l9 4q-29 221 -174 396l-256 -125l-13 28l246 121q-118 127 -295 207l8 20
q206 -68 365 -190l196 96zM557 8q116 0 187 125t71 371q0 199 -70 311.5t-198 112.5t-205.5 -113t-77.5 -350q0 -222 79.5 -339.5t213.5 -117.5z" />
    <glyph glyph-name="ntilde" unicode="&#xf1;" horiz-adv-x="1105" 
d="M35 0v18q94 2 126 17t32 65v715q0 34 -11 53t-46 31t-101 16v17l311 10v-237q69 114 159.5 179.5t192.5 65.5q119 0 183.5 -72t64.5 -208v-570q0 -50 30.5 -65t121.5 -17v-18h-445v18q83 2 110.5 16.5t27.5 65.5v527q0 120 -42 180.5t-139 60.5q-75 0 -145 -57.5
t-117 -151.5v-559q0 -51 27.5 -65.5t109.5 -16.5v-18h-450zM256 1071q21 122 64.5 181t119.5 59q50 0 160 -50.5t148 -50.5q73 0 108 127h23q-41 -239 -185 -239q-50 0 -159.5 50t-147.5 50q-73 0 -108 -127h-23z" />
    <glyph glyph-name="ograve" unicode="&#xf2;" horiz-adv-x="1062" 
d="M532 -20q-92 0 -175.5 36t-146 98.5t-99.5 154t-37 196.5q0 104 39 196t102.5 155.5t146.5 100.5t170 37q91 0 174.5 -35.5t146.5 -98t100.5 -153.5t37.5 -196q0 -104 -39 -196.5t-103 -156.5t-147 -101t-170 -37zM541 8q132 0 203 108t71 351q0 241 -78.5 351
t-214.5 110q-132 0 -203 -108t-71 -351q0 -241 79 -351t214 -110zM578 1081l-142 136q-94 93 -119.5 124.5t-25.5 59.5q0 31 22 52.5t54 21.5q35 0 55 -28t63 -123q5 -12 8 -18.5t8 -17.5t9 -20l84 -187h-16z" />
    <glyph glyph-name="oacute" unicode="&#xf3;" horiz-adv-x="1062" 
d="M477 1081l84 187q66 143 81 167q29 39 65 40q31 0 52 -21.5t21 -52.5q0 -28 -25.5 -59.5t-119.5 -124.5l-141 -136h-17zM532 -20q-92 0 -175.5 36t-146 98.5t-99.5 154t-37 196.5q0 104 39 196t102.5 155.5t146.5 100.5t170 37q91 0 174.5 -35.5t146.5 -98t100.5 -153.5
t37.5 -196q0 -104 -39 -196.5t-103 -156.5t-147 -101t-170 -37zM541 8q132 0 203 108t71 351q0 241 -78.5 351t-214.5 110q-132 0 -203 -108t-71 -351q0 -241 79 -351t214 -110z" />
    <glyph glyph-name="ocircumflex" unicode="&#xf4;" horiz-adv-x="1062" 
d="M270 1081l262 367h19l248 -367h-25l-239 201l-240 -201h-25zM532 -20q-92 0 -175.5 36t-146 98.5t-99.5 154t-37 196.5q0 104 39 196t102.5 155.5t146.5 100.5t170 37q91 0 174.5 -35.5t146.5 -98t100.5 -153.5t37.5 -196q0 -104 -39 -196.5t-103 -156.5t-147 -101
t-170 -37zM541 8q132 0 203 108t71 351q0 241 -78.5 351t-214.5 110q-132 0 -203 -108t-71 -351q0 -241 79 -351t214 -110z" />
    <glyph glyph-name="otilde" unicode="&#xf5;" horiz-adv-x="1062" 
d="M532 -20q-92 0 -175.5 36t-146 98.5t-99.5 154t-37 196.5q0 104 39 196t102.5 155.5t146.5 100.5t170 37q91 0 174.5 -35.5t146.5 -98t100.5 -153.5t37.5 -196q0 -104 -39 -196.5t-103 -156.5t-147 -101t-170 -37zM541 8q132 0 203 108t71 351q0 241 -78.5 351
t-214.5 110q-132 0 -203 -108t-71 -351q0 -241 79 -351t214 -110zM219 1071q21 122 64.5 181t119.5 59q50 0 160 -50.5t148 -50.5q73 0 108 127h23q-41 -239 -185 -239q-50 0 -159.5 50t-147.5 50q-73 0 -108 -127h-23z" />
    <glyph glyph-name="odieresis" unicode="&#xf6;" horiz-adv-x="1062" 
d="M700 1092q-44 0 -73 30t-29 74q0 43 29 75t71 32q44 0 73.5 -32t29.5 -77q0 -43 -29 -72.5t-72 -29.5zM365 1092q-44 0 -73.5 30t-29.5 74q0 43 29 75t71 32q44 0 73.5 -32t29.5 -77q0 -43 -28.5 -72.5t-71.5 -29.5zM532 -20q-92 0 -175.5 36t-146 98.5t-99.5 154
t-37 196.5q0 104 39 196t102.5 155.5t146.5 100.5t170 37q91 0 174.5 -35.5t146.5 -98t100.5 -153.5t37.5 -196q0 -104 -39 -196.5t-103 -156.5t-147 -101t-170 -37zM541 8q132 0 203 108t71 351q0 241 -78.5 351t-214.5 110q-132 0 -203 -108t-71 -351q0 -241 79 -351
t214 -110z" />
    <glyph glyph-name="divide" unicode="&#xf7;" horiz-adv-x="1179" 
d="M111 649v35h958v-35h-958zM592 852q-47 0 -80 32.5t-33 78.5t33 78t80 32q46 0 78 -32t32 -76q0 -47 -32 -80t-78 -33zM592 258q-47 0 -80 32.5t-33 78.5t33 78t80 32q46 0 78 -32t32 -76q0 -47 -32 -80t-78 -33z" />
    <glyph glyph-name="oslash" unicode="&#xf8;" horiz-adv-x="1062" 
d="M141 -57h-49l127 161q-145 142 -145 361q0 104 39 196t102.5 155.5t146.5 100.5t170 37q157 0 281 -100l109 137h49l-127 -162q69 -66 108 -158t39 -200q0 -104 -39 -196.5t-103 -156.5t-147 -101t-170 -37q-158 0 -282 100zM248 469q0 -170 41 -276l469 589
q-76 146 -236 146q-132 0 -203 -108t-71 -351zM541 8q132 0 203 108t71 351q0 170 -41 276l-469 -591q75 -144 236 -144z" />
    <glyph glyph-name="ugrave" unicode="&#xf9;" horiz-adv-x="1085" 
d="M414 -18q-119 0 -183.5 72.5t-64.5 207.5v555q0 50 -30.5 71t-123.5 27v17l310 10v-633q0 -121 42 -182t138 -61q75 0 143 56t115 150v545q0 50 -31.5 71t-130.5 27v17l317 10v-846q0 -44 34 -61t124 -19v-16h-311v227q-69 -114 -157.5 -179.5t-190.5 -65.5zM588 1081
l-142 136q-94 93 -119.5 124.5t-25.5 59.5q0 31 22 52.5t54 21.5q35 0 55 -28t63 -123q16 -36 25 -56l84 -187h-16z" />
    <glyph glyph-name="uacute" unicode="&#xfa;" horiz-adv-x="1085" 
d="M455 1081l84 187q66 143 80 166q29 40 65 41q31 0 52.5 -21.5t21.5 -52.5q0 -28 -25 -59t-121 -125l-141 -136h-16zM414 -18q-119 0 -183.5 72.5t-64.5 207.5v555q0 50 -30.5 71t-123.5 27v17l310 10v-633q0 -121 42 -182t138 -61q75 0 143 56t115 150v545q0 50 -31.5 71
t-130.5 27v17l317 10v-846q0 -44 34 -61t124 -19v-16h-311v227q-69 -114 -157.5 -179.5t-190.5 -65.5z" />
    <glyph glyph-name="ucircumflex" unicode="&#xfb;" horiz-adv-x="1085" 
d="M260 1081l262 367h19l247 -367h-24l-240 201l-239 -201h-25zM414 -18q-119 0 -183.5 72.5t-64.5 207.5v555q0 50 -30.5 71t-123.5 27v17l310 10v-633q0 -121 42 -182t138 -61q75 0 143 56t115 150v545q0 50 -31.5 71t-130.5 27v17l317 10v-846q0 -44 34 -61t124 -19v-16
h-311v227q-69 -114 -157.5 -179.5t-190.5 -65.5z" />
    <glyph glyph-name="udieresis" unicode="&#xfc;" horiz-adv-x="1085" 
d="M692 1092q-44 0 -73 30t-29 74q0 43 29 75t71 32q44 0 73.5 -32t29.5 -77q0 -43 -29 -72.5t-72 -29.5zM356 1092q-44 0 -73 30t-29 74q0 43 29 75t71 32q44 0 73.5 -32t29.5 -77q0 -43 -29 -72.5t-72 -29.5zM414 -18q-119 0 -183.5 72.5t-64.5 207.5v555q0 50 -30.5 71
t-123.5 27v17l310 10v-633q0 -121 42 -182t138 -61q75 0 143 56t115 150v545q0 50 -31.5 71t-130.5 27v17l317 10v-846q0 -44 34 -61t124 -19v-16h-311v227q-69 -114 -157.5 -179.5t-190.5 -65.5z" />
    <glyph glyph-name="yacute" unicode="&#xfd;" horiz-adv-x="974" 
d="M500 2l-338 762q-38 87 -73.5 117t-117.5 37v16h463v-16q-69 -4 -101 -20t-32.5 -44.5t16.5 -69.5l256 -606l211 533q44 107 23.5 150.5t-125.5 56.5v16h328v-16q-64 -9 -101 -47t-78 -138l-321 -792q-55 -135 -106 -212.5t-97.5 -106t-103.5 -28.5q-58 0 -94.5 37.5
t-36.5 85.5q0 44 25.5 75.5t72.5 31.5q40 0 67 -30t27 -73q0 -52 -35 -90q58 7 119 76t133 252zM502 1081l84 187q66 143 80 166q29 40 65 41q31 0 52.5 -21.5t21.5 -52.5q0 -28 -25 -59t-121 -125l-141 -136h-16z" />
    <glyph glyph-name="thorn" unicode="&#xfe;" horiz-adv-x="1073" 
d="M307 1468v-671q144 157 309 157q170 0 274.5 -131t104.5 -334q0 -220 -124.5 -364.5t-309.5 -144.5q-135 0 -254 75v-348q0 -51 40 -66.5t159 -15.5v-18h-514v16q95 2 127.5 17t32.5 65v1638q0 38 -11 56.5t-47 29.5t-112 15v16zM551 10q130 0 200 124.5t70 342.5
q0 176 -75 292t-205 116q-127 0 -234 -123v-586q59 -166 244 -166z" />
    <glyph glyph-name="ydieresis" unicode="&#xff;" horiz-adv-x="974" 
d="M500 2l-338 762q-38 87 -73.5 117t-117.5 37v16h463v-16q-69 -4 -101 -20t-32.5 -44.5t16.5 -69.5l256 -606l211 533q44 107 23.5 150.5t-125.5 56.5v16h328v-16q-64 -9 -101 -47t-78 -138l-321 -792q-55 -135 -106 -212.5t-97.5 -106t-103.5 -28.5q-58 0 -94.5 37.5
t-36.5 85.5q0 44 25.5 75.5t72.5 31.5q40 0 67 -30t27 -73q0 -52 -35 -90q58 7 119 76t133 252zM717 1092q-44 0 -73.5 30t-29.5 74q0 43 29.5 75t71.5 32q44 0 73 -32t29 -77q0 -43 -28.5 -72.5t-71.5 -29.5zM381 1092q-44 0 -73 30t-29 74q0 43 29 75t71 32q44 0 73 -32
t29 -77q0 -43 -28.5 -72.5t-71.5 -29.5z" />
    <glyph glyph-name="Amacron" unicode="&#x100;" horiz-adv-x="1392" 
d="M1008 201l-129 354h-510l-84 -219q-25 -64 -37.5 -107.5t-15 -79t6.5 -57t33.5 -37.5t59 -24t88.5 -13v-18h-469v18q107 19 163.5 80.5t127.5 241.5l450 1133h29l463 -1233q27 -73 44 -108t46 -62.5t64 -37t98 -14.5v-18h-609v18q153 6 187.5 45.5t-6.5 137.5zM381 588
h487l-231 641h-6zM434 1634v60h539v-60h-539z" />
    <glyph glyph-name="amacron" unicode="&#x101;" horiz-adv-x="968" 
d="M336 -12q-119 0 -183.5 62.5t-64.5 152.5q0 136 127 205q60 33 140 56.5t178 43t112 22.5v140q0 130 -46.5 187.5t-152.5 57.5q-134 0 -190 -73q33 -15 52.5 -42.5t19.5 -58.5q0 -45 -28 -73.5t-73 -28.5t-70.5 29.5t-25.5 72.5q0 88 99.5 146.5t238.5 58.5
q332 0 332 -270v-508q0 -86 37 -111.5t129 9.5l6 -15q-94 -59 -174 -59q-74 0 -110.5 38.5t-37.5 125.5h-6q-148 -168 -309 -168zM418 59q65 0 123.5 37.5t103.5 96.5v309q-162 -29 -245.5 -62.5t-114.5 -79.5t-31 -124q0 -84 41.5 -130.5t122.5 -46.5zM215 1143v59h539v-59
h-539z" />
    <glyph glyph-name="Abreve" unicode="&#x102;" horiz-adv-x="1392" 
d="M1008 201l-129 354h-510l-84 -219q-25 -64 -37.5 -107.5t-15 -79t6.5 -57t33.5 -37.5t59 -24t88.5 -13v-18h-469v18q107 19 163.5 80.5t127.5 241.5l450 1133h29l463 -1233q27 -73 44 -108t46 -62.5t64 -37t98 -14.5v-18h-609v18q153 6 187.5 45.5t-6.5 137.5zM381 588
h487l-231 641h-6zM702 1583q-110 0 -182 84t-90 221h25q36 -101 95.5 -143.5t154.5 -42.5q96 0 153.5 42t93.5 144h23q-15 -136 -88.5 -220.5t-184.5 -84.5z" />
    <glyph glyph-name="abreve" unicode="&#x103;" horiz-adv-x="968" 
d="M336 -12q-119 0 -183.5 62.5t-64.5 152.5q0 136 127 205q60 33 140 56.5t178 43t112 22.5v140q0 130 -46.5 187.5t-152.5 57.5q-134 0 -190 -73q33 -15 52.5 -42.5t19.5 -58.5q0 -45 -28 -73.5t-73 -28.5t-70.5 29.5t-25.5 72.5q0 88 99.5 146.5t238.5 58.5
q332 0 332 -270v-508q0 -86 37 -111.5t129 9.5l6 -15q-94 -59 -174 -59q-74 0 -110.5 38.5t-37.5 125.5h-6q-148 -168 -309 -168zM418 59q65 0 123.5 37.5t103.5 96.5v309q-162 -29 -245.5 -62.5t-114.5 -79.5t-31 -124q0 -84 41.5 -130.5t122.5 -46.5zM483 1092
q-110 0 -182 84t-90 221h25q36 -102 95 -144.5t154 -42.5q96 0 154 42.5t94 144.5h23q-15 -136 -88.5 -220.5t-184.5 -84.5z" />
    <glyph glyph-name="Aogonek" unicode="&#x104;" horiz-adv-x="1392" 
d="M1120 -498q-82 0 -137 44.5t-55 117.5q0 64 43 124.5t162 156.5l67 55h-373v18q153 6 187.5 45.5t-6.5 137.5l-129 354h-510l-84 -219q-25 -64 -37.5 -107.5t-15 -79t6.5 -57t33.5 -37.5t59 -24t88.5 -13v-18h-469v18q107 19 163.5 80.5t127.5 241.5l450 1133h29
l463 -1233q27 -73 44 -108t46 -62.5t64 -37t98 -14.5v-18h-197l-59 -61q-66 -65 -95.5 -124t-29.5 -128q0 -64 35.5 -96.5t91.5 -32.5q54 0 131 34l10 -18q-101 -72 -203 -72zM381 588h487l-231 641h-6z" />
    <glyph glyph-name="aogonek" unicode="&#x105;" horiz-adv-x="968" 
d="M973 51q-13 -9 -38 -31t-57 -51.5t-42 -38.5q-73 -67 -105.5 -124.5t-32.5 -122.5q0 -62 34 -93.5t89 -31.5q60 0 133 34l11 -18q-101 -72 -203 -72q-81 0 -136 43.5t-55 114.5q0 66 49 127t177 158l75 57q-38 -10 -73 -10q-74 0 -110.5 38.5t-37.5 125.5h-6
q-148 -168 -309 -168q-119 0 -183.5 62.5t-64.5 152.5q0 136 127 205q60 33 140 56.5t178 43t112 22.5v140q0 130 -46.5 187.5t-152.5 57.5q-134 0 -190 -73q33 -15 52.5 -42.5t19.5 -58.5q0 -45 -28 -73.5t-73 -28.5t-70.5 29.5t-25.5 72.5q0 88 99.5 146.5t238.5 58.5
q332 0 332 -270v-508q0 -86 37 -111.5t129 9.5zM418 59q65 0 123.5 37.5t103.5 96.5v309q-162 -29 -245.5 -62.5t-114.5 -79.5t-31 -124q0 -84 41.5 -130.5t122.5 -46.5z" />
    <glyph glyph-name="Cacute" unicode="&#x106;" horiz-adv-x="1431" 
d="M743 1573l84 186q66 143 81 167q29 39 65 40q31 0 52.5 -21.5t21.5 -52.5q0 -28 -25 -59t-121 -125l-141 -135h-17zM786 -35q-145 0 -270.5 50.5t-217.5 142.5t-145 231t-53 307q0 161 56.5 303t153.5 243t230.5 159.5t282.5 58.5q195 0 365 -92l86 105h16v-463h-18
q-104 241 -206.5 331.5t-258.5 90.5q-81 0 -154 -25t-137.5 -80.5t-111.5 -138t-74 -205t-27 -272.5q0 -138 31.5 -253t84.5 -193t123.5 -131.5t146.5 -78t155 -24.5q320 0 495 356l23 -12q-36 -81 -85 -150t-118.5 -129.5t-165 -95.5t-207.5 -35z" />
    <glyph glyph-name="cacute" unicode="&#x107;" horiz-adv-x="925" 
d="M463 1081l84 187q66 143 80 166q29 40 65 41q31 0 52.5 -21.5t21.5 -52.5q0 -28 -25.5 -59.5t-119.5 -124.5l-142 -136h-16zM504 -20q-191 0 -310.5 134.5t-119.5 336.5q0 105 38 199t102 160.5t150 105t179 38.5q141 0 229 -62.5t88 -137.5q0 -47 -27.5 -77t-70.5 -30
q-44 0 -73.5 28.5t-29.5 72.5q0 72 66 108q-63 70 -182 70q-128 0 -214.5 -117t-86.5 -324q0 -192 90 -310t254 -118q85 0 147.5 37.5t134.5 122.5l19 -12q-36 -50 -70.5 -86.5t-81 -70t-105 -51t-126.5 -17.5z" />
    <glyph glyph-name="Cdotaccent" unicode="&#x10a;" horiz-adv-x="1431" 
d="M786 -35q-145 0 -270.5 50.5t-217.5 142.5t-145 231t-53 307q0 161 56.5 303t153.5 243t230.5 159.5t282.5 58.5q195 0 365 -92l86 105h16v-463h-18q-104 241 -206.5 331.5t-258.5 90.5q-81 0 -154 -25t-137.5 -80.5t-111.5 -138t-74 -205t-27 -272.5q0 -138 31.5 -253
t84.5 -193t123.5 -131.5t146.5 -78t155 -24.5q320 0 495 356l23 -12q-36 -81 -85 -150t-118.5 -129.5t-165 -95.5t-207.5 -35zM803 1573q-45 0 -75 31t-30 77t30.5 78.5t74.5 32.5q47 0 76.5 -31.5t29.5 -79.5q0 -45 -30.5 -76.5t-75.5 -31.5z" />
    <glyph glyph-name="cdotaccent" unicode="&#x10b;" horiz-adv-x="925" 
d="M504 -20q-191 0 -310.5 134.5t-119.5 336.5q0 105 38 199t102 160.5t150 105t179 38.5q141 0 229 -62.5t88 -137.5q0 -47 -27.5 -77t-70.5 -30q-44 0 -73.5 28.5t-29.5 72.5q0 72 66 108q-63 70 -182 70q-128 0 -214.5 -117t-86.5 -324q0 -192 90 -310t254 -118
q85 0 147.5 37.5t134.5 122.5l19 -12q-36 -50 -70.5 -86.5t-81 -70t-105 -51t-126.5 -17.5zM528 1092q-45 0 -74.5 31t-29.5 77t30 78.5t74 32.5q47 0 77 -31.5t30 -79.5q0 -45 -31 -76.5t-76 -31.5z" />
    <glyph glyph-name="Ccaron" unicode="&#x10c;" horiz-adv-x="1431" 
d="M786 1563l-247 366h24l240 -200l239 200h25l-262 -366h-19zM786 -35q-145 0 -270.5 50.5t-217.5 142.5t-145 231t-53 307q0 161 56.5 303t153.5 243t230.5 159.5t282.5 58.5q195 0 365 -92l86 105h16v-463h-18q-104 241 -206.5 331.5t-258.5 90.5q-81 0 -154 -25
t-137.5 -80.5t-111.5 -138t-74 -205t-27 -272.5q0 -138 31.5 -253t84.5 -193t123.5 -131.5t146.5 -78t155 -24.5q320 0 495 356l23 -12q-36 -81 -85 -150t-118.5 -129.5t-165 -95.5t-207.5 -35z" />
    <glyph glyph-name="ccaron" unicode="&#x10d;" horiz-adv-x="925" 
d="M512 1081l-248 367h25l239 -201l240 201h25l-263 -367h-18zM504 -20q-191 0 -310.5 134.5t-119.5 336.5q0 105 38 199t102 160.5t150 105t179 38.5q141 0 229 -62.5t88 -137.5q0 -47 -27.5 -77t-70.5 -30q-44 0 -73.5 28.5t-29.5 72.5q0 72 66 108q-63 70 -182 70
q-128 0 -214.5 -117t-86.5 -324q0 -192 90 -310t254 -118q85 0 147.5 37.5t134.5 122.5l19 -12q-36 -50 -70.5 -86.5t-81 -70t-105 -51t-126.5 -17.5z" />
    <glyph glyph-name="Dcaron" unicode="&#x10e;" horiz-adv-x="1536" 
d="M772 1573l-248 366h25l239 -200l240 200h25l-262 -366h-19zM55 0v18q104 3 156 18.5t69 42.5t17 81v1110q0 53 -17 80t-69 42.5t-156 18.5v16h613q184 0 331 -53t242 -146.5t145 -218.5t50 -272q0 -114 -28.5 -220t-89.5 -200.5t-148 -164.5t-212.5 -111t-275.5 -41h-627
zM471 31h156q229 0 358.5 64t188.5 213.5t59 416.5q0 160 -24.5 276t-70 192.5t-119.5 121.5t-162.5 63.5t-209.5 18.5h-176v-1366z" />
    <glyph glyph-name="dcaron" unicode="&#x10f;" horiz-adv-x="1087" 
d="M1124 1096l-4 219q0 18 -1 66t-1 63q0 58 24 81t56 23q34 0 55 -19t21 -56q0 -33 -31 -117l-102 -260h-17zM469 -16q-176 0 -284.5 133t-108.5 336q0 216 130.5 356.5t319.5 140.5q137 0 238 -69v462q0 38 -10.5 56.5t-46.5 29.5t-111 15v16l324 8v-1372q0 -44 34 -61
t123 -19v-16l-309 -8v133q-69 -69 -140 -105t-159 -36zM545 53q125 0 219 109v626q-73 134 -236 134q-129 0 -203.5 -125t-74.5 -336q0 -178 79.5 -293t215.5 -115z" />
    <glyph glyph-name="Dcroat" unicode="&#x110;" horiz-adv-x="1536" 
d="M55 0v18q104 3 156 18.5t69 42.5t17 81v565h-201v39h201v506q0 53 -17 80t-69 42.5t-156 18.5v16h613q184 0 331 -53t242 -146.5t145 -218.5t50 -272q0 -114 -28.5 -220t-89.5 -200.5t-148 -164.5t-212.5 -111t-275.5 -41h-627zM471 31h156q229 0 358.5 64t188.5 213.5
t59 416.5q0 160 -24.5 276t-70 192.5t-119.5 121.5t-162.5 63.5t-209.5 18.5h-176v-633h315v-39h-315v-694z" />
    <glyph glyph-name="dcroat" unicode="&#x111;" horiz-adv-x="1089" 
d="M469 -16q-176 0 -284.5 133t-108.5 336q0 216 130.5 356.5t319.5 140.5q137 0 238 -69v297h-305v34h305v131q0 38 -10.5 56.5t-46.5 29.5t-111 15v16l324 8v-256h143v-34h-143v-1082q0 -44 34 -61t123 -19v-16l-309 -8v133q-69 -69 -140 -105t-159 -36zM545 53
q125 0 219 109v626q-73 134 -236 134q-129 0 -203.5 -125t-74.5 -336q0 -178 79.5 -293t215.5 -115z" />
    <glyph glyph-name="Emacron" unicode="&#x112;" horiz-adv-x="1363" 
d="M55 0v18q104 3 156 18.5t69 42.5t17 81v1110q0 53 -17 80t-69 42.5t-156 18.5v16h1149l6 -419l-18 -2q-44 118 -77.5 187t-77 118t-94.5 67.5t-126 18.5h-346v-639h195q113 0 164.5 56t91.5 224h18v-594h-18q-40 169 -91.5 226t-164.5 57h-195v-696h381q82 0 137.5 19.5
t102.5 72t82.5 125.5t80.5 198l19 -2l-10 -444h-1209zM453 1634v60h538v-60h-538z" />
    <glyph glyph-name="emacron" unicode="&#x113;" horiz-adv-x="964" 
d="M512 -20q-191 0 -314.5 133t-123.5 342q0 134 59.5 249t161 182.5t219.5 67.5q125 0 215.5 -58t131.5 -152t34 -207h-651q-2 -23 -2 -66v-2q0 -191 86 -307.5t239 -116.5q97 0 169.5 49t144.5 144l18 -13q-153 -245 -387 -245zM506 926q-111 0 -179 -93t-81 -270h481
q20 363 -221 363zM244 1143v59h538v-59h-538z" />
    <glyph glyph-name="Ebreve" unicode="&#x114;" horiz-adv-x="1363" 
d="M55 0v18q104 3 156 18.5t69 42.5t17 81v1110q0 53 -17 80t-69 42.5t-156 18.5v16h1149l6 -419l-18 -2q-44 118 -77.5 187t-77 118t-94.5 67.5t-126 18.5h-346v-639h195q113 0 164.5 56t91.5 224h18v-594h-18q-40 169 -91.5 226t-164.5 57h-195v-696h381q82 0 137.5 19.5
t102.5 72t82.5 125.5t80.5 198l19 -2l-10 -444h-1209zM723 1583q-110 0 -182 84t-90 221h24q36 -101 95.5 -143.5t154.5 -42.5q96 0 154 42t94 144h22q-15 -136 -88 -220.5t-184 -84.5z" />
    <glyph glyph-name="ebreve" unicode="&#x115;" horiz-adv-x="964" 
d="M512 -20q-191 0 -314.5 133t-123.5 342q0 134 59.5 249t161 182.5t219.5 67.5q125 0 215.5 -58t131.5 -152t34 -207h-651q-2 -23 -2 -66v-2q0 -191 86 -307.5t239 -116.5q97 0 169.5 49t144.5 144l18 -13q-153 -245 -387 -245zM506 926q-111 0 -179 -93t-81 -270h481
q20 363 -221 363zM512 1092q-110 0 -182 84t-90 221h24q36 -102 95.5 -144.5t154.5 -42.5q96 0 154 42.5t94 144.5h22q-15 -136 -88 -220.5t-184 -84.5z" />
    <glyph glyph-name="Edotaccent" unicode="&#x116;" horiz-adv-x="1363" 
d="M55 0v18q104 3 156 18.5t69 42.5t17 81v1110q0 53 -17 80t-69 42.5t-156 18.5v16h1149l6 -419l-18 -2q-44 118 -77.5 187t-77 118t-94.5 67.5t-126 18.5h-346v-639h195q113 0 164.5 56t91.5 224h18v-594h-18q-40 169 -91.5 226t-164.5 57h-195v-696h381q82 0 137.5 19.5
t102.5 72t82.5 125.5t80.5 198l19 -2l-10 -444h-1209zM723 1583q-45 0 -75 31.5t-30 77.5t30.5 78t74.5 32q47 0 76.5 -31t29.5 -79q0 -45 -30.5 -77t-75.5 -32z" />
    <glyph glyph-name="edotaccent" unicode="&#x117;" horiz-adv-x="964" 
d="M512 -20q-191 0 -314.5 133t-123.5 342q0 134 59.5 249t161 182.5t219.5 67.5q125 0 215.5 -58t131.5 -152t34 -207h-651q-2 -23 -2 -66v-2q0 -191 86 -307.5t239 -116.5q97 0 169.5 49t144.5 144l18 -13q-153 -245 -387 -245zM506 926q-111 0 -179 -93t-81 -270h481
q20 363 -221 363zM512 1092q-45 0 -74.5 31t-29.5 77t30 78.5t74 32.5q47 0 76.5 -31.5t29.5 -79.5q0 -45 -30.5 -76.5t-75.5 -31.5z" />
    <glyph glyph-name="Eogonek" unicode="&#x118;" horiz-adv-x="1363" 
d="M55 0v18q104 3 156 18.5t69 42.5t17 81v1110q0 53 -17 80t-69 42.5t-156 18.5v16h1149l6 -419l-18 -2q-44 118 -77.5 187t-77 118t-94.5 67.5t-126 18.5h-346v-639h195q113 0 164.5 56t91.5 224h18v-594h-18q-40 169 -91.5 226t-164.5 57h-195v-696h381q82 0 137.5 19.5
t102.5 72t82.5 125.5t80.5 198l19 -2l-10 -444h-101l-59 -61q-66 -65 -95.5 -124t-29.5 -128q0 -64 35.5 -96.5t91.5 -32.5q54 0 131 34l10 -18q-101 -72 -203 -72q-82 0 -137 44.5t-55 117.5q0 64 43 124.5t162 156.5l67 55h-1069z" />
    <glyph glyph-name="eogonek" unicode="&#x119;" horiz-adv-x="964" 
d="M881 238l18 -13q-39 -62 -82 -108l-168 -187q-61 -68 -85.5 -125t-24.5 -118q0 -64 35.5 -96.5t91.5 -32.5q54 0 131 34l10 -18q-101 -72 -203 -72q-82 0 -137 44.5t-55 117.5q0 61 34.5 113t118.5 125l144 129q-87 -51 -197 -51q-191 0 -314.5 133t-123.5 342
q0 134 59.5 249t161 182.5t219.5 67.5q125 0 215.5 -58t131.5 -152t34 -207h-651q-2 -23 -2 -66v-2q0 -191 86 -307.5t239 -116.5q97 0 169.5 49t144.5 144zM506 926q-111 0 -179 -93t-81 -270h481q20 363 -221 363z" />
    <glyph glyph-name="Ecaron" unicode="&#x11a;" horiz-adv-x="1363" 
d="M707 1573l-248 366h24l240 -200l240 200h24l-262 -366h-18zM55 0v18q104 3 156 18.5t69 42.5t17 81v1110q0 53 -17 80t-69 42.5t-156 18.5v16h1149l6 -419l-18 -2q-44 118 -77.5 187t-77 118t-94.5 67.5t-126 18.5h-346v-639h195q113 0 164.5 56t91.5 224h18v-594h-18
q-40 169 -91.5 226t-164.5 57h-195v-696h381q82 0 137.5 19.5t102.5 72t82.5 125.5t80.5 198l19 -2l-10 -444h-1209z" />
    <glyph glyph-name="ecaron" unicode="&#x11b;" horiz-adv-x="964" 
d="M512 -20q-191 0 -314.5 133t-123.5 342q0 134 59.5 249t161 182.5t219.5 67.5q125 0 215.5 -58t131.5 -152t34 -207h-651q-2 -23 -2 -66v-2q0 -191 86 -307.5t239 -116.5q97 0 169.5 49t144.5 144l18 -13q-153 -245 -387 -245zM506 926q-111 0 -179 -93t-81 -270h481
q20 363 -221 363zM498 1081l-248 367h24l240 -201l240 201h24l-262 -367h-18z" />
    <glyph glyph-name="Gbreve" unicode="&#x11e;" horiz-adv-x="1527" 
d="M844 -35q-116 0 -224.5 30t-203 92t-165 150t-111 211t-40.5 267q0 162 61 304t161.5 237.5t230 150.5t266.5 55q202 0 381 -84l86 97h14v-451h-18q-103 234 -209 322t-268 88q-79 0 -150 -23t-136.5 -76.5t-112.5 -134t-75 -204t-28 -277.5q0 -153 31.5 -277.5
t83.5 -206.5t122 -137.5t144.5 -79.5t153.5 -24q186 0 305 90v391q0 54 -17 82.5t-70 45.5t-155 20v18h588v-18q-77 -4 -114 -19t-48.5 -42.5t-11.5 -84.5v-377q-102 -63 -230 -99t-241 -36zM797 1583q-110 0 -182.5 84t-90.5 221h25q36 -101 95.5 -143.5t154.5 -42.5
q96 0 154 42t94 144h22q-15 -136 -88 -220.5t-184 -84.5z" />
    <glyph glyph-name="gbreve" unicode="&#x11f;" horiz-adv-x="954" 
d="M494 -381q138 0 241 68.5t103 169.5q0 153 -248 153h-244q-166 -48 -166 -188q0 -203 314 -203zM475 350q100 0 147.5 71t47.5 214q0 131 -54.5 209t-158.5 78q-101 0 -148 -71.5t-47 -215.5q0 -285 213 -285zM467 946q104 0 188 -47q85 148 191 148q51 0 78.5 -26
t27.5 -69q0 -34 -20.5 -56t-52.5 -22q-36 0 -58.5 29t-21.5 76q-69 -8 -119 -92q149 -90 149 -248q0 -72 -32.5 -133t-85 -100t-116 -60.5t-128.5 -21.5q-75 0 -145 24q-121 -52 -121 -110q0 -76 184 -76h201q174 0 257 -59.5t83 -182.5q0 -62 -30.5 -120t-87.5 -104.5
t-149 -75t-204 -28.5q-180 0 -294 60.5t-114 152.5q0 73 67.5 130.5t184.5 80.5v7q-96 20 -138 56t-42 95q0 49 44 99t126 87q-84 37 -136.5 105.5t-52.5 165.5q0 94 56.5 168t139.5 110.5t171 36.5zM475 1092q-110 0 -182 84t-90 221h24q36 -102 95.5 -144.5t154.5 -42.5
q96 0 154 42.5t94 144.5h23q-15 -136 -88.5 -220.5t-184.5 -84.5z" />
    <glyph glyph-name="Gdotaccent" unicode="&#x120;" horiz-adv-x="1527" 
d="M844 -35q-116 0 -224.5 30t-203 92t-165 150t-111 211t-40.5 267q0 162 61 304t161.5 237.5t230 150.5t266.5 55q202 0 381 -84l86 97h14v-451h-18q-103 234 -209 322t-268 88q-79 0 -150 -23t-136.5 -76.5t-112.5 -134t-75 -204t-28 -277.5q0 -153 31.5 -277.5
t83.5 -206.5t122 -137.5t144.5 -79.5t153.5 -24q186 0 305 90v391q0 54 -17 82.5t-70 45.5t-155 20v18h588v-18q-77 -4 -114 -19t-48.5 -42.5t-11.5 -84.5v-377q-102 -63 -230 -99t-241 -36zM801 1583q-45 0 -75 31.5t-30 77.5t30.5 78t74.5 32q47 0 76.5 -31t29.5 -79
q0 -45 -30.5 -77t-75.5 -32z" />
    <glyph glyph-name="gdotaccent" unicode="&#x121;" horiz-adv-x="954" 
d="M494 -381q138 0 241 68.5t103 169.5q0 153 -248 153h-244q-166 -48 -166 -188q0 -203 314 -203zM475 350q100 0 147.5 71t47.5 214q0 131 -54.5 209t-158.5 78q-101 0 -148 -71.5t-47 -215.5q0 -285 213 -285zM467 946q104 0 188 -47q85 148 191 148q51 0 78.5 -26
t27.5 -69q0 -34 -20.5 -56t-52.5 -22q-36 0 -58.5 29t-21.5 76q-69 -8 -119 -92q149 -90 149 -248q0 -72 -32.5 -133t-85 -100t-116 -60.5t-128.5 -21.5q-75 0 -145 24q-121 -52 -121 -110q0 -76 184 -76h201q174 0 257 -59.5t83 -182.5q0 -62 -30.5 -120t-87.5 -104.5
t-149 -75t-204 -28.5q-180 0 -294 60.5t-114 152.5q0 73 67.5 130.5t184.5 80.5v7q-96 20 -138 56t-42 95q0 49 44 99t126 87q-84 37 -136.5 105.5t-52.5 165.5q0 94 56.5 168t139.5 110.5t171 36.5zM475 1092q-45 0 -74.5 31t-29.5 77t30 78.5t74 32.5q47 0 77 -31.5
t30 -79.5q0 -45 -31 -76.5t-76 -31.5z" />
    <glyph glyph-name="Gcommaaccent" unicode="&#x122;" horiz-adv-x="1527" 
d="M694 -537l-10 19q148 93 160 213l-8 2q-16 -16 -50 -16q-37 0 -62.5 24t-25.5 62q0 42 27.5 71t69.5 29q52 0 83 -36.5t31 -96.5q0 -82 -57.5 -152t-157.5 -119zM844 -35q-116 0 -224.5 30t-203 92t-165 150t-111 211t-40.5 267q0 162 61 304t161.5 237.5t230 150.5
t266.5 55q202 0 381 -84l86 97h14v-451h-18q-103 234 -209 322t-268 88q-79 0 -150 -23t-136.5 -76.5t-112.5 -134t-75 -204t-28 -277.5q0 -153 31.5 -277.5t83.5 -206.5t122 -137.5t144.5 -79.5t153.5 -24q186 0 305 90v391q0 54 -17 82.5t-70 45.5t-155 20v18h588v-18
q-77 -4 -114 -19t-48.5 -42.5t-11.5 -84.5v-377q-102 -63 -230 -99t-241 -36z" />
    <glyph glyph-name="gcommaaccent" unicode="&#x123;" horiz-adv-x="954" 
d="M578 1530l10 -19q-148 -93 -160 -213l8 -2q17 17 49 17q37 0 62.5 -24t25.5 -62q0 -42 -27 -71.5t-69 -29.5q-52 0 -83.5 37t-31.5 97q0 82 58 151.5t158 118.5zM494 -381q138 0 241 68.5t103 169.5q0 153 -248 153h-244q-166 -48 -166 -188q0 -203 314 -203zM475 350
q100 0 147.5 71t47.5 214q0 131 -54.5 209t-158.5 78q-101 0 -148 -71.5t-47 -215.5q0 -285 213 -285zM467 946q104 0 188 -47q85 148 191 148q51 0 78.5 -26t27.5 -69q0 -34 -20.5 -56t-52.5 -22q-36 0 -58.5 29t-21.5 76q-69 -8 -119 -92q149 -90 149 -248
q0 -72 -32.5 -133t-85 -100t-116 -60.5t-128.5 -21.5q-75 0 -145 24q-121 -52 -121 -110q0 -76 184 -76h201q174 0 257 -59.5t83 -182.5q0 -62 -30.5 -120t-87.5 -104.5t-149 -75t-204 -28.5q-180 0 -294 60.5t-114 152.5q0 73 67.5 130.5t184.5 80.5v7q-96 20 -138 56
t-42 95q0 49 44 99t126 87q-84 37 -136.5 105.5t-52.5 165.5q0 94 56.5 168t139.5 110.5t171 36.5z" />
    <glyph glyph-name="Hbar" unicode="&#x126;" horiz-adv-x="1644" 
d="M55 0v18q104 3 156 18.5t69 42.5t17 81v895h-195v37h195v178q0 54 -17 81t-69 42t-156 18v16h641v-16q-77 -2 -121.5 -9.5t-68 -25.5t-29.5 -40t-6 -64v-180h703v180q0 42 -6 64t-29 40t-67.5 25.5t-121.5 9.5v16h639v-16q-103 -3 -155 -18t-69 -42.5t-17 -80.5v-178h200
v-37h-200v-895q0 -53 17 -80.5t69 -43t155 -18.5v-18h-639v18q102 3 150 18t61 41t13 81v567h-703v-567q0 -55 13.5 -81t61.5 -41t150 -18v-18h-641zM471 758h703v297h-703v-297z" />
    <glyph glyph-name="hbar" unicode="&#x127;" horiz-adv-x="1085" 
d="M14 0v18q92 2 123 16.5t31 65.5v1078h-137v34h137v131q0 38 -11 56.5t-47 29.5t-112 15v16l326 8v-256h311v-34h-311v-471q69 113 158.5 178t191.5 65q119 0 183.5 -72t64.5 -208v-570q0 -51 30.5 -65.5t120.5 -16.5v-18h-444v18q83 2 110 16.5t27 65.5v523
q0 122 -42 183.5t-138 61.5q-75 0 -145 -57.5t-117 -151.5v-559q0 -51 27.5 -65.5t109.5 -16.5v-18h-447z" />
    <glyph glyph-name="Imacron" unicode="&#x12a;" horiz-adv-x="794" 
d="M61 0v18q108 3 161.5 18t71 42.5t17.5 81.5v1110q0 53 -17.5 80.5t-71.5 42.5t-161 18v16h672v-16q-107 -3 -161 -18t-71.5 -42.5t-17.5 -80.5v-1110q0 -54 17.5 -81.5t71 -42.5t161.5 -18v-18h-672zM127 1634v60h539v-60h-539z" />
    <glyph glyph-name="imacron" unicode="&#x12b;" horiz-adv-x="544" 
d="M8 1151v59h514v-59h-514zM45 0v18q94 2 126 17t32 65v715q0 34 -11 53t-46 31t-101 16v17l313 10v-842q0 -51 31 -65.5t125 -16.5v-18h-469z" />
    <glyph glyph-name="Ibreve" unicode="&#x12c;" horiz-adv-x="794" 
d="M61 0v18q108 3 161.5 18t71 42.5t17.5 81.5v1110q0 53 -17.5 80.5t-71.5 42.5t-161 18v16h672v-16q-107 -3 -161 -18t-71.5 -42.5t-17.5 -80.5v-1110q0 -54 17.5 -81.5t71 -42.5t161.5 -18v-18h-672zM395 1583q-110 0 -182 84t-90 221h24q36 -101 95.5 -143.5
t154.5 -42.5q96 0 154 42t94 144h23q-15 -136 -88.5 -220.5t-184.5 -84.5z" />
    <glyph glyph-name="ibreve" unicode="&#x12d;" horiz-adv-x="544" 
d="M45 0v18q94 2 126 17t32 65v715q0 34 -11 53t-46 31t-101 16v17l313 10v-842q0 -51 31 -65.5t125 -16.5v-18h-469zM266 1092q-110 0 -182 84t-90 221h24q36 -102 95.5 -144.5t154.5 -42.5q96 0 154 42.5t94 144.5h23q-15 -136 -88.5 -220.5t-184.5 -84.5z" />
    <glyph glyph-name="Iogonek" unicode="&#x12e;" horiz-adv-x="794" 
d="M61 0v18q108 3 161.5 18t71 42.5t17.5 81.5v1110q0 53 -17.5 80.5t-71.5 42.5t-161 18v16h672v-16q-107 -3 -161 -18t-71.5 -42.5t-17.5 -80.5v-1110q0 -54 17.5 -81.5t71 -42.5t161.5 -18v-18h-250l-59 -61q-66 -65 -95.5 -124t-29.5 -128q0 -64 35.5 -96.5t91.5 -32.5
q54 0 131 34l10 -18q-101 -72 -202 -72q-82 0 -137.5 44.5t-55.5 117.5q0 64 43 124.5t162 156.5l67 55h-383z" />
    <glyph glyph-name="iogonek" unicode="&#x12f;" horiz-adv-x="544" 
d="M45 0v18q94 2 126 17t32 65v715q0 34 -11 53t-46 31t-101 16v17l313 10v-842q0 -51 31 -65.5t125 -16.5v-18h-137l-60 -61q-66 -64 -95 -123.5t-29 -128.5q0 -64 35 -96.5t91 -32.5q55 0 132 34l10 -18q-101 -72 -203 -72q-82 0 -137 44.5t-55 117.5q0 65 42.5 125
t161.5 156l68 55h-293zM268 1141q-45 0 -74.5 31t-29.5 77q0 48 29.5 80.5t74.5 32.5q46 0 76.5 -32t30.5 -79q0 -46 -31 -78t-76 -32z" />
    <glyph glyph-name="Idotaccent" unicode="&#x130;" horiz-adv-x="794" 
d="M61 0v18q108 3 161.5 18t71 42.5t17.5 81.5v1110q0 53 -17.5 80.5t-71.5 42.5t-161 18v16h672v-16q-107 -3 -161 -18t-71.5 -42.5t-17.5 -80.5v-1110q0 -54 17.5 -81.5t71 -42.5t161.5 -18v-18h-672zM395 1583q-45 0 -74.5 31.5t-29.5 77.5t30 78t74 32q47 0 77 -31
t30 -79q0 -45 -31 -77t-76 -32z" />
    <glyph glyph-name="dotlessi" unicode="&#x131;" horiz-adv-x="544" 
d="M45 0v18q94 2 126 17t32 65v715q0 34 -11 53t-46 31t-101 16v17l313 10v-842q0 -51 31 -65.5t125 -16.5v-18h-469z" />
    <glyph glyph-name="Kcommaaccent" unicode="&#x136;" horiz-adv-x="1484" 
d="M627 -537l-11 19q148 93 160 213l-8 2q-16 -16 -49 -16q-37 0 -62.5 24t-25.5 62q0 42 27 71t69 29q52 0 83.5 -36.5t31.5 -96.5q0 -82 -57.5 -152t-157.5 -119zM471 645l512 510q121 120 107.5 179t-177.5 77v16h545v-16q-130 -20 -205 -68t-245 -217l-271 -266
l432 -594q113 -154 165 -192.5t169 -55.5v-18h-592v18q127 7 148.5 48.5t-45.5 130.5l-393 546l-150 -147v-438q0 -55 13 -81t58.5 -41t139.5 -18v-18h-627v18q104 3 156 18.5t69 42.5t17 81v1110q0 54 -17 81t-69 42t-156 18v16h641v-16q-77 -2 -121.5 -9.5t-68 -25.5
t-29.5 -40t-6 -64v-627z" />
    <glyph glyph-name="kcommaaccent" unicode="&#x137;" horiz-adv-x="1015" 
d="M389 -537l-10 19q148 93 160 213l-9 2q-16 -16 -49 -16q-37 0 -62.5 24t-25.5 62q0 42 27 71t69 29q52 0 83.5 -36.5t31.5 -96.5q0 -82 -57.5 -152t-157.5 -119zM324 385v-285q0 -50 25.5 -65t96.5 -17v-18h-432v18q92 2 123 16.5t31 65.5v1243q0 38 -11 56.5t-47 29.5
t-112 15v16l326 8v-1044l323 326q75 73 60.5 115.5t-127.5 52.5v16h405v-16q-82 -9 -140 -44t-165 -141l-145 -141l311 -422q70 -95 103 -120t104 -32v-18h-441v18q89 7 104 36t-28 83l-254 357z" />
    <glyph glyph-name="Lacute" unicode="&#x139;" horiz-adv-x="1245" 
d="M401 1573l84 186q66 143 81 167q29 39 65 40q31 0 52.5 -21.5t21.5 -52.5q0 -28 -25 -59t-121 -125l-141 -135h-17zM55 0v18q104 3 156 18.5t69 42.5t17 81v1110q0 53 -17 80t-69 42.5t-156 18.5v16h654v-16q-81 -2 -127.5 -9.5t-71.5 -25.5t-32 -41t-7 -65v-1239h295
q109 0 176.5 33.5t122 118t117.5 253.5l18 -2l-20 -434h-1125z" />
    <glyph glyph-name="lacute" unicode="&#x13a;" horiz-adv-x="532" 
d="M207 1585l84 187q65 143 80 166q29 39 65 40q31 0 52.5 -21t21.5 -52q0 -28 -25.5 -60.5t-119.5 -124.5l-142 -135h-16zM37 0v18q93 2 123 16.5t30 65.5v1243q0 38 -10.5 56.5t-46 29.5t-110.5 15v16l323 8v-1368q0 -51 31 -65.5t125 -16.5v-18h-465z" />
    <glyph glyph-name="Lcommaaccent" unicode="&#x13b;" horiz-adv-x="1245" 
d="M582 -537l-11 19q148 93 160 213l-8 2q-16 -16 -49 -16q-37 0 -62.5 24t-25.5 62q0 42 27 71t69 29q52 0 83.5 -36.5t31.5 -96.5q0 -82 -57.5 -152t-157.5 -119zM55 0v18q104 3 156 18.5t69 42.5t17 81v1110q0 53 -17 80t-69 42.5t-156 18.5v16h654v-16
q-81 -2 -127.5 -9.5t-71.5 -25.5t-32 -41t-7 -65v-1239h295q109 0 176.5 33.5t122 118t117.5 253.5l18 -2l-20 -434h-1125z" />
    <glyph glyph-name="lcommaaccent" unicode="&#x13c;" horiz-adv-x="532" 
d="M162 -537l-10 19q71 44 112 99.5t47 113.5l-8 2q-16 -16 -49 -16q-37 0 -62.5 24t-25.5 62q0 42 27 71t69 29q52 0 83.5 -36.5t31.5 -96.5q0 -82 -57.5 -152t-157.5 -119zM37 0v18q93 2 123 16.5t30 65.5v1243q0 38 -10.5 56.5t-46 29.5t-110.5 15v16l323 8v-1368
q0 -51 31 -65.5t125 -16.5v-18h-465z" />
    <glyph glyph-name="Lcaron" unicode="&#x13d;" horiz-adv-x="1245" 
d="M864 1055l-4 219q0 18 -1 66t-1 63q0 58 24 81t56 23q34 0 55 -19t21 -56q0 -33 -31 -117l-102 -260h-17zM55 0v18q104 3 156 18.5t69 42.5t17 81v1110q0 53 -17 80t-69 42.5t-156 18.5v16h654v-16q-81 -2 -127.5 -9.5t-71.5 -25.5t-32 -41t-7 -65v-1239h295
q109 0 176.5 33.5t122 118t117.5 253.5l18 -2l-20 -434h-1125z" />
    <glyph glyph-name="lcaron" unicode="&#x13e;" horiz-adv-x="532" 
d="M551 1096l-4 219q0 18 -1 66t-1 63q0 58 24 81t56 23q34 0 54.5 -19t20.5 -56q0 -35 -30 -117l-103 -260h-16zM37 0v18q93 2 123 16.5t30 65.5v1243q0 38 -10.5 56.5t-46 29.5t-110.5 15v16l323 8v-1368q0 -51 31 -65.5t125 -16.5v-18h-465z" />
    <glyph glyph-name="Ldot" unicode="&#x13f;" horiz-adv-x="1245" 
d="M55 0v18q104 3 156 18.5t69 42.5t17 81v1110q0 53 -17 80t-69 42.5t-156 18.5v16h654v-16q-81 -2 -127.5 -9.5t-71.5 -25.5t-32 -41t-7 -65v-1239h295q109 0 176.5 33.5t122 118t117.5 253.5l18 -2l-20 -434h-1125zM997 641q-45 0 -74.5 31.5t-29.5 77.5t30 78t74 32
q47 0 77 -31t30 -79q0 -45 -31 -77t-76 -32z" />
    <glyph glyph-name="ldot" unicode="&#x140;" horiz-adv-x="681" 
d="M610 590q-47 0 -76.5 31t-29.5 79q0 45 30.5 78t75.5 33t75 -32.5t30 -78.5t-30.5 -78t-74.5 -32zM37 0v18q93 2 123 16.5t30 65.5v1243q0 38 -10.5 56.5t-46 29.5t-110.5 15v16l323 8v-1368q0 -51 31 -65.5t125 -16.5v-18h-465z" />
    <glyph glyph-name="Lslash" unicode="&#x141;" horiz-adv-x="1245" 
d="M55 0v18q104 3 156 18.5t69 42.5t17 81v499l-178 -47l-13 39l191 49v570q0 53 -17 80t-69 42.5t-156 18.5v16h654v-16q-81 -2 -127.5 -9.5t-71.5 -25.5t-32 -41t-7 -65v-525l301 80l10 -37l-311 -83v-674h295q109 0 176.5 33.5t122 118t117.5 253.5l18 -2l-20 -434h-1125
z" />
    <glyph glyph-name="lslash" unicode="&#x142;" horiz-adv-x="610" 
d="M94 0v18q93 2 123.5 16.5t30.5 65.5v580l-191 -51l-8 33l199 53v628q0 38 -10.5 56.5t-46.5 29.5t-111 15v16l323 8v-712l203 55l8 -33l-211 -57v-621q0 -51 31 -65.5t125 -16.5v-18h-465z" />
    <glyph glyph-name="Nacute" unicode="&#x143;" 
d="M768 1552l84 187q66 143 80 166q29 40 65 41q31 0 52.5 -21.5t21.5 -52.5q0 -28 -25.5 -59.5t-119.5 -124.5l-142 -136h-16zM1296 -35l-954 1288h-4v-997q0 -63 8.5 -100t36.5 -66.5t76.5 -45t132.5 -26.5v-18h-539v18q105 15 157.5 41t71.5 70t19 127v954
q0 90 -55.5 141t-192.5 60v16h385l848 -1148h2v895q0 82 -20.5 126.5t-75.5 70t-164 40.5v16h533v-16q-78 -12 -123 -27.5t-71 -44.5t-34 -66t-8 -99v-1209h-29z" />
    <glyph glyph-name="nacute" unicode="&#x144;" horiz-adv-x="1105" 
d="M512 1081l84 187q66 143 80 166q29 40 65 41q31 0 52.5 -21.5t21.5 -52.5q0 -28 -25.5 -59.5t-119.5 -124.5l-142 -136h-16zM35 0v18q94 2 126 17t32 65v715q0 34 -11 53t-46 31t-101 16v17l311 10v-237q69 114 159.5 179.5t192.5 65.5q119 0 183.5 -72t64.5 -208v-570
q0 -50 30.5 -65t121.5 -17v-18h-445v18q83 2 110.5 16.5t27.5 65.5v527q0 120 -42 180.5t-139 60.5q-75 0 -145 -57.5t-117 -151.5v-559q0 -51 27.5 -65.5t109.5 -16.5v-18h-450z" />
    <glyph glyph-name="Ncommaaccent" unicode="&#x145;" 
d="M700 -537l-10 19q148 93 160 213l-8 2q-16 -16 -49 -16q-37 0 -62.5 24t-25.5 62q0 42 27 71t69 29q52 0 83 -36.5t31 -96.5q0 -82 -57.5 -152t-157.5 -119zM1296 -35l-954 1288h-4v-997q0 -63 8.5 -100t36.5 -66.5t76.5 -45t132.5 -26.5v-18h-539v18q105 15 157.5 41
t71.5 70t19 127v954q0 90 -55.5 141t-192.5 60v16h385l848 -1148h2v895q0 82 -20.5 126.5t-75.5 70t-164 40.5v16h533v-16q-78 -12 -123 -27.5t-71 -44.5t-34 -66t-8 -99v-1209h-29z" />
    <glyph glyph-name="ncommaaccent" unicode="&#x146;" horiz-adv-x="1105" 
d="M453 -537l-11 19q148 93 160 213l-8 2q-16 -16 -49 -16q-37 0 -62.5 24t-25.5 62q0 42 27 71t69 29q52 0 83.5 -36.5t31.5 -96.5q0 -82 -57.5 -152t-157.5 -119zM35 0v18q94 2 126 17t32 65v715q0 34 -11 53t-46 31t-101 16v17l311 10v-237q69 114 159.5 179.5
t192.5 65.5q119 0 183.5 -72t64.5 -208v-570q0 -50 30.5 -65t121.5 -17v-18h-445v18q83 2 110.5 16.5t27.5 65.5v527q0 120 -42 180.5t-139 60.5q-75 0 -145 -57.5t-117 -151.5v-559q0 -51 27.5 -65.5t109.5 -16.5v-18h-450z" />
    <glyph glyph-name="Ncaron" unicode="&#x147;" 
d="M799 1552l-248 367h24l240 -201l240 201h24l-262 -367h-18zM1296 -35l-954 1288h-4v-997q0 -63 8.5 -100t36.5 -66.5t76.5 -45t132.5 -26.5v-18h-539v18q105 15 157.5 41t71.5 70t19 127v954q0 90 -55.5 141t-192.5 60v16h385l848 -1148h2v895q0 82 -20.5 126.5t-75.5 70
t-164 40.5v16h533v-16q-78 -12 -123 -27.5t-71 -44.5t-34 -66t-8 -99v-1209h-29z" />
    <glyph glyph-name="ncaron" unicode="&#x148;" horiz-adv-x="1105" 
d="M553 1081l-248 367h25l239 -201l240 201h25l-263 -367h-18zM35 0v18q94 2 126 17t32 65v715q0 34 -11 53t-46 31t-101 16v17l311 10v-237q69 114 159.5 179.5t192.5 65.5q119 0 183.5 -72t64.5 -208v-570q0 -50 30.5 -65t121.5 -17v-18h-445v18q83 2 110.5 16.5
t27.5 65.5v527q0 120 -42 180.5t-139 60.5q-75 0 -145 -57.5t-117 -151.5v-559q0 -51 27.5 -65.5t109.5 -16.5v-18h-450z" />
    <glyph glyph-name="Omacron" unicode="&#x14c;" horiz-adv-x="1552" 
d="M506 1634v60h538v-60h-538zM776 -35q-132 0 -254 53.5t-216 148t-150 236.5t-56 308q0 111 26.5 213t73.5 183.5t111.5 148.5t139.5 112t158.5 69.5t168.5 24.5q131 0 253 -53t215.5 -147.5t149.5 -236.5t56 -308q0 -132 -37.5 -251t-103 -209t-151 -156.5t-184.5 -101
t-200 -34.5zM782 -6q83 0 151 21t128 72.5t100.5 132.5t64 205.5t23.5 287.5q0 164 -24.5 289.5t-66.5 206t-104 132t-131 72.5t-153 21q-83 0 -151 -21t-128 -72t-100.5 -132t-64 -206t-23.5 -288t24.5 -288.5t66.5 -206.5t104 -132.5t131 -72.5t153 -21z" />
    <glyph glyph-name="omacron" unicode="&#x14d;" horiz-adv-x="1062" 
d="M262 1143v59h539v-59h-539zM532 -20q-92 0 -175.5 36t-146 98.5t-99.5 154t-37 196.5q0 104 39 196t102.5 155.5t146.5 100.5t170 37q91 0 174.5 -35.5t146.5 -98t100.5 -153.5t37.5 -196q0 -104 -39 -196.5t-103 -156.5t-147 -101t-170 -37zM541 8q132 0 203 108t71 351
q0 241 -78.5 351t-214.5 110q-132 0 -203 -108t-71 -351q0 -241 79 -351t214 -110z" />
    <glyph glyph-name="Obreve" unicode="&#x14e;" horiz-adv-x="1552" 
d="M776 -35q-132 0 -254 53.5t-216 148t-150 236.5t-56 308q0 111 26.5 213t73.5 183.5t111.5 148.5t139.5 112t158.5 69.5t168.5 24.5q131 0 253 -53t215.5 -147.5t149.5 -236.5t56 -308q0 -132 -37.5 -251t-103 -209t-151 -156.5t-184.5 -101t-200 -34.5zM782 -6
q83 0 151 21t128 72.5t100.5 132.5t64 205.5t23.5 287.5q0 164 -24.5 289.5t-66.5 206t-104 132t-131 72.5t-153 21q-83 0 -151 -21t-128 -72t-100.5 -132t-64 -206t-23.5 -288t24.5 -288.5t66.5 -206.5t104 -132.5t131 -72.5t153 -21zM776 1583q-110 0 -182 84t-90 221h24
q36 -101 95.5 -143.5t154.5 -42.5q96 0 154 42t94 144h23q-15 -136 -88.5 -220.5t-184.5 -84.5z" />
    <glyph glyph-name="obreve" unicode="&#x14f;" horiz-adv-x="1062" 
d="M532 -20q-92 0 -175.5 36t-146 98.5t-99.5 154t-37 196.5q0 104 39 196t102.5 155.5t146.5 100.5t170 37q91 0 174.5 -35.5t146.5 -98t100.5 -153.5t37.5 -196q0 -104 -39 -196.5t-103 -156.5t-147 -101t-170 -37zM541 8q132 0 203 108t71 351q0 241 -78.5 351
t-214.5 110q-132 0 -203 -108t-71 -351q0 -241 79 -351t214 -110zM530 1092q-110 0 -182 84t-90 221h25q36 -102 95 -144.5t154 -42.5q96 0 154 42.5t94 144.5h23q-15 -136 -88.5 -220.5t-184.5 -84.5z" />
    <glyph glyph-name="Ohungarumlaut" unicode="&#x150;" horiz-adv-x="1552" 
d="M889 1573l90 186q73 144 86 164q33 41 68 43q32 0 51.5 -20t19.5 -52q0 -28 -26.5 -60t-124.5 -126l-148 -135h-16zM598 1573l92 186q71 144 88 168q28 39 66 39q31 0 51 -20t20 -52q0 -28 -28 -61.5t-125 -124.5l-146 -135h-18zM776 -35q-132 0 -254 53.5t-216 148
t-150 236.5t-56 308q0 111 26.5 213t73.5 183.5t111.5 148.5t139.5 112t158.5 69.5t168.5 24.5q131 0 253 -53t215.5 -147.5t149.5 -236.5t56 -308q0 -132 -37.5 -251t-103 -209t-151 -156.5t-184.5 -101t-200 -34.5zM782 -6q83 0 151 21t128 72.5t100.5 132.5t64 205.5
t23.5 287.5q0 164 -24.5 289.5t-66.5 206t-104 132t-131 72.5t-153 21q-83 0 -151 -21t-128 -72t-100.5 -132t-64 -206t-23.5 -288t24.5 -288.5t66.5 -206.5t104 -132.5t131 -72.5t153 -21z" />
    <glyph glyph-name="ohungarumlaut" unicode="&#x151;" horiz-adv-x="1062" 
d="M643 1081l90 187q73 144 86 164q33 41 68 43q32 0 51.5 -20t19.5 -52q0 -28 -26.5 -60t-124.5 -126l-148 -136h-16zM352 1081l92 187q71 144 88 168q28 39 66 39q31 0 51.5 -20t20.5 -52q0 -28 -28 -61t-126 -125l-145 -136h-19zM532 -20q-92 0 -175.5 36t-146 98.5
t-99.5 154t-37 196.5q0 104 39 196t102.5 155.5t146.5 100.5t170 37q91 0 174.5 -35.5t146.5 -98t100.5 -153.5t37.5 -196q0 -104 -39 -196.5t-103 -156.5t-147 -101t-170 -37zM541 8q132 0 203 108t71 351q0 241 -78.5 351t-214.5 110q-132 0 -203 -108t-71 -351
q0 -241 79 -351t214 -110z" />
    <glyph glyph-name="OE" unicode="&#x152;" horiz-adv-x="2138" 
d="M874 0q-184 0 -331 53t-242 146.5t-145 218.5t-50 272q0 114 28.5 220t90 200.5t149.5 164.5t215.5 111t280.5 41h1108l7 -419l-19 -2q-44 118 -77.5 187t-77 118t-94.5 67.5t-126 18.5h-346v-639h195q111 0 164 56.5t92 223.5h18v-594h-18q-39 168 -92 225.5t-164 57.5
h-195v-696h379q82 0 138.5 19.5t103.5 72t83 125.5t81 198l18 -2l-10 -444h-1164zM868 33q118 0 160.5 28t42.5 103v1102q0 75 -43 104t-149 29q-120 0 -209 -21t-159 -70t-113.5 -129t-66 -197.5t-22.5 -276.5q0 -160 26 -278t71.5 -193t117 -120.5t153.5 -63t191 -17.5z
" />
    <glyph glyph-name="oe" unicode="&#x153;" horiz-adv-x="1710" 
d="M1255 -20q-115 0 -207.5 53.5t-148.5 148.5q-65 -93 -163.5 -147.5t-203.5 -54.5q-92 0 -175.5 36t-146 98.5t-99.5 154t-37 196.5q0 104 39 196t102.5 155.5t146.5 100.5t170 37q114 0 213 -54t162 -152q60 95 152.5 150.5t200.5 55.5q186 0 287.5 -121t90.5 -296h-649
q-2 -23 -2 -66v-2q0 -191 86.5 -307.5t239.5 -116.5q96 0 168.5 49.5t142.5 143.5l18 -13q-150 -245 -387 -245zM815 467q0 241 -78.5 351t-214.5 110q-132 0 -203 -108t-71 -351q0 -241 79 -351t214 -110q132 0 203 108t71 351zM1249 926q-110 0 -177.5 -93t-80.5 -270h479
q23 363 -221 363z" />
    <glyph glyph-name="Racute" unicode="&#x154;" horiz-adv-x="1398" 
d="M664 1573l84 186q66 143 80 166q29 40 65 41q31 0 52.5 -21.5t21.5 -52.5q0 -28 -25 -59t-121 -125l-141 -135h-16zM471 729h195q114 0 188 21.5t114.5 67.5t56 107t15.5 152q0 167 -89.5 243.5t-309.5 76.5h-170v-668zM471 698v-540q0 -54 15 -80.5t64.5 -41.5
t151.5 -18v-18h-647v18q104 3 156 18.5t69 42.5t17 81v1110q0 53 -17 80t-69 42.5t-156 18.5v16h596q280 0 434 -93t154 -255q0 -295 -430 -362v-6q88 -9 151.5 -29t105.5 -48.5t69 -73t41 -94t24 -120.5l12 -88q13 -77 27 -118.5t44 -69.5t73 -36.5t119 -8.5v-17
q-102 -18 -211 -18q-67 0 -110 15.5t-69 52.5t-39 83t-22 121l-23 184q-10 80 -27.5 126.5t-55.5 76t-94.5 39.5t-151.5 10h-201z" />
    <glyph glyph-name="racute" unicode="&#x155;" horiz-adv-x="796" 
d="M369 1081l84 187q66 143 80 166q29 40 65 41q31 0 52.5 -21.5t21.5 -52.5q0 -28 -25 -59t-121 -125l-141 -136h-16zM35 0v18q94 2 126 17t32 65v715q0 34 -11 53t-46 31t-101 16v17l311 10v-231q50 105 125 173t154 68q67 0 103 -35.5t36 -89.5q0 -45 -29 -76.5
t-71 -31.5q-46 0 -75.5 28.5t-29.5 73.5q0 38 21 68q-66 -9 -121.5 -63t-110.5 -154v-572q0 -51 35.5 -65.5t144.5 -16.5v-18h-493z" />
    <glyph glyph-name="Rcommaaccent" unicode="&#x156;" horiz-adv-x="1398" 
d="M627 -537l-11 19q148 93 160 213l-8 2q-16 -16 -49 -16q-37 0 -62.5 24t-25.5 62q0 42 27 71t69 29q52 0 83.5 -36.5t31.5 -96.5q0 -82 -57.5 -152t-157.5 -119zM471 729h195q114 0 188 21.5t114.5 67.5t56 107t15.5 152q0 167 -89.5 243.5t-309.5 76.5h-170v-668z
M471 698v-540q0 -54 15 -80.5t64.5 -41.5t151.5 -18v-18h-647v18q104 3 156 18.5t69 42.5t17 81v1110q0 53 -17 80t-69 42.5t-156 18.5v16h596q280 0 434 -93t154 -255q0 -295 -430 -362v-6q88 -9 151.5 -29t105.5 -48.5t69 -73t41 -94t24 -120.5l12 -88q13 -77 27 -118.5
t44 -69.5t73 -36.5t119 -8.5v-17q-102 -18 -211 -18q-67 0 -110 15.5t-69 52.5t-39 83t-22 121l-23 184q-10 80 -27.5 126.5t-55.5 76t-94.5 39.5t-151.5 10h-201z" />
    <glyph glyph-name="rcommaaccent" unicode="&#x157;" horiz-adv-x="796" 
d="M168 -537l-10 19q71 44 112 99.5t47 113.5l-8 2q-16 -16 -49 -16q-37 0 -62.5 24t-25.5 62q0 42 27 71t69 29q52 0 83.5 -36.5t31.5 -96.5q0 -82 -57.5 -152t-157.5 -119zM35 0v18q94 2 126 17t32 65v715q0 34 -11 53t-46 31t-101 16v17l311 10v-231q50 105 125 173
t154 68q67 0 103 -35.5t36 -89.5q0 -45 -29 -76.5t-71 -31.5q-46 0 -75.5 28.5t-29.5 73.5q0 38 21 68q-66 -9 -121.5 -63t-110.5 -154v-572q0 -51 35.5 -65.5t144.5 -16.5v-18h-493z" />
    <glyph glyph-name="Rcaron" unicode="&#x158;" horiz-adv-x="1398" 
d="M696 1573l-247 366h24l240 -200l239 200h25l-262 -366h-19zM471 729h195q114 0 188 21.5t114.5 67.5t56 107t15.5 152q0 167 -89.5 243.5t-309.5 76.5h-170v-668zM471 698v-540q0 -54 15 -80.5t64.5 -41.5t151.5 -18v-18h-647v18q104 3 156 18.5t69 42.5t17 81v1110
q0 53 -17 80t-69 42.5t-156 18.5v16h596q280 0 434 -93t154 -255q0 -295 -430 -362v-6q88 -9 151.5 -29t105.5 -48.5t69 -73t41 -94t24 -120.5l12 -88q13 -77 27 -118.5t44 -69.5t73 -36.5t119 -8.5v-17q-102 -18 -211 -18q-67 0 -110 15.5t-69 52.5t-39 83t-22 121l-23 184
q-10 80 -27.5 126.5t-55.5 76t-94.5 39.5t-151.5 10h-201z" />
    <glyph glyph-name="rcaron" unicode="&#x159;" horiz-adv-x="796" 
d="M412 1081l-248 367h24l240 -201l240 201h24l-262 -367h-18zM35 0v18q94 2 126 17t32 65v715q0 34 -11 53t-46 31t-101 16v17l311 10v-231q50 105 125 173t154 68q67 0 103 -35.5t36 -89.5q0 -45 -29 -76.5t-71 -31.5q-46 0 -75.5 28.5t-29.5 73.5q0 38 21 68
q-66 -9 -121.5 -63t-110.5 -154v-572q0 -51 35.5 -65.5t144.5 -16.5v-18h-493z" />
    <glyph glyph-name="Sacute" unicode="&#x15a;" horiz-adv-x="1173" 
d="M563 1573l84 186q66 143 81 167q29 39 65 40q31 0 52 -21.5t21 -52.5q0 -28 -25.5 -59.5t-119.5 -124.5l-141 -135h-17zM117 -37v504h18q86 -251 196 -358t292 -107q156 0 237.5 86.5t81.5 216.5q0 132 -82.5 204.5t-290.5 137.5q-85 27 -141 48.5t-114.5 55t-91.5 71.5
t-54 93t-21 125q0 124 64.5 220.5t169 146t229.5 49.5q168 0 318 -65l67 77h17v-448h-17q-83 221 -177 314t-232 93q-129 0 -210 -76.5t-81 -207.5q0 -55 14.5 -97t40.5 -73.5t74 -59.5t101.5 -49t136.5 -47q82 -25 138 -47.5t113 -56.5t90.5 -73.5t54.5 -96t21 -127.5
q0 -83 -30 -160.5t-86 -142t-148.5 -103.5t-206.5 -39q-181 0 -364 95l-111 -103h-16z" />
    <glyph glyph-name="sacute" unicode="&#x15b;" horiz-adv-x="831" 
d="M365 1081l84 187q66 143 80 166q29 40 65 41q31 0 52.5 -21.5t21.5 -52.5q0 -28 -25 -59t-121 -125l-141 -136h-16zM88 -20v333h16q41 -78 69.5 -126t58.5 -86t60.5 -56.5t66 -27.5t83.5 -9q92 0 146.5 52.5t54.5 127.5q0 81 -52.5 128t-201.5 90q-159 45 -227 102
t-68 160q0 121 94 203.5t228 82.5q114 0 215 -57l53 57h16v-297h-16q-87 162 -143 215.5t-146 53.5q-85 0 -138.5 -47.5t-53.5 -122.5q0 -71 58 -114.5t196 -82.5q154 -45 221 -108.5t67 -169.5q0 -129 -89.5 -215t-227.5 -86q-63 0 -131.5 20t-120.5 51l-72 -71h-16z" />
    <glyph glyph-name="Scedilla" unicode="&#x15e;" horiz-adv-x="1173" 
d="M532 -506q-116 0 -198 74l14 20q68 -59 164 -59q65 0 97 35t32 94q0 58 -45.5 91.5t-114.5 33.5q-39 0 -75 -10l-9 14l203 184q-183 3 -356 95l-111 -103h-16v504h18q86 -251 196 -358t292 -107q156 0 237.5 86.5t81.5 216.5q0 132 -82.5 204.5t-290.5 137.5
q-85 27 -141 48.5t-114.5 55t-91.5 71.5t-54 93t-21 125q0 124 64.5 220.5t169 146t229.5 49.5q168 0 318 -65l67 77h17v-448h-17q-83 221 -177 314t-232 93q-129 0 -210 -76.5t-81 -207.5q0 -55 14.5 -97t40.5 -73.5t74 -59.5t101.5 -49t136.5 -47q82 -25 138 -47.5
t113 -56.5t90.5 -73.5t54.5 -96t21 -127.5q0 -63 -17 -124t-52.5 -117t-86 -99t-122 -70.5t-156.5 -32.5l-127 -118l2 -5q114 0 174 -49.5t60 -126.5t-63 -128.5t-159 -51.5z" />
    <glyph glyph-name="scedilla" unicode="&#x15f;" horiz-adv-x="831" 
d="M358 -506q-116 0 -198 74l14 20q68 -59 164 -59q65 0 97 35t32 94q0 58 -45.5 91.5t-114.5 33.5q-40 0 -76 -10l-8 14l211 193h-6q-63 0 -131.5 20t-120.5 51l-72 -71h-16v333h16q41 -78 69.5 -126t58.5 -86t60.5 -56.5t66 -27.5t83.5 -9q92 0 146.5 52.5t54.5 127.5
q0 81 -52.5 128t-201.5 90q-159 45 -227 102t-68 160q0 121 94 203.5t228 82.5q114 0 215 -57l53 57h16v-297h-16q-87 162 -143 215.5t-146 53.5q-85 0 -138.5 -47.5t-53.5 -122.5q0 -71 58 -114.5t196 -82.5q154 -45 221 -108.5t67 -169.5q0 -115 -72.5 -197.5
t-189.5 -99.5l-139 -129l2 -5q114 0 174 -49.5t60 -126.5t-63 -128.5t-159 -51.5z" />
    <glyph glyph-name="Scaron" unicode="&#x160;" horiz-adv-x="1173" 
d="M610 1573l-248 366h25l240 -200l239 200h25l-262 -366h-19zM117 -37v504h18q86 -251 196 -358t292 -107q156 0 237.5 86.5t81.5 216.5q0 132 -82.5 204.5t-290.5 137.5q-85 27 -141 48.5t-114.5 55t-91.5 71.5t-54 93t-21 125q0 124 64.5 220.5t169 146t229.5 49.5
q168 0 318 -65l67 77h17v-448h-17q-83 221 -177 314t-232 93q-129 0 -210 -76.5t-81 -207.5q0 -55 14.5 -97t40.5 -73.5t74 -59.5t101.5 -49t136.5 -47q82 -25 138 -47.5t113 -56.5t90.5 -73.5t54.5 -96t21 -127.5q0 -83 -30 -160.5t-86 -142t-148.5 -103.5t-206.5 -39
q-181 0 -364 95l-111 -103h-16z" />
    <glyph glyph-name="scaron" unicode="&#x161;" horiz-adv-x="831" 
d="M426 1081l-248 367h25l239 -201l240 201h25l-263 -367h-18zM88 -20v333h16q41 -78 69.5 -126t58.5 -86t60.5 -56.5t66 -27.5t83.5 -9q92 0 146.5 52.5t54.5 127.5q0 81 -52.5 128t-201.5 90q-159 45 -227 102t-68 160q0 121 94 203.5t228 82.5q114 0 215 -57l53 57h16
v-297h-16q-87 162 -143 215.5t-146 53.5q-85 0 -138.5 -47.5t-53.5 -122.5q0 -71 58 -114.5t196 -82.5q154 -45 221 -108.5t67 -169.5q0 -129 -89.5 -215t-227.5 -86q-63 0 -131.5 20t-120.5 51l-72 -71h-16z" />
    <glyph glyph-name="Tcommaaccent" unicode="&#x162;" horiz-adv-x="1398" 
d="M598 -537l-10 19q148 93 160 213l-9 2q-16 -16 -49 -16q-37 0 -62.5 24t-25.5 62q0 42 27 71t69 29q52 0 83.5 -36.5t31.5 -96.5q0 -82 -57.5 -152t-157.5 -119zM356 0v18q107 3 162 17.5t75.5 43t20.5 81.5v1237h-163q-112 0 -189.5 -81t-171.5 -302l-18 2l12 411h1235
l12 -411l-18 -2q-94 219 -171.5 301t-189.5 82h-164v-1237q0 -53 20.5 -81.5t76 -43t162.5 -17.5v-18h-691z" />
    <glyph glyph-name="tcommaaccent" unicode="&#x163;" horiz-adv-x="686" 
d="M272 -537l-10 19q148 93 160 213l-8 2q-16 -16 -49 -16q-37 0 -63 24t-26 62q0 42 27.5 71t69.5 29q52 0 83 -36.5t31 -96.5q0 -82 -57.5 -152t-157.5 -119zM416 -23q-107 0 -163 65.5t-56 193.5v655h-193v18l193 29v266l155 72v-344h299v-41h-299v-670q0 -180 129 -180
q97 0 187 145l16 -12q-109 -197 -268 -197z" />
    <glyph glyph-name="Tcaron" unicode="&#x164;" horiz-adv-x="1398" 
d="M684 1573l-248 366h25l239 -200l240 200h25l-263 -366h-18zM356 0v18q107 3 162 17.5t75.5 43t20.5 81.5v1237h-163q-112 0 -189.5 -81t-171.5 -302l-18 2l12 411h1235l12 -411l-18 -2q-94 219 -171.5 301t-189.5 82h-164v-1237q0 -53 20.5 -81.5t76 -43t162.5 -17.5v-18
h-691z" />
    <glyph glyph-name="tcaron" unicode="&#x165;" horiz-adv-x="686" 
d="M545 1096l-4 219q0 18 -1 66t-1 63q0 58 23.5 81t55.5 23q34 0 55 -19t21 -56q0 -35 -30 -117l-103 -260h-16zM416 -23q-107 0 -163 65.5t-56 193.5v655h-193v18l193 29v266l155 72v-344h299v-41h-299v-670q0 -180 129 -180q97 0 187 145l16 -12q-109 -197 -268 -197z
" />
    <glyph glyph-name="Umacron" unicode="&#x16a;" 
d="M807 -33q-253 0 -393 116t-140 339v848q0 53 -17 80t-69 42.5t-155 18.5v16h641v-16q-77 -2 -121.5 -9.5t-67.5 -26t-29.5 -40.5t-6.5 -63v-805q0 -121 31 -208.5t90 -137.5t135.5 -73t175.5 -23q175 0 274 96q123 123 123 344v709q0 82 -20.5 126.5t-76 70t-165.5 40.5
v16h532v-16q-77 -12 -122 -27.5t-70.5 -45t-33 -65.5t-7.5 -99v-723q0 -222 -130.5 -353t-377.5 -131zM559 1634v60h539v-60h-539z" />
    <glyph glyph-name="umacron" unicode="&#x16b;" horiz-adv-x="1085" 
d="M414 -18q-119 0 -183.5 72.5t-64.5 207.5v555q0 50 -30.5 71t-123.5 27v17l310 10v-633q0 -121 42 -182t138 -61q75 0 143 56t115 150v545q0 50 -31.5 71t-130.5 27v17l317 10v-846q0 -44 34 -61t124 -19v-16h-311v227q-69 -114 -157.5 -179.5t-190.5 -65.5zM268 1143v59
h539v-59h-539z" />
    <glyph glyph-name="Ubreve" unicode="&#x16c;" 
d="M807 -33q-253 0 -393 116t-140 339v848q0 53 -17 80t-69 42.5t-155 18.5v16h641v-16q-77 -2 -121.5 -9.5t-67.5 -26t-29.5 -40.5t-6.5 -63v-805q0 -121 31 -208.5t90 -137.5t135.5 -73t175.5 -23q175 0 274 96q123 123 123 344v709q0 82 -20.5 126.5t-76 70t-165.5 40.5
v16h532v-16q-77 -12 -122 -27.5t-70.5 -45t-33 -65.5t-7.5 -99v-723q0 -222 -130.5 -353t-377.5 -131zM827 1583q-110 0 -182 84t-90 221h25q36 -102 95 -144t154 -42q96 0 154 42t94 144h23q-15 -136 -88.5 -220.5t-184.5 -84.5z" />
    <glyph glyph-name="ubreve" unicode="&#x16d;" horiz-adv-x="1085" 
d="M414 -18q-119 0 -183.5 72.5t-64.5 207.5v555q0 50 -30.5 71t-123.5 27v17l310 10v-633q0 -121 42 -182t138 -61q75 0 143 56t115 150v545q0 50 -31.5 71t-130.5 27v17l317 10v-846q0 -44 34 -61t124 -19v-16h-311v227q-69 -114 -157.5 -179.5t-190.5 -65.5zM537 1092
q-110 0 -182.5 84t-90.5 221h25q36 -102 95.5 -144.5t154.5 -42.5q96 0 153.5 42.5t93.5 144.5h23q-15 -136 -88 -220.5t-184 -84.5z" />
    <glyph glyph-name="Uring" unicode="&#x16e;" 
d="M827 1583q-92 0 -151.5 61t-59.5 148t59.5 148t151.5 61q91 0 152 -61.5t61 -147.5t-60.5 -147.5t-152.5 -61.5zM827 1608q57 0 90 49t33 135q0 184 -123 184q-120 0 -120 -184q0 -87 31.5 -135.5t88.5 -48.5zM807 -33q-253 0 -393 116t-140 339v848q0 53 -17 80
t-69 42.5t-155 18.5v16h641v-16q-77 -2 -121.5 -9.5t-67.5 -26t-29.5 -40.5t-6.5 -63v-805q0 -121 31 -208.5t90 -137.5t135.5 -73t175.5 -23q175 0 274 96q123 123 123 344v709q0 82 -20.5 126.5t-76 70t-165.5 40.5v16h532v-16q-77 -12 -122 -27.5t-70.5 -45t-33 -65.5
t-7.5 -99v-723q0 -222 -130.5 -353t-377.5 -131z" />
    <glyph glyph-name="uring" unicode="&#x16f;" horiz-adv-x="1085" 
d="M537 1092q-92 0 -151.5 60.5t-59.5 147.5t59.5 148t151.5 61q91 0 152 -61.5t61 -147.5t-60.5 -147t-152.5 -61zM537 1116q57 0 89.5 49t32.5 135q0 185 -122 185q-121 0 -121 -185q0 -86 32 -135t89 -49zM414 -18q-119 0 -183.5 72.5t-64.5 207.5v555q0 50 -30.5 71
t-123.5 27v17l310 10v-633q0 -121 42 -182t138 -61q75 0 143 56t115 150v545q0 50 -31.5 71t-130.5 27v17l317 10v-846q0 -44 34 -61t124 -19v-16h-311v227q-69 -114 -157.5 -179.5t-190.5 -65.5z" />
    <glyph glyph-name="Uhungarumlaut" unicode="&#x170;" 
d="M807 -33q-253 0 -393 116t-140 339v848q0 53 -17 80t-69 42.5t-155 18.5v16h641v-16q-77 -2 -121.5 -9.5t-67.5 -26t-29.5 -40.5t-6.5 -63v-805q0 -121 31 -208.5t90 -137.5t135.5 -73t175.5 -23q175 0 274 96q123 123 123 344v709q0 82 -20.5 126.5t-76 70t-165.5 40.5
v16h532v-16q-77 -12 -122 -27.5t-70.5 -45t-33 -65.5t-7.5 -99v-723q0 -222 -130.5 -353t-377.5 -131zM936 1573l90 186q73 144 86 164q33 41 68 43q32 0 51.5 -20t19.5 -52q0 -28 -26.5 -60t-124.5 -126l-148 -135h-16zM645 1573l92 186q71 144 88 168q28 39 66 39
q31 0 51.5 -20t20.5 -52q0 -28 -28 -61t-126 -125l-145 -135h-19z" />
    <glyph glyph-name="uhungarumlaut" unicode="&#x171;" horiz-adv-x="1085" 
d="M414 -18q-119 0 -183.5 72.5t-64.5 207.5v555q0 50 -30.5 71t-123.5 27v17l310 10v-633q0 -121 42 -182t138 -61q75 0 143 56t115 150v545q0 50 -31.5 71t-130.5 27v17l317 10v-846q0 -44 34 -61t124 -19v-16h-311v227q-69 -114 -157.5 -179.5t-190.5 -65.5zM645 1081
l90 187q73 144 86 164q33 41 68 43q32 0 52 -20t20 -52q0 -28 -26.5 -59.5t-125.5 -126.5l-147 -136h-17zM354 1081l92 187q71 144 88 168q28 39 66 39q31 0 51.5 -20t20.5 -52q0 -28 -28 -61t-126 -125l-145 -136h-19z" />
    <glyph glyph-name="Uogonek" unicode="&#x172;" 
d="M807 -33q-253 0 -393 116t-140 339v848q0 53 -17 80t-69 42.5t-155 18.5v16h641v-16q-77 -2 -121.5 -9.5t-67.5 -26t-29.5 -40.5t-6.5 -63v-805q0 -121 31 -208.5t90 -137.5t135.5 -73t175.5 -23q175 0 274 96q123 123 123 344v709q0 82 -20.5 126.5t-76 70t-165.5 40.5
v16h532v-16q-77 -12 -122 -27.5t-70.5 -45t-33 -65.5t-7.5 -99v-723q0 -200 -106.5 -327t-309.5 -151l-33 -34q-66 -65 -95.5 -124t-29.5 -128q0 -64 35.5 -96.5t91.5 -32.5q54 0 131 34l11 -18q-101 -72 -203 -72q-82 0 -137.5 44.5t-55.5 117.5q0 64 43 124.5t162 156.5
l29 24q-14 -2 -41 -2z" />
    <glyph glyph-name="uogonek" unicode="&#x173;" horiz-adv-x="1085" 
d="M414 -18q-119 0 -183.5 72.5t-64.5 207.5v555q0 50 -30.5 71t-123.5 27v17l310 10v-633q0 -121 42 -182t138 -61q75 0 143 56t115 150v545q0 50 -31.5 71t-130.5 27v17l317 10v-846q0 -44 34 -61t124 -19v-16h-86l-59 -61q-65 -65 -94 -124t-29 -128q0 -64 35 -96.5
t90 -32.5q58 0 131 34l10 -18q-101 -72 -203 -72q-82 0 -136 44.5t-54 117.5q0 65 42.5 125t162.5 156l67 55h-188v227q-69 -114 -157.5 -179.5t-190.5 -65.5z" />
    <glyph glyph-name="Wcircumflex" unicode="&#x174;" horiz-adv-x="2066" 
d="M778 1573l262 366h19l248 -366h-25l-240 201l-239 -201h-25zM1036 1081l-35 109q-25 77 -43 117t-47.5 64t-60.5 30.5t-92 9.5v16h573v-16q-139 -6 -168 -40.5t8 -141.5l318 -987h6l277 870q23 72 30.5 119t3 81t-30 53.5t-63.5 29.5t-102 16v16h487v-16
q-115 -12 -173.5 -78.5t-115.5 -240.5l-366 -1135h-29l-356 1071l-395 -1071h-29l-389 1233q-41 132 -84.5 170.5t-165.5 50.5v16h586v-16q-92 -4 -132.5 -24t-42.5 -59t17 -99l293 -993h6z" />
    <glyph glyph-name="wcircumflex" unicode="&#x175;" horiz-adv-x="1462" 
d="M506 1081l262 367h18l248 -367h-24l-240 201l-240 -201h-24zM754 666l-35 98q-32 86 -64.5 117t-105.5 37v16h446v-16q-141 -8 -141 -87q0 -19 12 -53l211 -585h6l183 516q28 79 28 118q0 41 -29.5 62t-95.5 29v16h334v-16q-74 -9 -114 -47.5t-76 -139.5l-277 -756h-26
l-240 650l-274 -650h-23l-307 789q-34 85 -69.5 116.5t-114.5 37.5v16h456v-16q-74 -4 -105.5 -24.5t-31.5 -57.5q0 -20 12 -58l230 -590h6z" />
    <glyph glyph-name="Ycircumflex" unicode="&#x176;" horiz-adv-x="1351" 
d="M745 682l281 483q33 56 47.5 91.5t16.5 64t-18 45t-57 27.5t-100 18v16h474v-16q-114 -13 -174.5 -62.5t-149.5 -197.5l-297 -502v-489q0 -77 51.5 -106.5t196.5 -33.5v-20h-668v18q107 3 160 18t70.5 42.5t17.5 81.5v452l-358 621q-58 98 -105 132t-145 46v16h606v-16
q-82 -3 -126.5 -13.5t-59 -34t-6.5 -54.5t38 -82zM463 1573l262 366h18l248 -366h-24l-240 201l-240 -201h-24z" />
    <glyph glyph-name="ycircumflex" unicode="&#x177;" horiz-adv-x="974" 
d="M500 2l-338 762q-38 87 -73.5 117t-117.5 37v16h463v-16q-69 -4 -101 -20t-32.5 -44.5t16.5 -69.5l256 -606l211 533q44 107 23.5 150.5t-125.5 56.5v16h328v-16q-64 -9 -101 -47t-78 -138l-321 -792q-55 -135 -106 -212.5t-97.5 -106t-103.5 -28.5q-58 0 -94.5 37.5
t-36.5 85.5q0 44 25.5 75.5t72.5 31.5q40 0 67 -30t27 -73q0 -52 -35 -90q58 7 119 76t133 252zM274 1081l263 367h18l248 -367h-25l-239 201l-240 -201h-25z" />
    <glyph glyph-name="Ydieresis" unicode="&#x178;" horiz-adv-x="1351" 
d="M745 682l281 483q33 56 47.5 91.5t16.5 64t-18 45t-57 27.5t-100 18v16h474v-16q-114 -13 -174.5 -62.5t-149.5 -197.5l-297 -502v-489q0 -77 51.5 -106.5t196.5 -33.5v-20h-668v18q107 3 160 18t70.5 42.5t17.5 81.5v452l-358 621q-58 98 -105 132t-145 46v16h606v-16
q-82 -3 -126.5 -13.5t-59 -34t-6.5 -54.5t38 -82zM920 1583q-44 0 -73.5 30.5t-29.5 74.5q0 43 29.5 74.5t71.5 31.5q44 0 73 -31.5t29 -76.5q0 -43 -29 -73t-71 -30zM584 1583q-44 0 -73.5 30.5t-29.5 74.5q0 43 29.5 74.5t71.5 31.5q44 0 73 -31.5t29 -76.5q0 -43 -29 -73
t-71 -30z" />
    <glyph glyph-name="Zacute" unicode="&#x179;" horiz-adv-x="1277" 
d="M600 1573l84 186q66 143 80 166q29 40 65 41q31 0 52.5 -21.5t21.5 -52.5q0 -28 -25.5 -59.5t-119.5 -124.5l-142 -135h-16zM78 0l-2 16l903 1381h-444q-75 0 -131 -30.5t-117 -113t-137 -235.5l-19 2l41 407h1022l2 -14l-903 -1382h508q60 0 102.5 15.5t87 62.5
t87.5 120.5t106 200.5l18 -4l-33 -426h-1091z" />
    <glyph glyph-name="zacute" unicode="&#x17a;" horiz-adv-x="921" 
d="M444 1081l84 187q66 143 81 167q29 39 65 40q31 0 52.5 -21.5t21.5 -52.5q0 -28 -25 -59t-121 -125l-141 -136h-17zM68 0l-5 18l613 885h-252q-89 0 -146 -55.5t-147 -231.5l-20 5l34 313h717l4 -16l-610 -885h276q91 0 159.5 63.5t144.5 237.5l20 -4l-33 -330h-755z" />
    <glyph glyph-name="Zdotaccent" unicode="&#x17b;" horiz-adv-x="1277" 
d="M78 0l-2 16l903 1381h-444q-75 0 -131 -30.5t-117 -113t-137 -235.5l-19 2l41 407h1022l2 -14l-903 -1382h508q60 0 102.5 15.5t87 62.5t87.5 120.5t106 200.5l18 -4l-33 -426h-1091zM659 1583q-45 0 -74.5 31.5t-29.5 77.5t30 78t74 32q47 0 77 -31t30 -79
q0 -45 -31 -77t-76 -32z" />
    <glyph glyph-name="zdotaccent" unicode="&#x17c;" horiz-adv-x="921" 
d="M68 0l-5 18l613 885h-252q-89 0 -146 -55.5t-147 -231.5l-20 5l34 313h717l4 -16l-610 -885h276q91 0 159.5 63.5t144.5 237.5l20 -4l-33 -330h-755zM496 1092q-45 0 -75 31t-30 77t30.5 78.5t74.5 32.5q47 0 76.5 -31.5t29.5 -79.5q0 -45 -30.5 -76.5t-75.5 -31.5z" />
    <glyph glyph-name="Zcaron" unicode="&#x17d;" horiz-adv-x="1277" 
d="M649 1573l-248 366h25l240 -200l239 200h25l-262 -366h-19zM78 0l-2 16l903 1381h-444q-75 0 -131 -30.5t-117 -113t-137 -235.5l-19 2l41 407h1022l2 -14l-903 -1382h508q60 0 102.5 15.5t87 62.5t87.5 120.5t106 200.5l18 -4l-33 -426h-1091z" />
    <glyph glyph-name="zcaron" unicode="&#x17e;" horiz-adv-x="921" 
d="M481 1081l-248 367h25l240 -201l239 201h25l-262 -367h-19zM68 0l-5 18l613 885h-252q-89 0 -146 -55.5t-147 -231.5l-20 5l34 313h717l4 -16l-610 -885h276q91 0 159.5 63.5t144.5 237.5l20 -4l-33 -330h-755z" />
    <glyph glyph-name="Aringacute" unicode="&#x1fa;" horiz-adv-x="1392" 
d="M643 1884l84 187q65 143 80 166q29 39 65 40q31 0 52.5 -21t21.5 -52q0 -28 -25.5 -60.5t-119.5 -124.5l-142 -135h-16zM705 1460q57 0 89.5 50t32.5 135q0 98 -30.5 141t-91.5 43q-60 0 -90.5 -43t-30.5 -141q0 -85 32 -135t89 -50zM369 555l-84 -219
q-25 -64 -37.5 -107.5t-15 -79t6.5 -57t33.5 -37.5t59 -24t88.5 -13v-18h-469v18q107 19 163.5 80.5t127.5 241.5l436 1098q-81 9 -132.5 68.5t-51.5 138.5q0 87 59.5 147.5t151.5 60.5q91 0 152 -61t61 -147q0 -78 -51.5 -137.5t-131.5 -69.5l449 -1198q27 -73 44 -108
t46 -62.5t64 -37t98 -14.5v-18h-609v18q153 6 187.5 45.5t-6.5 137.5l-129 354h-510zM868 588l-231 641h-6l-250 -641h487z" />
    <glyph glyph-name="aringacute" unicode="&#x1fb;" horiz-adv-x="968" 
d="M336 -12q-119 0 -183.5 62.5t-64.5 152.5q0 136 127 205q60 33 140 56.5t178 43t112 22.5v140q0 130 -46.5 187.5t-152.5 57.5q-134 0 -190 -73q33 -15 52.5 -42.5t19.5 -58.5q0 -45 -28 -73.5t-73 -28.5t-70.5 29.5t-25.5 72.5q0 88 99.5 146.5t238.5 58.5
q332 0 332 -270v-508q0 -86 37 -111.5t129 9.5l6 -15q-94 -59 -174 -59q-74 0 -110.5 38.5t-37.5 125.5h-6q-148 -168 -309 -168zM418 59q65 0 123.5 37.5t103.5 96.5v309q-162 -29 -245.5 -62.5t-114.5 -79.5t-31 -124q0 -84 41.5 -130.5t122.5 -46.5zM432 1583l84 186
q66 143 81 167q29 39 65 40q31 0 52 -21t21 -52q0 -28 -25.5 -60.5t-119.5 -124.5l-141 -135h-17zM489 1092q-92 0 -151 60.5t-59 147.5t59 148t151 61q91 0 152 -61.5t61 -147.5t-60.5 -147t-152.5 -61zM489 1116q57 0 90 49t33 135q0 185 -123 185q-120 0 -120 -185
q0 -87 31.5 -135.5t88.5 -48.5z" />
    <glyph glyph-name="AEacute" unicode="&#x1fc;" horiz-adv-x="2056" 
d="M1147 1573l84 186q66 143 80 166q29 40 65 41q31 0 52.5 -21.5t21.5 -52.5q0 -28 -25.5 -59.5t-119.5 -124.5l-142 -135h-16zM492 584l-175 -275q-92 -145 -92 -203q0 -38 37 -58.5t119 -29.5v-18h-467v18q110 17 188 86t187 236l575 891q33 54 33 84q0 39 -49 62.5
t-160 33.5v16h1208l7 -419l-19 -2q-44 118 -77.5 187t-77 118t-94.5 67.5t-126 18.5h-346v-639h195q111 0 164 56.5t92 223.5h18v-594h-18q-39 168 -92 225.5t-164 57.5h-195v-696h379q82 0 138.5 19.5t103.5 72t83 125.5t81 198l18 -2l-10 -444h-1208v18q103 3 155 18.5
t69 43t17 80.5v424h-497zM989 616v736h-6l-471 -736h477z" />
    <glyph glyph-name="aeacute" unicode="&#x1fd;" horiz-adv-x="1544" 
d="M1094 954q186 0 288 -121t91 -296h-650q-2 -23 -2 -66v-2q0 -191 86.5 -307.5t239.5 -116.5q96 0 168.5 49.5t142.5 143.5l19 -13q-150 -245 -387 -245q-131 0 -229 66t-142 185h-6q-60 -114 -160 -178.5t-217 -64.5q-119 0 -183.5 62.5t-64.5 152.5q0 136 127 205
q59 33 145 57t186 42t118 23v140q0 128 -55 186.5t-163 58.5q-134 0 -190 -73q33 -15 52.5 -42.5t19.5 -58.5q0 -45 -28 -73.5t-73 -28.5t-70.5 29.5t-25.5 72.5q0 88 99.5 146.5t238.5 58.5q240 0 305 -151q58 74 142 116.5t178 42.5zM1083 926q-110 0 -177.5 -93
t-80.5 -270h480q23 363 -222 363zM426 59q70 0 136.5 41.5t101.5 108.5v291q-165 -28 -252 -60.5t-122.5 -79.5t-35.5 -124q0 -85 44.5 -131t127.5 -46zM774 1081l84 187q66 143 81 167q29 39 65 40q31 0 52 -21.5t21 -52.5q0 -28 -25.5 -59.5t-119.5 -124.5l-141 -136h-17z
" />
    <glyph glyph-name="Oslashacute" unicode="&#x1fe;" horiz-adv-x="1552" 
d="M776 -35q101 0 200 34.5t184.5 101t151 156.5t103 209t37.5 251q0 166 -56 306t-153 241l191 239h-54l-168 -211q-189 170 -434 170q-85 0 -168.5 -24.5t-158.5 -69.5t-139.5 -112t-111.5 -148.5t-73.5 -183.5t-26.5 -213q0 -169 55.5 -308.5t155.5 -240.5l-190 -238h53
l166 211q185 -170 436 -170zM770 1434q265 0 383 -215l-774 -969q-76 172 -76 465q0 163 23.5 288t64 206t100.5 132t128 72t151 21zM782 -6q-265 0 -383 215l775 967q75 -174 75 -463q0 -163 -23.5 -287.5t-64 -205.5t-100.5 -132.5t-128 -72.5t-151 -21zM713 1573l84 186
q66 143 80 166q29 40 65 41q31 0 52.5 -21.5t21.5 -52.5q0 -28 -25 -59t-121 -125l-141 -135h-16z" />
    <glyph glyph-name="oslashacute" unicode="&#x1ff;" horiz-adv-x="1062" 
d="M141 -57h-49l127 161q-145 142 -145 361q0 104 39 196t102.5 155.5t146.5 100.5t170 37q157 0 281 -100l109 137h49l-127 -162q69 -66 108 -158t39 -200q0 -104 -39 -196.5t-103 -156.5t-147 -101t-170 -37q-158 0 -282 100zM248 469q0 -170 41 -276l469 589
q-76 146 -236 146q-132 0 -203 -108t-71 -351zM541 8q132 0 203 108t71 351q0 170 -41 276l-469 -591q75 -144 236 -144zM477 1081l84 187q66 143 81 167q29 39 65 40q31 0 52 -21.5t21 -52.5q0 -28 -25.5 -59.5t-119.5 -124.5l-141 -136h-17z" />
    <glyph glyph-name="Scommaaccent" unicode="&#x218;" horiz-adv-x="1173" 
d="M489 -537l-10 19q148 93 160 213l-8 2q-16 -16 -49 -16q-37 0 -62.5 24t-25.5 62q0 42 27 71t69 29q52 0 83.5 -36.5t31.5 -96.5q0 -82 -58 -152t-158 -119zM117 -37v504h18q86 -251 196 -358t292 -107q156 0 237.5 86.5t81.5 216.5q0 132 -82.5 204.5t-290.5 137.5
q-85 27 -141 48.5t-114.5 55t-91.5 71.5t-54 93t-21 125q0 124 64.5 220.5t169 146t229.5 49.5q168 0 318 -65l67 77h17v-448h-17q-83 221 -177 314t-232 93q-129 0 -210 -76.5t-81 -207.5q0 -55 14.5 -97t40.5 -73.5t74 -59.5t101.5 -49t136.5 -47q82 -25 138 -47.5
t113 -56.5t90.5 -73.5t54.5 -96t21 -127.5q0 -83 -30 -160.5t-86 -142t-148.5 -103.5t-206.5 -39q-181 0 -364 95l-111 -103h-16z" />
    <glyph glyph-name="scommaaccent" unicode="&#x219;" horiz-adv-x="831" 
d="M309 -537l-10 19q148 93 160 213l-8 2q-16 -16 -50 -16q-37 0 -62.5 24t-25.5 62q0 42 27.5 71t69.5 29q52 0 83 -36.5t31 -96.5q0 -82 -57.5 -152t-157.5 -119zM88 -20v333h16q41 -78 69.5 -126t58.5 -86t60.5 -56.5t66 -27.5t83.5 -9q92 0 146.5 52.5t54.5 127.5
q0 81 -52.5 128t-201.5 90q-159 45 -227 102t-68 160q0 121 94 203.5t228 82.5q114 0 215 -57l53 57h16v-297h-16q-87 162 -143 215.5t-146 53.5q-85 0 -138.5 -47.5t-53.5 -122.5q0 -71 58 -114.5t196 -82.5q154 -45 221 -108.5t67 -169.5q0 -129 -89.5 -215t-227.5 -86
q-63 0 -131.5 20t-120.5 51l-72 -71h-16z" />
    <glyph glyph-name="schwa" unicode="&#x259;" horiz-adv-x="964" 
d="M453 954q191 0 314.5 -133t123.5 -342q0 -134 -59.5 -249t-161 -182.5t-219.5 -67.5q-125 0 -215.5 58t-131.5 152t-34 207h651q0 10 1 32t1 34v2q0 191 -86.5 307.5t-239.5 116.5q-97 0 -169 -49t-144 -144l-18 13q153 245 387 245zM459 8q110 0 177.5 93t82.5 270h-481
q-20 -363 221 -363z" />
    <glyph glyph-name="circumflex" unicode="&#x2c6;" horiz-adv-x="612" 
d="M43 1081l262 367h19l247 -367h-24l-240 201l-239 -201h-25z" />
    <glyph glyph-name="caron" unicode="&#x2c7;" horiz-adv-x="612" 
d="M291 1081l-248 367h25l239 -201l240 201h24l-262 -367h-18z" />
    <glyph glyph-name="breve" unicode="&#x2d8;" horiz-adv-x="688" 
d="M344 1092q-110 0 -182 84t-90 221h24q36 -102 95.5 -144.5t154.5 -42.5q96 0 154 42.5t94 144.5h22q-15 -136 -88 -220.5t-184 -84.5z" />
    <glyph glyph-name="dotaccent" unicode="&#x2d9;" horiz-adv-x="393" 
d="M197 1092q-45 0 -75 31t-30 77t30.5 78.5t74.5 32.5q47 0 76.5 -31.5t29.5 -79.5q0 -45 -30.5 -76.5t-75.5 -31.5z" />
    <glyph glyph-name="ring" unicode="&#x2da;" horiz-adv-x="528" 
d="M264 1092q-92 0 -151.5 60.5t-59.5 147.5t59.5 148t151.5 61q91 0 152 -61.5t61 -147.5t-60.5 -147t-152.5 -61zM264 1116q57 0 90 49t33 135q0 185 -123 185q-121 0 -121 -185q0 -86 32 -135t89 -49z" />
    <glyph glyph-name="ogonek" unicode="&#x2db;" horiz-adv-x="550" 
d="M229 -498q-82 0 -137 44.5t-55 117.5q0 64 43 124.5t162 156.5l86 69h34l-73 -75q-66 -65 -95.5 -124t-29.5 -128q0 -64 35.5 -96.5t91.5 -32.5q55 0 131 34l10 -18q-101 -72 -203 -72z" />
    <glyph glyph-name="tilde" unicode="&#x2dc;" horiz-adv-x="677" 
d="M29 1071q21 122 64.5 181t119.5 59q50 0 159.5 -50.5t147.5 -50.5q74 0 109 127h22q-21 -120 -65.5 -179.5t-118.5 -59.5q-50 0 -159.5 50t-147.5 50q-74 0 -109 -127h-22z" />
    <glyph glyph-name="hungarumlaut" unicode="&#x2dd;" horiz-adv-x="589" 
d="M279 1081l90 187q73 144 84 161q36 43 69 46q32 0 52 -20t20 -52q0 -28 -26.5 -59.5t-125.5 -126.5l-147 -136h-16zM-12 1081l92 187q71 144 87 166q29 40 66 41q31 0 51.5 -20t20.5 -52q0 -28 -28 -61.5t-125 -124.5l-146 -136h-18z" />
    <glyph glyph-name="commaaccent" unicode="&#x326;" horiz-adv-x="444" 
d="M109 -537l-11 19q148 93 160 213l-8 2q-16 -16 -49 -16q-37 0 -62.5 24t-25.5 62q0 42 27 71t69 29q52 0 83.5 -36.5t31.5 -96.5q0 -82 -57.5 -152t-157.5 -119z" />
    <glyph glyph-name="Wgrave" unicode="&#x1e80;" horiz-adv-x="2066" 
d="M1036 1081l-35 109q-25 77 -43 117t-47.5 64t-60.5 30.5t-92 9.5v16h573v-16q-139 -6 -168 -40.5t8 -141.5l318 -987h6l277 870q23 72 30.5 119t3 81t-30 53.5t-63.5 29.5t-102 16v16h487v-16q-115 -12 -173.5 -78.5t-115.5 -240.5l-366 -1135h-29l-356 1071l-395 -1071
h-29l-389 1233q-41 132 -84.5 170.5t-165.5 50.5v16h586v-16q-92 -4 -132.5 -24t-42.5 -59t17 -99l293 -993h6zM1081 1573l-141 135q-94 93 -119.5 124.5t-25.5 59.5q0 31 21.5 52.5t53.5 21.5q36 0 56 -28.5t65 -127.5q15 -33 23 -51l84 -186h-17z" />
    <glyph glyph-name="wgrave" unicode="&#x1e81;" horiz-adv-x="1462" 
d="M754 666l-35 98q-32 86 -64.5 117t-105.5 37v16h446v-16q-141 -8 -141 -87q0 -19 12 -53l211 -585h6l183 516q28 79 28 118q0 41 -29.5 62t-95.5 29v16h334v-16q-74 -9 -114 -47.5t-76 -139.5l-277 -756h-26l-240 650l-274 -650h-23l-307 789q-34 85 -69.5 116.5
t-114.5 37.5v16h456v-16q-74 -4 -105.5 -24.5t-31.5 -57.5q0 -20 12 -58l230 -590h6zM797 1081l-142 136q-94 93 -119.5 124.5t-25.5 59.5q0 31 22 52.5t54 21.5q35 0 55 -28t63 -123q5 -12 8 -18.5t8 -17.5t9 -20l84 -187h-16z" />
    <glyph glyph-name="Wacute" unicode="&#x1e82;" horiz-adv-x="2066" 
d="M1004 1573l83 186q66 143 81 167q29 39 65 40q31 0 52.5 -21.5t21.5 -52.5q0 -28 -25 -59t-121 -125l-141 -135h-16zM1036 1081l-35 109q-25 77 -43 117t-47.5 64t-60.5 30.5t-92 9.5v16h573v-16q-139 -6 -168 -40.5t8 -141.5l318 -987h6l277 870q23 72 30.5 119t3 81
t-30 53.5t-63.5 29.5t-102 16v16h487v-16q-115 -12 -173.5 -78.5t-115.5 -240.5l-366 -1135h-29l-356 1071l-395 -1071h-29l-389 1233q-41 132 -84.5 170.5t-165.5 50.5v16h586v-16q-92 -4 -132.5 -24t-42.5 -59t17 -99l293 -993h6z" />
    <glyph glyph-name="wacute" unicode="&#x1e83;" horiz-adv-x="1462" 
d="M735 1081l84 187q66 143 81 167q29 39 65 40q31 0 52 -21.5t21 -52.5q0 -28 -25.5 -59.5t-119.5 -124.5l-141 -136h-17zM754 666l-35 98q-32 86 -64.5 117t-105.5 37v16h446v-16q-141 -8 -141 -87q0 -19 12 -53l211 -585h6l183 516q28 79 28 118q0 41 -29.5 62t-95.5 29
v16h334v-16q-74 -9 -114 -47.5t-76 -139.5l-277 -756h-26l-240 650l-274 -650h-23l-307 789q-34 85 -69.5 116.5t-114.5 37.5v16h456v-16q-74 -4 -105.5 -24.5t-31.5 -57.5q0 -20 12 -58l230 -590h6z" />
    <glyph glyph-name="Wdieresis" unicode="&#x1e84;" horiz-adv-x="2066" 
d="M1210 1583q-44 0 -73 30t-29 75q0 43 29 74.5t71 31.5q44 0 73.5 -31.5t29.5 -76.5q0 -43 -29 -73t-72 -30zM874 1583q-44 0 -73 30t-29 75q0 43 29 74.5t71 31.5q44 0 73.5 -31.5t29.5 -76.5q0 -43 -29 -73t-72 -30zM1036 1081l-35 109q-25 77 -43 117t-47.5 64
t-60.5 30.5t-92 9.5v16h573v-16q-139 -6 -168 -40.5t8 -141.5l318 -987h6l277 870q23 72 30.5 119t3 81t-30 53.5t-63.5 29.5t-102 16v16h487v-16q-115 -12 -173.5 -78.5t-115.5 -240.5l-366 -1135h-29l-356 1071l-395 -1071h-29l-389 1233q-41 132 -84.5 170.5t-165.5 50.5
v16h586v-16q-92 -4 -132.5 -24t-42.5 -59t17 -99l293 -993h6z" />
    <glyph glyph-name="wdieresis" unicode="&#x1e85;" horiz-adv-x="1462" 
d="M938 1092q-44 0 -73 30t-29 74q0 43 29 75t71 32q44 0 73 -32t29 -77q0 -43 -28.5 -72.5t-71.5 -29.5zM602 1092q-44 0 -73 30t-29 74q0 43 29 75t71 32q44 0 73 -32t29 -77q0 -43 -28.5 -72.5t-71.5 -29.5zM754 666l-35 98q-32 86 -64.5 117t-105.5 37v16h446v-16
q-141 -8 -141 -87q0 -19 12 -53l211 -585h6l183 516q28 79 28 118q0 41 -29.5 62t-95.5 29v16h334v-16q-74 -9 -114 -47.5t-76 -139.5l-277 -756h-26l-240 650l-274 -650h-23l-307 789q-34 85 -69.5 116.5t-114.5 37.5v16h456v-16q-74 -4 -105.5 -24.5t-31.5 -57.5
q0 -20 12 -58l230 -590h6z" />
    <glyph glyph-name="Ygrave" unicode="&#x1ef2;" horiz-adv-x="1351" 
d="M745 682l281 483q33 56 47.5 91.5t16.5 64t-18 45t-57 27.5t-100 18v16h474v-16q-114 -13 -174.5 -62.5t-149.5 -197.5l-297 -502v-489q0 -77 51.5 -106.5t196.5 -33.5v-20h-668v18q107 3 160 18t70.5 42.5t17.5 81.5v452l-358 621q-58 98 -105 132t-145 46v16h606v-16
q-82 -3 -126.5 -13.5t-59 -34t-6.5 -54.5t38 -82zM758 1573l-142 135q-94 93 -119.5 124.5t-25.5 59.5q0 31 22 52.5t54 21.5q35 0 55 -28t63 -123q5 -12 8 -18.5t8 -17.5t9 -20l84 -186h-16z" />
    <glyph glyph-name="ygrave" unicode="&#x1ef3;" horiz-adv-x="974" 
d="M500 2l-338 762q-38 87 -73.5 117t-117.5 37v16h463v-16q-69 -4 -101 -20t-32.5 -44.5t16.5 -69.5l256 -606l211 533q44 107 23.5 150.5t-125.5 56.5v16h328v-16q-64 -9 -101 -47t-78 -138l-321 -792q-55 -135 -106 -212.5t-97.5 -106t-103.5 -28.5q-58 0 -94.5 37.5
t-36.5 85.5q0 44 25.5 75.5t72.5 31.5q40 0 67 -30t27 -73q0 -52 -35 -90q58 7 119 76t133 252zM555 1081l-141 136q-96 94 -121 125t-25 59q0 31 22 52.5t54 21.5q35 0 55 -28t63 -123q5 -12 8 -18.5t8 -17.5t9 -20l84 -187h-16z" />
    <glyph glyph-name="enspace" unicode="&#x2002;" horiz-adv-x="1024" 
 />
    <glyph glyph-name="emspace" unicode="&#x2003;" horiz-adv-x="2048" 
 />
    <glyph glyph-name="threeperemspace" unicode="&#x2004;" horiz-adv-x="681" 
 />
    <glyph glyph-name="fourperemspace" unicode="&#x2005;" horiz-adv-x="512" 
 />
    <glyph glyph-name="thinspace" unicode="&#x2009;" horiz-adv-x="272" 
 />
    <glyph glyph-name="hairspace" unicode="&#x200a;" horiz-adv-x="153" 
 />
    <glyph glyph-name="endash" unicode="&#x2013;" horiz-adv-x="1105" 
d="M113 520v35h880v-35h-880z" />
    <glyph glyph-name="emdash" unicode="&#x2014;" horiz-adv-x="1617" 
d="M113 520v35h1392v-35h-1392z" />
    <glyph glyph-name="quoteleft" unicode="&#x2018;" horiz-adv-x="428" 
d="M223 975q-61 0 -96 38.5t-35 102.5q0 201 283 332l12 -18q-95 -49 -154 -122.5t-67 -140.5l8 -4q22 19 55 19q41 0 70 -27.5t29 -69.5q0 -45 -30.5 -77.5t-74.5 -32.5z" />
    <glyph glyph-name="quoteright" unicode="&#x2019;" horiz-adv-x="428" 
d="M51 973l-12 20q95 49 154 122t67 140l-8 5q-21 -21 -55 -21q-41 0 -70 28t-29 70q0 45 30.5 78t74.5 33q61 0 96 -39t35 -104q0 -198 -283 -332z" />
    <glyph glyph-name="quotesinglbase" unicode="&#x201a;" horiz-adv-x="428" 
d="M51 -283l-12 21q95 49 154 122t67 140l-8 4q-20 -20 -55 -20q-41 0 -70 28t-29 70q0 45 30.5 78t74.5 33q61 0 96 -39.5t35 -104.5q0 -198 -283 -332z" />
    <glyph glyph-name="quotedblleft" unicode="&#x201c;" horiz-adv-x="759" 
d="M555 975q-61 0 -96 38.5t-35 102.5q0 201 283 332l12 -18q-95 -49 -154 -122.5t-67 -140.5l8 -4q22 19 55 19q41 0 69.5 -27.5t28.5 -69.5q0 -45 -30 -77.5t-74 -32.5zM223 975q-61 0 -96 38.5t-35 102.5q0 201 283 332l12 -18q-95 -49 -154 -122.5t-67 -140.5l8 -4
q22 19 55 19q41 0 70 -27.5t29 -69.5q0 -45 -30.5 -77.5t-74.5 -32.5z" />
    <glyph glyph-name="quotedblright" unicode="&#x201d;" horiz-adv-x="759" 
d="M383 973l-12 20q95 49 154 122t67 140l-8 5q-21 -21 -56 -21q-40 0 -69 28t-29 70q0 45 30.5 78t74.5 33q61 0 96 -39t35 -104q0 -198 -283 -332zM51 973l-12 20q95 49 154 122t67 140l-8 5q-21 -21 -55 -21q-41 0 -70 28t-29 70q0 45 30.5 78t74.5 33q61 0 96 -39
t35 -104q0 -198 -283 -332z" />
    <glyph glyph-name="quotedblbase" unicode="&#x201e;" horiz-adv-x="759" 
d="M383 -283l-12 21q95 49 154 122t67 140l-8 4q-20 -20 -56 -20q-40 0 -69 28t-29 70q0 45 30.5 78t74.5 33q61 0 96 -39.5t35 -104.5q0 -198 -283 -332zM51 -283l-12 21q95 49 154 122t67 140l-8 4q-20 -20 -55 -20q-41 0 -70 28t-29 70q0 45 30.5 78t74.5 33
q61 0 96 -39.5t35 -104.5q0 -198 -283 -332z" />
    <glyph glyph-name="dagger" unicode="&#x2020;" horiz-adv-x="1124" 
d="M553 -219q-12 261 -39.5 520.5t-50.5 335.5l61 113q23 53 23 84q0 53 -36.5 87.5t-100.5 34.5q-49 0 -132 -37.5t-120 -37.5q-35 0 -61.5 17.5t-26.5 51.5q0 42 41 67t120 25q137 0 314 -110l6 4l-35 227q-35 231 -35 256q0 47 22 77t60 30q37 0 58.5 -30t21.5 -77
q0 -25 -35 -256l-35 -227l7 -4q177 110 313 110q80 0 121 -25t41 -67q0 -34 -26 -51.5t-60 -17.5q-37 0 -120.5 37.5t-131.5 37.5q-65 0 -101 -34.5t-36 -87.5q0 -42 22 -84l60 -113q-22 -79 -51 -340t-40 -516h-18z" />
    <glyph glyph-name="daggerdbl" unicode="&#x2021;" horiz-adv-x="1124" 
d="M561 -223q-36 0 -58 27.5t-22 72.5q0 20 5 53t14.5 88t15.5 99l35 221l-6 4q-180 -109 -314 -109q-80 0 -120.5 24.5t-40.5 68.5q0 34 26.5 51.5t61.5 17.5q37 0 120 -39t132 -39q64 0 100.5 32t36.5 81q0 40 -21 88l-53 133l53 133q21 52 21 86q0 49 -36.5 82t-100.5 33
q-49 0 -132 -38t-120 -38q-35 0 -61.5 18t-26.5 52q0 42 41 67t120 25q132 0 314 -110l6 6l-35 219q-6 39 -16 98.5t-14.5 90t-4.5 50.5q0 45 22 73t60 28q37 0 58.5 -28t21.5 -73q0 -20 -4.5 -50.5t-14.5 -90t-16 -98.5l-35 -219l7 -6q182 110 313 110q80 0 121 -25t41 -67
q0 -34 -26.5 -52t-59.5 -18q-37 0 -120.5 38t-131.5 38q-66 0 -101.5 -31t-35.5 -82q0 -32 18 -88l53 -133l-53 -133q-18 -45 -18 -88q0 -49 36 -81t101 -32q48 0 131.5 39t120.5 39q34 0 60 -17.5t26 -51.5q0 -42 -41 -67.5t-121 -25.5q-133 0 -313 109l-7 -4l35 -221
q5 -35 16 -97t15 -92.5t4 -50.5q0 -45 -21.5 -72.5t-60.5 -27.5z" />
    <glyph glyph-name="bullet" unicode="&#x2022;" horiz-adv-x="929" 
d="M465 430q-100 0 -172 71t-72 171q0 101 72 173.5t172 72.5q101 0 173.5 -72.5t72.5 -173.5q0 -100 -72.5 -171t-173.5 -71z" />
    <glyph glyph-name="ellipsis" unicode="&#x2026;" horiz-adv-x="1230" 
d="M1018 -33q-47 0 -80 32.5t-33 78.5t33 78t80 32q46 0 78 -32t32 -76q0 -47 -32 -80t-78 -33zM616 -33q-47 0 -79.5 32.5t-32.5 78.5t32.5 78t79.5 32q46 0 78.5 -32t32.5 -76q0 -47 -32.5 -80t-78.5 -33zM215 -33q-47 0 -80 32.5t-33 78.5t33 78t80 32q46 0 78.5 -32
t32.5 -76q0 -47 -32.5 -80t-78.5 -33z" />
    <glyph glyph-name="guilsinglleft" unicode="&#x2039;" horiz-adv-x="614" 
d="M487 59l-374 361q-29 25 -29 39t29 39l374 360l19 -12l-291 -385l291 -391z" />
    <glyph glyph-name="guilsinglright" unicode="&#x203a;" horiz-adv-x="614" 
d="M127 59l-16 13l288 387l-288 389l16 12l377 -360q28 -28 28 -41q0 -11 -28 -39z" />
    <glyph glyph-name="fraction" unicode="&#x2044;" horiz-adv-x="1222" 
d="M88 -63l504 729l493 720h52l-502 -729l-498 -720h-49z" />
    <glyph glyph-name="Euro" unicode="&#x20ac;" horiz-adv-x="1372" 
d="M915 553h-485q29 -228 150.5 -354.5t304.5 -126.5q127 0 225 66.5t156 180.5l22 -12q-34 -72 -73.5 -128.5t-96 -107.5t-133.5 -78.5t-170 -27.5q-126 0 -230 46.5t-174.5 128t-114 186.5t-56.5 227h-166v33h162q-3 34 -3 71q0 52 11 127h-170v33h174q23 118 79 221.5
t137 181t189.5 122t229.5 44.5q171 0 281 -79t110 -189q0 -54 -32 -92.5t-79 -38.5q-54 0 -88.5 31t-34.5 88q0 44 27 77.5t72 47.5q-17 45 -92.5 87t-167.5 42q-185 0 -307 -134t-146 -409h489v-33h-491q-2 -29 -2 -90q0 -38 4 -108h489v-33z" />
    <glyph glyph-name="published" unicode="&#x2117;" horiz-adv-x="1708" 
d="M854 -70q-163 0 -308.5 60.5t-249.5 164.5t-165 250t-61 310q0 162 61 307t165 249t249.5 165t308.5 61t308.5 -61t249.5 -165t165 -249t61 -307q0 -164 -61 -310t-165 -250t-249.5 -164.5t-308.5 -60.5zM854 -41q210 0 382.5 102t270 275t97.5 379q0 207 -97.5 379.5
t-270 273t-382.5 100.5q-209 0 -381.5 -100.5t-270.5 -273.5t-98 -379q0 -154 58 -293.5t157 -241t238.5 -161.5t296.5 -60zM532 322v18q78 3 105 15t27 42v650q0 31 -27 43.5t-105 15.5v16h338q158 0 241 -61t83 -164q0 -102 -85 -168.5t-247 -66.5h-80v-265q0 -32 28 -44
t114 -15v-16h-392zM782 686h84q112 0 156.5 48.5t44.5 160.5q0 103 -48 154t-149 51h-88v-414z" />
    <glyph glyph-name="servicemark" unicode="&#x2120;" horiz-adv-x="1122" 
d="M102 1122h17q53 -135 153 -135q49 0 76 25t27 63q0 33 -26.5 55.5t-96.5 43.5q-37 12 -57.5 20.5t-42 23.5t-30.5 35.5t-9 49.5q0 61 46 98t113 37q50 0 101 -19l20 23h13v-142h-15q-47 117 -125 117q-42 0 -69 -23t-27 -59q0 -32 26.5 -51.5t94.5 -40.5
q70 -22 103.5 -49.5t33.5 -83.5q0 -59 -42 -101t-120 -42q-49 0 -119 24l-30 -26h-15v157zM479 977v14q47 4 60.5 21.5t13.5 70.5v269q0 29 -16 44.5t-58 16.5v14h172l125 -331h8l121 331h166v-14q-43 -3 -58.5 -11t-15.5 -26v-348q0 -18 15.5 -26t58.5 -9v-16h-211v16
q37 1 49.5 9t12.5 26v346h-11l-147 -399h-19l-153 399h-12v-291q0 -53 12.5 -69.5t58.5 -22.5v-14h-172z" />
    <glyph glyph-name="trademark" unicode="&#x2122;" horiz-adv-x="1193" 
d="M551 977v14q47 4 60.5 21.5t13.5 70.5v269q0 29 -16 44.5t-58 16.5v14h172l125 -331h8l121 331h166v-14q-43 -3 -58.5 -11t-15.5 -26v-348q0 -18 15.5 -26t58.5 -9v-16h-211v16q37 1 49 9t12 26v346h-10l-147 -399h-19l-153 399h-13v-291q0 -52 13 -69t59 -23v-14h-172z
M184 977v16q47 0 62.5 8t15.5 27v381h-20q-49 0 -73.5 -27t-53.5 -106h-17l6 151h392l6 -151h-17q-28 79 -52.5 106t-76.5 27h-18v-381q0 -18 16.5 -26.5t61.5 -8.5v-16h-232z" />
    <glyph glyph-name="minus" unicode="&#x2212;" horiz-adv-x="1097" 
d="M111 649v35h876v-35h-876z" />
    <glyph glyph-name="registered.alt" horiz-adv-x="1708" 
d="M854 -70q-163 0 -308.5 60.5t-249.5 164.5t-165 250t-61 310q0 162 61 307t165 249t249.5 165t308.5 61t308.5 -61t249.5 -165t165 -249t61 -307q0 -164 -61 -310t-165 -250t-249.5 -164.5t-308.5 -60.5zM854 -41q210 0 382.5 102t270 275t97.5 379q0 207 -97.5 379.5
t-270 273t-382.5 100.5q-209 0 -381.5 -100.5t-270.5 -273.5t-98 -379q0 -154 58 -293.5t157 -241t238.5 -161.5t296.5 -60zM745 737h95q114 0 156 40t42 143q0 94 -46.5 137t-153.5 43h-93v-363zM745 715v-318q0 -31 25 -42.5t102 -14.5v-18h-376v18q78 3 104.5 15t26.5 42
v650q0 31 -26.5 43.5t-104.5 15.5v16h360q159 0 234 -54.5t75 -139.5q0 -163 -219 -199v-4q102 -7 145 -48t54 -122l14 -106q8 -70 30 -90.5t95 -20.5v-16q-45 -5 -63 -5q-104 0 -143.5 32.5t-45.5 111.5l-8 96q-8 92 -45 125t-141 33h-93z" />
    <glyph glyph-name="percent.alt" horiz-adv-x="1740" 
d="M774 1024q0 -75 -29.5 -143t-77.5 -115t-110 -74.5t-125 -27.5q-140 0 -242 102t-102 254q0 150 104.5 255t235.5 105q141 0 243.5 -101.5t102.5 -254.5zM328 -20l530 712l496 680h63l-528 -708l-498 -684h-63zM424 1354q-92 0 -139 -75.5t-47 -254.5t51.5 -256.5
t146.5 -77.5q94 0 140.5 75.5t46.5 254.5q0 180 -51 257t-148 77zM971 328q0 75 29.5 143t77.5 115t110 74.5t125 27.5q140 0 242 -101.5t102 -254.5q0 -150 -104.5 -255.5t-235.5 -105.5q-141 0 -243.5 102.5t-102.5 254.5zM1321 -2q92 0 139 75.5t47 254.5
q0 180 -51.5 257t-146.5 77q-94 0 -140.5 -75.5t-46.5 -254.5t51.5 -256.5t147.5 -77.5z" />
    <glyph glyph-name="NUL" horiz-adv-x="0" 
 />
    <glyph glyph-name="hfjslug" horiz-adv-x="1421" 
d="M1319 -410h-426l-16 29h-334l-17 -29h-424v621q28 0 47 18.5t19 46.5q0 27 -19.5 46.5t-46.5 19.5v1135h205l62 161h684l59 -161h207v-1887zM819 1153v-352h31v160h78v28h-78v135h88v29h-119zM377 1153v-352h31v162h96v-162h31v352h-31v-162h-96v162h-31zM942 807
q20 -8 43 -8q64 0 64 73v281h-33v-281q0 -45 -33 -45q-13 0 -41 11v-31zM760 952l-27 6q-9 -39 -16 -61h-2l-33 64q47 44 47 86q0 25 -14.5 44t-40.5 19q-25 0 -41.5 -19t-16.5 -44q0 -9 1 -16.5t4.5 -16.5t6 -13.5t9 -16.5t8.5 -17q-47 -38 -47 -97q0 -34 16.5 -54.5
t42.5 -20.5q41 0 60 49h2l24 -49l25 12l-35 65q16 40 27 80zM1071 662v-95h16v25l17 16l31 -41h20l-41 54l37 41h-21l-40 -50h-3v50h-16zM999 598l21 -31h18l-24 35q20 8 20 29q0 13 -10 22t-25 9h-41v-95h17v31h24zM872 565q22 0 36 14.5t14 34.5q0 19 -14.5 34.5
t-35.5 15.5t-35 -15t-14 -35q0 -21 14 -35t35 -14zM758 616l-27 46h-18l37 -60v-35h16v35l37 60h-19zM395 662v-95h70v15h-53v26h47v15h-47v24h53v15h-70zM270 662v-95h17v66l51 -66h14v95h-16v-66l-51 66h-15zM494 662l28 -97h17l22 70h2l23 -70h16l29 97h-17l-20 -72h-2
l-23 72h-14l-23 -72h-2l-20 72h-16zM670 981q-25 48 -25 66q0 15 8.5 26.5t20.5 11.5t19 -11t7 -27q0 -31 -30 -66zM700 866q-16 -43 -41 -43q-14 0 -23 14t-9 37q0 40 32 72zM997 612h-22v35h22q21 0 21 -16q0 -8 -6 -13.5t-15 -5.5zM872 580q-14 0 -23 10t-9 24q0 13 9 24
t23 11t23.5 -11t9.5 -24q0 -14 -9 -24t-24 -10z" />
    <glyph glyph-name="i.dot" horiz-adv-x="544" 
d="M268 1141q-45 0 -74.5 31t-29.5 77q0 48 29.5 80.5t74.5 32.5q46 0 76.5 -32t30.5 -79q0 -46 -31 -78t-76 -32zM45 0v18q94 2 126 17t32 65v715q0 34 -11 53t-46 31t-101 16v17l313 10v-842q0 -51 31 -65.5t125 -16.5v-18h-469z" />
    <glyph glyph-name="caron.alt" horiz-adv-x="276" 
d="M80 1096l-4 219q0 18 -1 66t-1 63q0 58 24 81t56 23q34 0 54.5 -19t20.5 -56q0 -35 -30 -117l-103 -260h-16z" />
    </font>
</defs>
</svg>
