<?xml version="1.0" encoding="utf-8"?>
<!-- Generator: Adobe Illustrator 26.2.1, SVG Export Plug-In . SVG Version: 6.00 Build 0)  -->
<svg version="1.1" id="Layer_1" xmlns="http://www.w3.org/2000/svg" xmlns:xlink="http://www.w3.org/1999/xlink" x="0px" y="0px"
	 viewBox="0 0 638.2 321.7" style="enable-background:new 0 0 638.2 321.7;" xml:space="preserve">
<style type="text/css">
	.st0{fill:#464646;}
	.st1{fill:#A58255;}
</style>
<path class="st0" d="M13.7,283.9H0V321h5.7v-13.8h8c6.8,0,11.9-4.7,11.9-11.7S20.6,283.9,13.7,283.9z M19.7,295.4
	c0,4-2.6,6.8-6.6,6.8H5.7v-13.4h7.4c0.2,0,0.4,0,0.6,0C17.2,289,19.9,291.9,19.7,295.4z M54.9,306.8c0-7.9-4.9-14.2-13.5-14.2
	c-7.9,0-13.8,5.8-13.8,14.6c0,8.3,5.6,14.5,13.8,14.3c6.9,0,11.8-3.7,13.2-9h-5.4c-1.1,2.7-4.1,4.4-7.6,4.4c-5.1,0-8.3-3.3-8.5-8.1
	h21.8V306.8z M33.3,304.6c0.3-4.3,3.9-7.5,8.1-7.4c4.3,0,7.6,2.8,8,7.4H33.3z M60.7,293.3H66v4.8h0.4c1.3-3,4.2-4.9,7.4-4.9h2.4v5.4
	h-2.6c-4.7,0-7.4,3.5-7.4,8.7V321h-5.5C60.7,321,60.7,293.3,60.7,293.3z M80.1,312.8h5.2c0.4,2.8,2.4,4.3,6,4.3s5.6-1.7,5.6-4.1
	c0-6.8-16.2-1.1-16.2-12.3c0-4.6,4.1-8.1,10.5-8.1c5.6,0,9.9,3,10.3,8.3h-5.1c-0.3-2.3-2.1-3.8-5.4-3.8c-3.1,0-5.1,1.5-5.1,3.5
	c0,6.1,16.4,0.4,16.4,12.2c0,5.2-4.3,8.9-11.2,8.9C84.2,321.7,80.5,318.1,80.1,312.8z M121.5,292.7c-8.6,0-14.7,6.2-14.7,14.5
	s6.1,14.5,14.6,14.5s14.6-6.3,14.6-14.5S130.1,292.7,121.5,292.7z M121.5,316.7c-5.1,0-8.9-4-8.9-9.5s3.7-9.5,8.9-9.5s8.9,4,8.9,9.5
	C130.4,312.6,126.6,316.6,121.5,316.7z M141.8,293.3h5.4v3.7h0.4c1.1-2.3,4-4.4,8.1-4.4c6.3,0,10.2,4.6,10.2,10.6V321h-5.5v-16.7
	c0-3.9-2.7-6.4-6.2-6.4c-3.8,0-6.7,3-6.7,7V321H142L141.8,293.3L141.8,293.3z M193.5,293.3v4h-0.4c-2-3-5.4-4.8-9-4.7
	c-7.8,0-13.2,6-13.2,14.6s5.5,14.5,13.5,14.5c3.5,0.1,6.9-1.7,8.9-4.6h0.3v3.9h5.4v-27.7L193.5,293.3L193.5,293.3z M185.1,316.7
	c-5.1,0-8.6-3.7-8.6-9.5c0-5.6,3.5-9.5,8.5-9.5c4.9,0,8.6,3.5,8.6,9.5C193.6,312.4,190.4,316.6,185.1,316.7z M206,314.1v-32.8h5.6
	v32.5c0,1.5,0.7,2.3,2.1,2.3h1.2v4.9h-2.3C208.4,321,206,318.4,206,314.1z M234.9,283.9h21.9v5h-16.2v11.3h15v5h-15V321h-5.7V283.9z
	 M261.8,285.4c-0.1-2,1.5-3.7,3.5-3.8c2-0.1,3.7,1.5,3.8,3.5c0.1,2-1.5,3.7-3.5,3.8c-0.1,0-0.1,0-0.2,0c-1.9,0.1-3.5-1.4-3.6-3.3
	C261.8,285.6,261.8,285.5,261.8,285.4z M262.6,293.3h5.5V321h-5.5V293.3z M275.2,293.3h5.4v3.7h0.4c1.1-2.3,4-4.4,8.1-4.4
	c6.3,0,10.2,4.6,10.2,10.6V321h-5.5v-16.7c0-3.9-2.7-6.4-6.2-6.4c-3.9,0-6.7,3-6.7,7V321h-5.5L275.2,293.3L275.2,293.3z M327,293.3
	v4h-0.4c-2.1-3-5.5-4.8-9.1-4.7c-7.8,0-13.2,6-13.2,14.6s5.5,14.5,13.5,14.5c3.5,0.1,6.9-1.7,8.9-4.6h0.3v3.9h5.6v-27.7L327,293.3
	L327,293.3z M318.6,316.7c-5.1,0-8.6-3.7-8.6-9.5c0-5.6,3.5-9.5,8.5-9.5c4.9,0,8.6,3.5,8.6,9.5C327.1,312.4,323.8,316.6,318.6,316.7
	z M339.5,293.3h5.4v3.7h0.4c1.1-2.3,4-4.4,8.1-4.4c6.3,0,10.2,4.6,10.2,10.6V321H358v-16.7c0-3.9-2.7-6.4-6.2-6.4
	c-3.9,0-6.7,3-6.7,7V321h-5.5L339.5,293.3L339.5,293.3z M368.6,307.2c0-8.2,5.9-14.5,14.3-14.5c6.5,0,12.1,4,13.4,10.4h-5.7
	c-0.9-3.2-4-5.3-7.6-5.3c-5.2,0-8.7,4.1-8.7,9.5s3.6,9.5,8.8,9.5c3.4,0.1,6.5-2,7.6-5.2h5.7c-1.2,6.3-6.8,10.3-13.3,10.3
	C374.4,321.7,368.6,315.3,368.6,307.2z M427.5,306.8c0-7.9-4.9-14.2-13.5-14.2c-7.9,0-13.8,5.8-13.8,14.6c0,8.3,5.5,14.5,13.8,14.3
	c6.9,0,11.8-3.7,13.2-9h-5.4c-1.1,2.7-4.1,4.4-7.6,4.4c-5.1,0-8.3-3.3-8.5-8.1h21.8V306.8z M405.9,304.6c0.3-4.3,3.9-7.5,8.1-7.4
	c4.3,0,7.6,2.8,8,7.4H405.9z"/>
<path class="st0" d="M0.3,143.2v109.1c0,4.8,3.9,8.6,8.6,8.6c4.8,0,8.6-3.9,8.6-8.6v-86.6L38.6,192c1.5,2,4,3.1,6.5,3
	c2.1,0.1,4.1-0.7,5.6-2.2c3.6-2.8,4.2-7.9,1.4-11.5c0-0.1-0.1-0.1-0.1-0.2l-37.1-44.4c-1.6-2-4.1-3.2-6.7-3.3
	C3.6,133.5,0.3,137,0.3,143.2z"/>
<path class="st0" d="M602.5,167.4c-4.8,0-8.6,3.9-8.6,8.6v1.3c-20.1-16.7-49.9-14-66.6,6c-16.7,20.1-14,49.9,6,66.6
	c8.5,7.1,19.3,11,30.4,11c11.1,0,21.8-4,30.2-11.2v2.6c0,4.8,3.9,8.6,8.6,8.6s8.6-3.9,8.6-8.6V176
	C611.1,171.2,607.2,167.4,602.5,167.4z M564.1,243.7c-0.2,0-0.3,0-0.4,0c-16.7,0-30.2-13.5-30.2-30.2s13.5-30.2,30.2-30.2
	c16.4,0,30.2,13.8,30.2,30.2C594,230.1,580.7,243.6,564.1,243.7z"/>
<path class="st0" d="M397.7,167.4c-4.8,0-8.6,3.9-8.6,8.6v43.5c0,13.6-11,24.6-24.5,24.6l0,0c-13.8,0-25-11.2-25-24.6v-44
	c0-4.8-3.9-8.6-8.6-8.6c-4.8,0-8.6,3.9-8.6,8.6V219c0.3,23.1,19.3,41.6,42.4,41.2c22.6-0.3,40.9-18.6,41.2-41.2v-43.5
	C405.9,171,402.2,167.4,397.7,167.4z"/>
<path class="st0" d="M462.8,166.1c-23.1,0-41.7,18.7-41.8,41.8v43.5c0,4.8,3.9,8.6,8.6,8.6s8.6-3.9,8.6-8.6v-43.5
	c0-13.8,11.2-25,24.6-25c13.8,0,25,11.2,25,25v43.5c0,4.8,3.9,8.6,8.6,8.6s8.6-3.9,8.6-8.6v-43.5C504.2,185,485.7,166.1,462.8,166.1
	z"/>
<path class="st0" d="M99.5,259.4c8.6,0,8.4-8.4,8.4-8.4V142.3c-0.2-4.7-4.1-8.6-8.4-8.6c-4.7,0-8.6,3.9-8.6,8.6v85.8l-22-26.7
	c-3.1-3.4-8.3-4-12.1-1.3c-3.4,3.1-4,8.3-1.3,12.1l37.1,44.4C92.5,256.6,94.7,259.4,99.5,259.4z"/>
<path class="st0" d="M169.7,166.1c-26.2,0-47.4,21.2-47.4,47.4s21.2,47.4,47.4,47.4s47.4-21.2,47.4-47.4
	C217,187.3,195.8,166.2,169.7,166.1z M170.1,243.7c-0.2,0-0.3,0-0.4,0c-16.7,0-30.2-13.5-30.2-30.2s13.5-30.2,30.2-30.2
	c16.4,0,30.2,13.8,30.2,30.2C200,230.1,186.7,243.6,170.1,243.7z"/>
<path class="st0" d="M273.2,254.9l34.1-75.4c1.8-4.4-0.1-9.5-4.3-11.6c-4.3-2.2-9.5,0-11.6,4.3L265.5,230l-26.3-57.8
	c-2.2-4.3-7.3-6.5-11.6-4.3s-6.5,7.3-4.3,11.6l34.5,75.4c0,0,2.1,4.9,7.4,4.9C271.3,259.8,273.2,254.9,273.2,254.9z"/>
<g>
	<path class="st0" d="M624.9,123.3c-7.2,0-13,5.8-13,13s5.8,13,13,13s13-5.8,13-13S632.1,123.3,624.9,123.3z M624.9,147.4
		c-6.1,0-11.1-5-11.1-11.1s5-11.1,11.1-11.1s11.1,5,11.1,11.1S631,147.4,624.9,147.4z"/>
	<path class="st0" d="M628,137.6c1.2-0.4,2.1-2.1,2.1-3.9c0-2.6-1.7-4.3-4.7-4.3h-5.2v13.8h2.6V138h3l2.6,5.2h2.6L628,137.6z
		 M624.9,135.9h-2.6v-4.7h2.6c1.7,0,2.6,0.8,2.6,2.6C627.5,135,626.6,135.9,624.9,135.9z"/>
</g>
<path class="st1" d="M301.3,35.1h4.4v-5h-4.4V35.1z M301.3,15.3h4.4v-5.1h-4.4V15.3z M275.4,43c3.8,0,6.2-1.9,8.3-7l10.5-25.7h-4
	l-8,20.8l-9-20.8h-4.1l11.3,24.8c-1.5,3.5-2.9,4.7-5.1,4.7c-1.4,0-2.7-0.3-3.9-0.9l-1.3,2.9C271.8,42.6,273.6,43.1,275.4,43
	 M252.2,32.3c-5.1-0.1-9.1-4.4-9-9.5v-0.1v-0.1c-0.2-5.1,3.8-9.4,9-9.6l0,0c4.7,0,8.8,3.8,8.8,9.6v0.1C261,28.8,257,32.3,252.2,32.3
	 M252.9,35.7c6,0,11.9-4.8,11.9-13v-0.1c0-8.2-5.9-12.9-11.9-12.9c-4.6,0-7.5,2.6-9.5,5.5V0h-3.7v35.1h3.7v-4.8
	C245.4,33.7,249,35.7,252.9,35.7 M201.5,32.3c-4.7,0-8.8-3.8-8.8-9.6v-0.1c0-6,3.9-9.6,8.8-9.6c5.1,0.1,9.1,4.4,9,9.5v0.1v0.1
	C210.7,27.8,206.7,32.2,201.5,32.3L201.5,32.3 M200.8,35.7c4.6,0,7.5-2.5,9.5-5.5v5h3.7V0h-3.7v15c-2.1-3.3-5.7-5.3-9.5-5.3
	c-6,0-11.9,4.8-11.9,13v0.1C188.9,31,194.8,35.7,200.8,35.7 M162.5,21.2c0.5-4.8,3.8-8.4,8.1-8.4c4.9,0,7.5,3.9,7.9,8.4H162.5z
	 M162.5,24.2h19.7c0-0.6,0-1,0-1.3c0-7.3-4.2-13.2-11.6-13.2c-6.9,0-11.9,5.8-11.9,13c0,7.8,5.6,13,12.4,13c4,0.1,7.7-1.6,10.2-4.7
	l-2.3-2.1c-2,2.3-4.8,3.5-7.9,3.5C166.8,32.5,163,29.5,162.5,24.2 M138,32.3c-4.7,0-8.8-3.8-8.8-9.6v-0.1c0-6,3.9-9.6,8.8-9.6
	c5.1,0.1,9.1,4.4,9,9.5v0.1v0.1C147.2,27.8,143.2,32.2,138,32.3L138,32.3 M137.3,35.7c4.6,0,7.5-2.5,9.5-5.5v5h3.7V0h-3.7v15
	c-2-3.3-5.7-5.3-9.5-5.3c-6,0-11.9,4.8-11.9,13v0.1C125.4,31,131.4,35.7,137.3,35.7 M113.4,35.2h3.7v-25h-3.7V35.2z M113.2,4.8h4.2
	V0.7h-4.2V4.8z M92.2,35.3h3.3l10.8-25.1h-4l-8.4,20.7l-8.4-20.7h-4.1L92.2,35.3z M64.2,32.4c-5.2,0-9.2-4.3-9.2-9.7v-0.1
	c0-5.3,3.7-9.6,9.1-9.6c5.2,0.1,9.3,4.4,9.3,9.6v0.1v0.1C73.3,28.1,69.6,32.4,64.2,32.4 M64.1,35.7c7.1,0,13-5.7,13-12.8
	c0-0.1,0-0.1,0-0.2v-0.1c-0.5-7.2-6.7-12.6-13.8-12.1c-6.5,0.4-11.7,5.7-12.1,12.2v0.1c-0.1,7,5.6,12.8,12.6,12.9
	C63.8,35.7,63.9,35.7,64.1,35.7 M32.7,35.1h3.7v-9.9c0-7.5,4.4-11.4,9.9-11.4h0.3v-4c-4.7-0.2-8.3,2.8-10.1,6.9v-6.5h-3.7L32.7,35.1
	z M3.8,19.8V5h8.5c5.4,0,9.1,2.5,9.1,7.3v0.1c0,4.4-3.7,7.4-9.2,7.4L3.8,19.8z M0,35.1h3.8V23.2H12c7.2,0,13.2-3.8,13.2-11v-0.1
	c0-6.6-5-10.7-12.6-10.7H0V35.1z"/>
<g id="Layer_2_00000111157961713935664460000005965254325667272624_">
</g>
</svg>
