<svg xmlns="http://www.w3.org/2000/svg" width="19.204" height="18"><defs><clipPath id="a"><path fill="#fff" stroke="#707070" d="M0 0h14.561v7.131H0z" data-name="Rectangle 6529"/></clipPath></defs><g data-name="Group 14"><g fill="none" stroke-miterlimit="10" data-name="Path 5"><path d="m.004 4.819 2.007 11.43a2.12 2.12 0 0 0 2.086 1.75h11.007a2.12 2.12 0 0 0 2.086-1.75l2.014-11.43Z"/><path fill="#fff" d="m1.191 5.819 1.805 10.256c.094.536.557.924 1.1.924h11.012c.543 0 1.006-.388 1.1-.923l1.805-10.257zM0 4.819h19.204l-2.01 11.43A2.12 2.12 0 0 1 15.108 18H4.096a2.12 2.12 0 0 1-2.085-1.75z"/></g><g clip-path="url(#a)" data-name="Mask Group 2" transform="translate(2.478)"><g fill="none" stroke="#fff" data-name="Rectangle 6528" transform="translate(1.456)"><rect width="11.649" height="11.649" stroke="none" rx="5.824"/><rect width="10.649" height="10.649" x=".5" y=".5" rx="5.324"/></g></g></g></svg>