<svg xmlns="http://www.w3.org/2000/svg" xmlns:xlink="http://www.w3.org/1999/xlink" width="150px" height="75px" viewBox="0 0 150 75" version="1.1">
<g id="surface1">
<path style=" stroke:none;fill-rule:evenodd;fill:rgb(73.333333%,57.647059%,37.647059%);fill-opacity:1;" d="M 52.597656 57.613281 L 54.679688 57.613281 C 55.898438 57.613281 56.632812 58.335938 56.632812 59.378906 L 56.632812 59.394531 C 56.632812 60.578125 55.714844 61.191406 54.570312 61.191406 L 53.71875 61.191406 L 53.71875 62.726562 L 52.597656 62.726562 Z M 54.609375 60.191406 C 55.167969 60.191406 55.496094 59.855469 55.496094 59.417969 L 55.496094 59.402344 C 55.496094 58.898438 55.148438 58.628906 54.585938 58.628906 L 53.71875 58.628906 L 53.71875 60.191406 Z M 54.609375 60.191406 "></path>
<path style=" stroke:none;fill-rule:evenodd;fill:rgb(73.333333%,57.647059%,37.647059%);fill-opacity:1;" d="M 60.792969 57.613281 L 61.914062 57.613281 L 61.914062 62.726562 L 60.792969 62.726562 Z M 60.792969 57.613281 "></path>
<path style=" stroke:none;fill-rule:evenodd;fill:rgb(73.333333%,57.647059%,37.647059%);fill-opacity:1;" d="M 68.214844 57.578125 L 69.25 57.578125 L 71.4375 62.722656 L 70.261719 62.722656 L 69.796875 61.578125 L 67.640625 61.578125 L 67.175781 62.722656 L 66.03125 62.722656 Z M 69.394531 60.585938 L 68.71875 58.925781 L 68.039062 60.585938 Z M 69.394531 60.585938 "></path>
<path style=" stroke:none;fill-rule:evenodd;fill:rgb(73.333333%,57.647059%,37.647059%);fill-opacity:1;" d="M 75.496094 57.613281 L 76.53125 57.613281 L 78.921875 60.761719 L 78.921875 57.613281 L 80.027344 57.613281 L 80.027344 62.726562 L 79.074219 62.726562 L 76.605469 59.476562 L 76.605469 62.726562 L 75.496094 62.726562 Z M 75.496094 57.613281 "></path>
<path style=" stroke:none;fill-rule:evenodd;fill:rgb(73.333333%,57.647059%,37.647059%);fill-opacity:1;" d="M 84.304688 60.183594 L 84.304688 60.171875 C 84.304688 58.714844 85.449219 57.527344 87.023438 57.527344 C 88.59375 57.527344 89.726562 58.703125 89.726562 60.15625 L 89.726562 60.171875 C 89.726562 61.625 88.582031 62.8125 87.007812 62.8125 C 85.433594 62.8125 84.304688 61.636719 84.304688 60.183594 Z M 88.550781 60.183594 L 88.550781 60.171875 C 88.550781 59.292969 87.910156 58.5625 87.007812 58.5625 C 86.105469 58.5625 85.476562 59.28125 85.476562 60.15625 L 85.476562 60.171875 C 85.476562 61.046875 86.117188 61.777344 87.023438 61.777344 C 87.925781 61.777344 88.550781 61.058594 88.550781 60.183594 Z M 88.550781 60.183594 "></path>
<path style=" stroke:none;fill-rule:evenodd;fill:rgb(73.333333%,57.647059%,37.647059%);fill-opacity:1;" d="M 93.613281 61.980469 L 94.277344 61.183594 C 94.738281 61.566406 95.214844 61.804688 95.796875 61.804688 C 96.257812 61.804688 96.535156 61.621094 96.535156 61.320312 L 96.535156 61.308594 C 96.535156 61.023438 96.359375 60.878906 95.507812 60.65625 C 94.480469 60.394531 93.816406 60.109375 93.816406 59.09375 L 93.816406 59.082031 C 93.816406 58.152344 94.558594 57.539062 95.601562 57.539062 C 96.347656 57.539062 96.980469 57.773438 97.496094 58.1875 L 96.914062 59.035156 C 96.464844 58.722656 96.019531 58.53125 95.589844 58.53125 C 95.160156 58.53125 94.933594 58.730469 94.933594 58.976562 L 94.933594 58.992188 C 94.933594 59.328125 95.152344 59.4375 96.03125 59.664062 C 97.066406 59.933594 97.648438 60.304688 97.648438 61.195312 L 97.648438 61.210938 C 97.648438 62.226562 96.878906 62.796875 95.777344 62.796875 C 95.007812 62.796875 94.226562 62.527344 93.613281 61.976562 Z M 93.613281 61.980469 "></path>
<path style=" stroke:none;fill-rule:evenodd;fill:rgb(73.333333%,57.647059%,37.647059%);fill-opacity:1;" d="M 63.507812 20.550781 C 62.417969 20.964844 61.683594 22.03125 61.683594 23.210938 C 61.683594 24.761719 62.941406 26.027344 64.492188 26.027344 L 89.03125 26.027344 L 89.03125 24.636719 L 64.492188 24.636719 C 63.707031 24.636719 63.070312 23.996094 63.070312 23.210938 C 63.070312 22.617188 63.453125 22.058594 63.996094 21.855469 L 86.277344 13.488281 L 85.792969 12.183594 Z M 87.644531 27.417969 L 87.644531 29.792969 L 63.339844 29.792969 L 63.339844 27.417969 L 61.953125 27.417969 L 61.953125 35.203125 L 63.339844 35.203125 L 63.339844 31.183594 L 87.644531 31.183594 L 87.644531 35.203125 L 89.03125 35.203125 L 89.03125 27.417969 Z M 87.644531 27.417969 "></path>
<path style=" stroke:none;fill-rule:evenodd;fill:rgb(73.333333%,57.647059%,37.647059%);fill-opacity:1;" d="M 95.128906 46.84375 L 95.128906 46.867188 C 95.128906 49.058594 96.792969 50.871094 99.179688 50.871094 C 101.5625 50.871094 103.25 49.035156 103.25 46.84375 L 103.25 46.820312 C 103.25 44.628906 101.585938 42.816406 99.199219 42.816406 C 96.8125 42.816406 95.128906 44.652344 95.128906 46.84375 M 96.558594 46.84375 L 96.558594 46.820312 C 96.558594 45.308594 97.636719 44.074219 99.179688 44.074219 C 100.722656 44.074219 101.820312 45.332031 101.820312 46.84375 L 101.820312 46.867188 C 101.820312 48.378906 100.746094 49.613281 99.203125 49.613281 C 97.660156 49.613281 96.5625 48.359375 96.5625 46.84375 M 48.988281 46.84375 L 48.988281 46.867188 C 48.988281 49.105469 50.675781 50.871094 52.941406 50.871094 C 54.394531 50.871094 55.28125 50.339844 56.09375 49.492188 L 55.21875 48.601562 C 54.550781 49.226562 53.941406 49.613281 52.984375 49.613281 C 51.5 49.613281 50.421875 48.367188 50.421875 46.84375 L 50.421875 46.820312 C 50.421875 45.296875 51.5 44.074219 52.984375 44.074219 C 53.875 44.074219 54.539062 44.464844 55.160156 45.042969 L 56.039062 44.03125 C 55.296875 43.316406 54.429688 42.816406 53 42.816406 C 50.644531 42.816406 48.992188 44.628906 48.992188 46.84375 M 22.871094 46.84375 L 22.871094 46.867188 C 22.871094 49.058594 24.535156 50.871094 26.917969 50.871094 C 29.304688 50.871094 30.992188 49.039062 30.992188 46.84375 L 30.992188 46.820312 C 30.992188 44.628906 29.328125 42.816406 26.941406 42.816406 C 24.554688 42.816406 22.867188 44.652344 22.867188 46.84375 M 24.300781 46.84375 L 24.300781 46.820312 C 24.300781 45.308594 25.375 44.074219 26.917969 44.074219 C 28.460938 44.074219 29.558594 45.332031 29.558594 46.84375 L 29.558594 46.867188 C 29.558594 48.382812 28.484375 49.617188 26.941406 49.617188 C 25.398438 49.617188 24.300781 48.359375 24.300781 46.847656 M 10.460938 46.847656 L 10.460938 46.871094 C 10.460938 49.105469 12.148438 50.875 14.414062 50.875 C 15.867188 50.875 16.753906 50.339844 17.566406 49.492188 L 16.6875 48.605469 C 16.023438 49.226562 15.414062 49.617188 14.457031 49.617188 C 12.972656 49.617188 11.894531 48.371094 11.894531 46.847656 L 11.894531 46.824219 C 11.894531 45.300781 12.972656 44.078125 14.457031 44.078125 C 15.347656 44.078125 16.011719 44.464844 16.632812 45.042969 L 17.511719 44.03125 C 16.769531 43.320312 15.902344 42.820312 14.472656 42.820312 C 12.117188 42.820312 10.464844 44.632812 10.464844 46.847656 M 121.972656 45.101562 L 121.972656 45.121094 C 121.972656 46.558594 122.90625 47.046875 124.5625 47.445312 C 126.003906 47.78125 126.3125 48.082031 126.3125 48.636719 L 126.3125 48.660156 C 126.3125 49.25 125.78125 49.640625 124.9375 49.640625 C 123.972656 49.640625 123.226562 49.273438 122.484375 48.628906 L 121.664062 49.605469 C 122.59375 50.441406 123.71875 50.851562 124.90625 50.851562 C 126.535156 50.851562 127.679688 49.984375 127.679688 48.527344 L 127.679688 48.503906 C 127.679688 47.214844 126.824219 46.625 125.183594 46.222656 C 123.695312 45.867188 123.339844 45.601562 123.339844 45 L 123.339844 44.976562 C 123.339844 44.464844 123.804688 44.054688 124.605469 44.054688 C 125.316406 44.054688 126.015625 44.332031 126.714844 44.855469 L 127.445312 43.820312 C 126.65625 43.1875 125.757812 42.839844 124.625 42.839844 C 123.082031 42.839844 121.972656 43.765625 121.972656 45.101562 M 39.359375 42.894531 L 35.941406 50.738281 L 37.339844 50.738281 L 38.140625 48.859375 L 41.8125 48.859375 L 42.601562 50.738281 L 44.042969 50.738281 L 40.625 42.894531 Z M 39.972656 44.53125 L 41.3125 47.644531 L 38.636719 47.644531 L 39.96875 44.53125 Z M 133.726562 42.953125 L 133.726562 50.738281 L 139.542969 50.738281 L 139.542969 49.515625 L 135.089844 49.515625 L 135.089844 47.421875 L 138.984375 47.421875 L 138.984375 46.199219 L 135.089844 46.199219 L 135.089844 44.175781 L 139.484375 44.175781 L 139.484375 42.949219 L 133.726562 42.949219 Z M 114.507812 42.953125 L 114.507812 47.433594 C 114.507812 48.871094 113.761719 49.605469 112.554688 49.605469 C 111.347656 49.605469 110.589844 48.824219 110.589844 47.378906 L 110.589844 42.953125 L 109.226562 42.953125 L 109.226562 47.433594 C 109.226562 49.695312 110.511719 50.863281 112.53125 50.863281 C 114.554688 50.863281 115.875 49.695312 115.875 47.367188 L 115.875 42.953125 Z M 87.675781 42.953125 L 87.675781 46.191406 L 83.96875 46.191406 L 83.96875 42.953125 L 82.605469 42.953125 L 82.605469 50.738281 L 83.96875 50.738281 L 83.96875 47.457031 L 87.675781 47.457031 L 87.675781 50.738281 L 89.039062 50.738281 L 89.039062 42.953125 Z M 67.035156 42.953125 L 67.035156 46.191406 L 63.332031 46.191406 L 63.332031 42.953125 L 61.964844 42.953125 L 61.964844 50.738281 L 63.332031 50.738281 L 63.332031 47.457031 L 67.035156 47.457031 L 67.035156 50.738281 L 68.402344 50.738281 L 68.402344 42.953125 Z M 67.035156 42.953125 "></path>
</g>
</svg>