<?xml version="1.0" encoding="UTF-8" standalone="no"?>
<svg
   width="34"
   height="27"
   version="1.1"
   id="svg2"
   xmlns="http://www.w3.org/2000/svg"
   xmlns:svg="http://www.w3.org/2000/svg">
  <defs
     id="defs1" />
  <g
     id="g8"
     transform="matrix(0.24151689,0,0,0.24151689,-80.683731,-27.249665)">
    <g
       id="g6">
      <path
         class="cls-1"
         d="m 303.37,320.19 h 9.19 c 5.37,0 8.61,3.18 8.61,7.78 v 0.06 c 0,5.21 -4.05,7.91 -9.1,7.91 h -3.76 v 6.75 h -4.95 v -22.5 z m 8.87,11.34 c 2.47,0 3.92,-1.48 3.92,-3.41 v -0.06 c 0,-2.22 -1.54,-3.41 -4.02,-3.41 h -3.82 v 6.88 z"
         id="path1-2"
         style="fill:#a58255" />
      <path
         class="cls-1"
         d="m 339.53,320.19 h 4.95 v 22.5 h -4.95 z"
         id="path2-6"
         style="fill:#a58255" />
      <path
         class="cls-1"
         d="m 372.28,320.03 h 4.56 l 9.64,22.66 h -5.18 l -2.06,-5.05 h -9.51 l -2.06,5.05 h -5.05 l 9.64,-22.66 z m 5.21,13.24 -2.99,-7.3 -2.99,7.3 z"
         id="path3-1"
         style="fill:#a58255" />
      <path
         class="cls-1"
         d="m 404.42,320.19 h 4.56 l 10.54,13.85 v -13.85 h 4.89 v 22.5 h -4.21 l -10.9,-14.3 v 14.3 h -4.89 v -22.5 z"
         id="path4-9"
         style="fill:#a58255" />
      <path
         class="cls-1"
         d="m 443.28,331.5 v -0.06 c 0,-6.4 5.05,-11.64 11.99,-11.64 6.94,0 11.92,5.17 11.92,11.57 v 0.06 c 0,6.4 -5.05,11.64 -11.99,11.64 -6.94,0 -11.92,-5.18 -11.92,-11.57 z m 18.74,0 v -0.06 c 0,-3.86 -2.83,-7.07 -6.81,-7.07 -3.98,0 -6.75,3.15 -6.75,7.01 v 0.06 c 0,3.86 2.83,7.07 6.81,7.07 3.98,0 6.75,-3.15 6.75,-7.01 z"
         id="path5-9"
         style="fill:#a58255" />
      <path
         class="cls-1"
         d="m 484.36,339.41 2.93,-3.5 c 2.03,1.67 4.15,2.73 6.72,2.73 2.02,0 3.25,-0.8 3.25,-2.12 v -0.06 c 0,-1.25 -0.77,-1.9 -4.53,-2.86 -4.53,-1.16 -7.46,-2.41 -7.46,-6.88 v -0.06 c 0,-4.08 3.28,-6.78 7.87,-6.78 3.28,0 6.07,1.03 8.36,2.86 l -2.57,3.73 c -1.99,-1.38 -3.95,-2.22 -5.85,-2.22 -1.9,0 -2.89,0.87 -2.89,1.96 v 0.06 c 0,1.48 0.96,1.96 4.85,2.96 4.56,1.19 7.14,2.83 7.14,6.75 v 0.06 c 0,4.47 -3.41,6.98 -8.26,6.98 -3.41,0 -6.85,-1.19 -9.55,-3.6 z"
         id="path6-1"
         style="fill:#a58255" />
    </g>
    <path
       class="cls-1"
       d="m 491.59,273.24 v 0.1 c 0,9.64 7.35,17.63 17.87,17.63 10.52,0 17.97,-8.08 17.97,-17.73 v -0.1 c 0,-9.64 -7.35,-17.63 -17.87,-17.63 -10.52,0 -17.97,8.08 -17.97,17.73 m 6.32,0 v -0.1 c 0,-6.66 4.75,-12.09 11.55,-12.09 6.8,0 11.66,5.53 11.66,12.19 v 0.1 c 0,6.66 -4.75,12.1 -11.56,12.1 -6.81,0 -11.65,-5.54 -11.65,-12.2 m -209.92,0 v 0.1 c 0,9.84 7.44,17.63 17.43,17.63 6.42,0 10.33,-2.35 13.91,-6.07 l -3.87,-3.92 c -2.94,2.74 -5.63,4.46 -9.84,4.46 -6.56,0 -11.31,-5.49 -11.31,-12.2 v -0.1 c 0,-6.71 4.75,-12.09 11.31,-12.09 3.92,0 6.86,1.71 9.6,4.26 l 3.87,-4.46 c -3.28,-3.13 -7.1,-5.34 -13.42,-5.34 -10.38,0 -17.68,7.98 -17.68,17.73 m -115.26,0 v 0.1 c 0,9.64 7.34,17.63 17.87,17.63 10.53,0 17.97,-8.08 17.97,-17.73 v -0.1 c 0,-9.64 -7.35,-17.63 -17.87,-17.63 -10.52,0 -17.97,8.08 -17.97,17.73 m 6.31,0 v -0.1 c 0,-6.66 4.75,-12.09 11.56,-12.09 6.81,0 11.66,5.53 11.66,12.19 v 0.1 c 0,6.66 -4.75,12.1 -11.56,12.1 -6.81,0 -11.66,-5.54 -11.66,-12.2 m -61.06,0 v 0.1 c 0,9.84 7.44,17.63 17.43,17.63 6.41,0 10.33,-2.35 13.91,-6.07 l -3.87,-3.92 c -2.94,2.74 -5.63,4.46 -9.84,4.46 -6.56,0 -11.31,-5.49 -11.31,-12.2 v -0.1 c 0,-6.71 4.75,-12.09 11.31,-12.09 3.92,0 6.86,1.71 9.6,4.26 l 3.87,-4.46 c -3.28,-3.13 -7.1,-5.34 -13.42,-5.34 -10.38,0 -17.68,7.98 -17.68,17.73 m 492.06,-7.69 v 0.1 c 0,6.32 4.12,8.47 11.41,10.23 6.37,1.47 7.74,2.79 7.74,5.24 v 0.09 c 0,2.6 -2.35,4.31 -6.07,4.31 -4.26,0 -7.54,-1.62 -10.82,-4.46 l -3.63,4.31 c 4.12,3.67 9.06,5.49 14.3,5.49 7.2,0 12.24,-3.82 12.24,-10.23 v -0.1 c 0,-5.68 -3.77,-8.28 -11.02,-10.04 -6.56,-1.57 -8.13,-2.74 -8.13,-5.38 v -0.1 c 0,-2.25 2.05,-4.06 5.58,-4.06 3.13,0 6.22,1.22 9.3,3.52 l 3.23,-4.56 c -3.47,-2.79 -7.44,-4.31 -12.44,-4.31 -6.81,0 -11.7,4.06 -11.7,9.94 m -364.54,-9.69 -15.08,34.52 h 6.17 l 3.52,-8.28 h 16.21 l 3.48,8.28 h 6.37 l -15.08,-34.52 h -5.58 z m 2.7,7.2 5.92,13.71 h -11.8 l 5.87,-13.71 z m 413.7,-6.95 v 34.28 h 25.66 v -5.39 h -19.64 v -9.2 h 17.19 v -5.39 h -17.19 v -8.91 h 19.39 v -5.39 h -25.42 z m -84.81,0 v 19.73 c 0,6.32 -3.28,9.55 -8.62,9.55 -5.34,0 -8.67,-3.43 -8.67,-9.79 V 256.1 h -6.02 v 19.73 c 0,9.94 5.68,15.08 14.59,15.08 8.91,0 14.74,-5.14 14.74,-15.38 v -19.44 h -6.02 z m -118.39,0 v 14.25 H 442.33 V 256.1 h -6.02 v 34.28 h 6.02 v -14.45 h 16.36 v 14.45 h 6.02 V 256.1 Z m -91.08,0 v 14.25 H 351.25 V 256.1 h -6.02 v 34.28 h 6.02 v -14.45 h 16.36 v 14.45 h 6.03 V 256.1 Z"
       id="path7-4"
       style="fill:#a58255" />
    <path
       class="cls-1"
       d="m 350.48,154.26 c -4.82,1.81 -8.06,6.51 -8.06,11.71 0,6.83 5.56,12.39 12.39,12.39 H 463.1 v -6.12 H 354.81 c -3.45,0 -6.27,-2.81 -6.27,-6.27 0,-2.62 1.68,-5.08 4.08,-5.98 l 98.33,-36.83 -2.15,-5.73 -98.33,36.83 z m 106.51,30.22 v 10.45 H 349.74 v -10.45 h -6.12 v 34.28 h 6.12 v -17.71 h 107.25 v 17.71 h 6.12 v -34.28 z"
       id="path8-4"
       style="fill:#a58255" />
  </g>
</svg>
